{"glyphs":{"0":{"ha":852,"x_min":77,"x_max":777,"o":"m 384 118 q 608 499 561 118 q 616 630 616 573 q 604 755 616 703 q 558 840 591 807 q 476 872 526 872 q 385 842 425 872 q 317 760 344 812 q 272 642 290 707 q 245 500 254 578 q 235 361 235 422 q 384 118 235 118 m 365 -16 q 150 89 224 -16 q 77 374 77 193 q 85 500 77 434 q 219 873 114 740 q 491 1006 323 1006 q 705 907 633 1006 q 777 629 777 808 q 768 500 777 568 q 698 231 749 345 q 562 50 647 116 q 365 -16 476 -16 z "},"1":{"ha":852,"x_min":136,"x_max":667,"o":"m 136 0 l 151 123 l 333 123 l 419 826 q 211 745 341 788 l 227 886 q 461 987 340 922 l 595 987 l 489 122 l 667 122 l 652 0 l 136 0 z "},"2":{"ha":852,"x_min":73,"x_max":738,"o":"m 73 0 l 87 117 l 415 427 q 548 580 511 518 q 585 726 585 642 q 547 835 585 798 q 441 872 508 872 q 399 869 421 872 q 358 861 378 866 q 319 849 338 856 q 282 836 299 843 q 250 822 265 829 q 223 808 235 814 q 202 797 211 802 q 189 788 193 791 l 184 785 l 148 908 q 164 919 153 912 q 208 942 174 925 q 276 971 241 958 q 365 994 312 983 q 470 1004 418 1004 q 665 936 592 1004 q 738 745 738 867 q 737 718 738 727 q 721 628 734 671 q 687 548 707 584 q 637 473 668 512 q 576 404 606 435 q 503 334 546 374 l 280 129 l 661 129 l 644 0 l 73 0 z "},"3":{"ha":852,"x_min":63,"x_max":752,"o":"m 564 306 q 502 414 564 378 q 328 450 440 450 l 313 450 l 269 448 l 283 581 l 330 581 q 520 617 458 581 q 593 747 582 654 q 594 760 594 751 q 546 843 594 814 q 430 872 498 872 q 355 865 391 872 q 288 842 320 858 q 243 819 256 827 q 204 795 231 812 l 147 904 q 293 982 224 958 q 466 1006 363 1006 q 607 982 543 1006 q 711 906 670 958 q 752 782 752 854 q 750 749 752 766 q 685 600 739 665 q 538 519 630 536 q 671 447 625 503 q 718 311 718 391 q 715 277 718 294 q 650 121 705 189 q 517 19 596 53 q 349 -16 439 -16 q 63 62 180 -16 l 124 181 l 130 178 q 141 172 135 175 q 158 163 148 168 q 180 153 168 158 q 207 143 193 149 q 237 133 221 138 q 270 125 253 129 q 306 120 287 122 q 344 118 326 118 q 504 168 443 118 q 564 306 564 218 z "},"4":{"ha":852,"x_min":44,"x_max":790,"o":"m 440 0 l 472 260 l 44 260 l 57 368 l 533 987 l 712 987 l 637 377 l 790 377 l 776 260 l 625 260 l 593 0 l 440 0 m 225 377 l 487 377 l 541 811 q 225 377 519 781 z "},"5":{"ha":852,"x_min":64,"x_max":779,"o":"m 589 355 q 555 466 589 422 q 460 509 522 509 q 382 496 418 509 q 324 457 345 483 l 173 473 l 237 987 l 779 987 l 762 854 l 360 854 l 319 583 q 503 648 380 648 q 683 570 615 648 q 750 370 750 492 q 717 206 750 280 q 628 84 684 132 q 503 11 573 37 q 357 -16 433 -16 q 194 16 271 -16 q 64 112 117 48 l 158 229 q 255 145 199 173 q 371 118 311 118 q 525 183 462 118 q 589 355 589 248 z "},"6":{"ha":852,"x_min":90,"x_max":789,"o":"m 395 -16 q 167 83 243 -16 q 90 357 90 182 q 98 472 90 409 q 148 679 111 583 q 242 848 185 775 q 380 964 299 922 q 556 1006 461 1006 q 789 922 707 1006 l 724 806 q 541 872 647 872 q 377 791 447 872 q 277 583 307 710 q 269 536 275 570 q 495 647 359 647 q 697 574 623 647 q 772 374 772 500 q 768 320 772 351 q 648 79 751 174 q 395 -16 546 -16 m 610 356 q 573 475 610 430 q 464 519 536 519 q 311 455 371 519 q 252 291 252 391 q 296 164 252 211 q 410 118 341 118 q 553 186 496 118 q 610 356 610 254 z "},"7":{"ha":852,"x_min":151,"x_max":824,"o":"m 164 0 l 629 859 l 151 859 l 167 987 l 824 987 l 810 869 l 331 0 l 164 0 z "},"8":{"ha":853,"x_min":65,"x_max":771,"o":"m 582 516 q 692 424 650 484 q 733 290 733 363 q 731 260 733 275 q 689 142 723 195 q 606 55 656 89 q 494 3 555 21 q 367 -16 433 -16 q 150 49 234 -16 q 65 227 65 114 q 67 264 65 244 q 135 415 78 349 q 281 518 191 481 q 146 718 146 589 q 148 748 146 732 q 257 936 162 867 q 488 1006 353 1006 q 695 946 619 1006 q 771 781 771 886 q 720 618 771 684 q 582 516 669 553 m 381 115 q 515 154 463 115 q 577 269 568 193 q 578 288 578 281 q 535 395 578 347 q 426 458 492 442 q 281 383 338 439 q 223 244 223 326 q 266 148 223 182 q 381 115 308 115 m 299 726 q 336 633 299 672 q 437 578 372 594 q 561 642 513 597 q 616 751 608 687 q 616 766 616 756 q 576 847 616 817 q 473 876 536 876 q 349 838 399 876 q 299 726 299 799 z "},"9":{"ha":852,"x_min":77,"x_max":766,"o":"m 319 -16 q 77 50 199 -16 l 146 176 q 323 118 232 118 q 499 197 425 118 q 592 432 572 276 l 595 458 q 376 356 522 356 q 175 429 248 356 q 102 624 102 503 q 105 675 102 646 q 225 912 123 819 q 479 1006 328 1006 q 693 915 620 1006 q 766 649 766 825 q 758 523 766 590 q 610 127 727 271 q 319 -16 493 -16 m 261 640 q 298 528 261 570 q 409 486 335 486 q 549 537 492 486 q 618 684 606 589 q 621 711 621 698 q 580 826 621 781 q 465 872 539 872 q 318 807 374 872 q 261 640 261 743 z "},"\r":{"ha":406,"x_min":0,"x_max":0,"o":""}," ":{"ha":404,"x_min":0,"x_max":0,"o":""},"!":{"ha":439,"x_min":81,"x_max":374,"o":"m 81 0 l 101 170 l 267 170 l 246 0 l 81 0 m 150 260 l 194 987 l 374 987 l 239 260 l 150 260 z "},"\"":{"ha":500,"x_min":76,"x_max":458,"o":"m 76 650 l 84 987 l 235 987 l 163 650 l 76 650 m 300 650 l 308 987 l 458 987 l 387 650 l 300 650 z "},"#":{"ha":920,"x_min":28,"x_max":892,"o":"m 95 7 l 192 311 l 28 311 l 48 412 l 224 412 l 281 593 l 102 593 l 121 694 l 314 694 l 406 983 l 541 983 l 449 694 l 604 694 l 694 983 l 830 983 l 738 694 l 892 694 l 873 593 l 706 593 l 648 412 l 819 412 l 800 311 l 616 311 l 519 7 l 385 7 l 481 311 l 327 311 l 230 7 l 95 7 m 359 412 l 513 412 l 571 593 l 416 593 l 359 412 z "},"$":{"ha":829,"x_min":33,"x_max":799,"o":"m 448 870 q 281 715 281 853 q 309 647 281 672 q 414 593 336 621 l 448 870 m 418 121 q 573 294 573 143 q 548 362 573 335 q 454 416 524 389 l 418 121 m 323 -143 l 339 -16 q 155 20 239 -13 q 33 97 71 54 l 115 210 q 222 148 153 176 q 355 118 291 120 l 395 437 q 368 447 386 441 q 341 456 350 453 q 169 549 223 496 q 114 694 114 603 q 141 828 114 769 q 217 924 169 887 q 328 982 266 962 q 465 1005 391 1002 l 477 1104 l 539 1104 l 527 1005 q 654 986 600 1002 q 739 949 708 970 q 799 896 770 928 l 707 791 q 511 871 638 865 l 474 573 l 509 561 q 687 462 635 517 q 739 317 739 407 q 712 175 739 237 q 638 74 686 113 q 531 14 590 35 q 401 -14 472 -8 l 386 -143 l 323 -143 z "},"%":{"ha":1251,"x_min":92,"x_max":1158,"o":"m 222 701 q 319 588 222 588 q 451 747 433 588 q 454 791 454 768 q 358 905 454 905 q 256 849 290 905 q 222 701 222 793 m 370 1002 q 528 945 471 1002 q 584 789 584 887 q 506 572 584 653 q 307 490 429 490 q 149 546 205 490 q 92 701 92 602 q 170 919 92 835 q 370 1002 247 1002 m 192 0 l 940 987 l 1067 987 l 317 0 l 192 0 m 798 195 q 894 83 798 83 q 1027 241 1007 83 q 1029 286 1029 262 q 933 399 1029 399 q 832 343 866 399 q 798 195 798 288 m 945 496 q 1102 436 1046 496 q 1158 279 1158 375 q 1080 69 1158 153 q 882 -15 1001 -15 q 725 44 781 -15 q 668 200 668 104 q 746 412 668 327 q 945 496 824 496 z "},"&":{"ha":1063,"x_min":53,"x_max":977,"o":"m 309 578 q 246 673 267 631 q 226 762 226 714 q 264 892 226 838 q 362 973 303 947 q 491 998 421 998 q 600 980 551 998 q 682 920 650 961 q 714 821 714 879 q 713 794 714 804 q 507 550 696 661 l 696 311 q 810 629 789 448 l 947 602 q 889 390 933 497 q 781 203 844 283 q 977 79 853 116 l 867 -10 q 766 28 807 0 q 682 111 726 57 q 363 -18 534 -18 q 139 52 226 -18 q 53 242 53 121 q 67 339 53 294 q 104 416 82 384 q 162 480 126 449 q 230 532 198 511 q 309 578 262 553 m 380 114 q 604 208 496 114 l 382 481 q 329 452 351 465 q 282 417 307 438 q 242 376 258 397 q 217 325 227 355 q 207 262 207 296 q 255 155 207 197 q 380 114 302 114 m 375 766 q 429 640 375 703 q 480 673 459 658 q 522 708 501 688 q 554 752 543 728 q 565 802 565 776 q 540 857 565 839 q 481 875 515 875 q 405 847 434 875 q 375 766 375 819 z "},"'":{"ha":335,"x_min":101,"x_max":278,"o":"m 101 628 l 119 987 l 278 987 l 212 628 l 101 628 z "},"(":{"ha":454,"x_min":79,"x_max":490,"o":"m 206 -116 q 79 358 79 121 q 85 451 79 410 q 342 1028 120 734 l 490 1028 q 319 742 385 890 q 237 450 254 593 q 231 359 231 403 q 263 119 231 243 q 349 -116 294 -5 l 206 -116 z "},")":{"ha":454,"x_min":-36,"x_max":375,"o":"m -36 -130 q 135 157 69 9 q 218 448 200 305 q 223 537 223 495 q 192 778 223 654 q 105 1015 161 903 l 248 1015 q 375 541 375 778 q 370 448 375 488 q 112 -130 334 165 l -36 -130 z "},"*":{"ha":730,"x_min":90,"x_max":629,"o":"m 435 454 l 345 627 l 211 455 l 108 532 l 269 690 l 90 758 l 154 870 l 311 787 l 316 987 l 458 987 l 416 787 l 590 870 l 629 758 l 435 690 l 558 530 l 435 454 z "},"+":{"ha":842,"x_min":84,"x_max":759,"o":"m 309 59 l 342 331 l 84 331 l 99 458 l 359 458 l 392 728 l 533 728 l 500 458 l 759 458 l 744 331 l 484 331 l 450 59 l 309 59 z "},",":{"ha":355,"x_min":20,"x_max":307,"o":"m 20 -170 l 136 170 l 307 170 l 146 -170 l 20 -170 z "},"-":{"ha":486,"x_min":32,"x_max":454,"o":"m 32 318 l 46 435 l 454 435 l 440 318 l 32 318 z "},".":{"ha":367,"x_min":75,"x_max":279,"o":"m 75 0 l 96 172 l 279 172 l 258 0 l 75 0 z "},"/":{"ha":568,"x_min":-41,"x_max":629,"o":"m -41 -68 l 491 987 l 629 987 l 94 -68 l -41 -68 z "},":":{"ha":387,"x_min":60,"x_max":334,"o":"m 60 -5 l 81 168 l 262 168 l 241 -5 l 60 -5 m 133 582 l 154 753 l 334 753 l 314 582 l 133 582 z "},";":{"ha":367,"x_min":-3,"x_max":341,"o":"m -3 -170 l 111 170 l 283 170 l 123 -170 l -3 -170 m 156 582 l 177 753 l 341 753 l 320 582 l 156 582 z "},"<":{"ha":918,"x_min":85,"x_max":817,"o":"m 727 33 l 85 352 l 94 425 l 817 745 l 800 605 l 288 389 l 744 170 l 727 33 z "},"=":{"ha":954,"x_min":111,"x_max":842,"o":"m 111 185 l 126 309 l 810 309 l 795 185 l 111 185 m 144 456 l 159 581 l 842 581 l 827 456 l 144 456 z "},">":{"ha":920,"x_min":102,"x_max":834,"o":"m 102 35 l 119 176 l 627 386 l 176 610 l 193 749 l 834 418 l 824 340 l 102 35 z "},"?":{"ha":701,"x_min":145,"x_max":661,"o":"m 196 271 l 208 365 q 244 458 214 413 q 315 538 275 503 q 395 608 355 574 q 466 681 435 642 q 500 759 496 720 q 502 776 502 771 q 464 850 502 826 q 364 873 427 873 q 251 858 311 873 q 157 826 192 842 l 174 958 q 396 1006 279 1006 q 587 952 513 1006 q 661 798 661 899 q 643 707 661 749 q 598 632 626 664 q 536 571 570 600 q 467 514 502 541 q 401 458 431 486 q 351 396 372 431 q 325 323 330 361 l 319 271 l 196 271 m 145 0 l 166 170 l 332 170 l 311 0 l 145 0 z "},"@":{"ha":1218,"x_min":66,"x_max":1158,"o":"m 857 172 q 761 204 795 172 q 728 291 728 237 q 729 313 728 298 q 644 215 701 253 q 514 176 588 176 q 374 230 429 176 q 318 382 318 283 q 321 423 318 404 q 367 564 330 497 q 454 675 404 631 q 561 746 504 720 q 669 772 618 772 q 800 688 782 772 l 824 757 l 956 757 l 849 426 q 820 311 825 349 q 820 307 820 309 q 819 302 819 304 q 828 267 819 281 q 856 252 837 252 q 918 279 884 252 q 984 352 953 307 q 1036 462 1015 397 q 1057 593 1057 527 q 1028 729 1057 669 q 951 826 1000 789 q 839 884 902 864 q 705 903 776 903 q 526 875 611 903 q 372 792 441 846 q 256 651 303 737 q 196 455 210 564 q 192 393 192 422 q 224 234 192 304 q 313 121 257 164 q 439 55 368 78 q 592 33 511 33 q 930 129 772 33 l 975 58 q 786 -34 892 -3 q 570 -66 680 -66 q 309 -12 423 -66 q 131 144 195 41 q 66 382 66 246 q 71 455 66 420 q 123 643 83 555 q 225 797 163 731 q 364 909 286 862 q 530 980 441 956 q 713 1004 619 1004 q 1034 891 909 1004 q 1158 599 1158 779 q 1115 395 1158 495 q 1001 234 1072 296 q 857 172 931 172 m 548 293 q 640 331 595 293 q 712 430 684 370 q 750 557 741 490 q 751 575 751 569 q 730 638 751 615 q 671 661 709 661 q 574 620 620 661 q 500 520 528 579 q 465 402 473 462 q 464 383 464 389 q 487 317 464 342 q 548 293 509 293 z "},"A":{"ha":972,"x_min":-48,"x_max":901,"o":"m -48 0 l 465 987 l 625 987 l 901 0 l 726 0 l 657 253 l 250 253 l 122 0 l -48 0 m 317 391 l 619 391 q 522 813 574 589 q 317 391 431 626 z "},"B":{"ha":923,"x_min":71,"x_max":833,"o":"m 71 0 l 192 987 l 456 987 q 529 986 496 987 q 602 980 561 985 q 674 966 643 975 q 736 942 705 958 q 788 904 768 926 q 821 851 808 883 q 833 779 833 819 q 831 741 833 767 q 780 613 822 669 q 660 528 738 557 q 782 455 740 509 q 823 321 823 400 q 821 283 823 310 q 785 176 814 226 q 709 86 757 125 q 588 23 661 46 q 427 0 515 0 l 71 0 m 657 323 q 608 421 657 394 q 444 449 559 449 l 283 449 l 244 134 l 416 134 q 657 323 657 134 m 665 743 q 613 831 665 808 q 456 854 562 854 l 332 854 l 298 578 l 449 578 q 527 586 491 578 q 595 611 564 593 q 646 663 627 629 q 665 743 665 696 z "},"C":{"ha":960,"x_min":66,"x_max":925,"o":"m 232 429 q 313 202 232 286 q 526 119 394 119 q 814 218 673 119 l 851 94 q 501 -15 695 -15 q 335 13 412 -15 q 197 93 257 41 q 101 227 136 144 q 66 412 66 309 q 71 490 66 452 q 137 708 85 609 q 263 871 189 806 q 429 970 338 935 q 615 1006 519 1006 q 925 901 807 1006 l 850 793 q 612 872 749 872 q 466 839 536 872 q 345 747 397 805 q 262 607 293 690 q 232 429 232 524 z "},"D":{"ha":1055,"x_min":71,"x_max":989,"o":"m 243 133 l 393 133 q 688 228 579 133 q 818 498 796 322 q 823 566 823 539 q 730 783 823 711 q 446 854 637 854 l 332 854 l 243 133 m 71 0 l 192 987 l 447 987 q 851 886 714 987 q 989 581 989 784 q 983 497 989 544 q 795 129 954 257 q 368 0 637 0 l 71 0 z "},"E":{"ha":828,"x_min":71,"x_max":803,"o":"m 71 0 l 192 987 l 803 987 l 787 854 l 332 854 l 298 576 l 727 576 l 711 442 l 282 442 l 244 133 l 718 133 l 702 0 l 71 0 z "},"F":{"ha":768,"x_min":71,"x_max":781,"o":"m 71 0 l 192 987 l 781 987 l 766 854 l 332 854 l 297 574 l 704 574 l 688 441 l 281 441 l 227 0 l 71 0 z "},"G":{"ha":1040,"x_min":65,"x_max":969,"o":"m 513 -16 q 180 93 294 -16 q 65 393 65 202 q 71 477 65 431 q 132 684 84 587 q 255 852 180 781 q 433 964 330 923 q 653 1006 536 1006 q 843 978 770 1006 q 969 907 916 951 l 893 798 q 639 872 795 872 q 483 841 555 872 q 359 756 410 810 q 276 633 309 703 q 233 485 243 564 q 229 417 229 450 q 306 198 229 278 q 536 118 383 118 q 726 146 637 118 l 757 397 l 519 397 l 536 531 l 931 531 l 873 58 q 513 -16 701 -16 z "},"H":{"ha":1061,"x_min":71,"x_max":990,"o":"m 71 0 l 192 987 l 348 987 l 297 573 l 783 573 l 834 987 l 990 987 l 869 0 l 715 0 l 769 440 l 283 440 l 229 0 l 71 0 z "},"I":{"ha":404,"x_min":68,"x_max":345,"o":"m 68 0 l 189 987 l 345 987 l 224 0 l 68 0 z "},"J":{"ha":612,"x_min":-45,"x_max":557,"o":"m 149 -224 q -45 -185 58 -224 l -5 -65 q 139 -92 80 -92 q 245 -50 210 -92 q 290 77 279 -7 l 401 987 l 557 987 l 446 81 q 351 -146 428 -68 q 149 -224 274 -224 z "},"K":{"ha":901,"x_min":71,"x_max":939,"o":"m 71 0 l 192 987 l 348 987 l 294 551 l 745 987 l 939 987 l 442 511 l 852 0 l 651 0 l 283 452 l 228 0 l 71 0 z "},"L":{"ha":777,"x_min":71,"x_max":701,"o":"m 71 0 l 192 987 l 348 987 l 243 133 l 701 133 l 684 0 l 71 0 z "},"M":{"ha":1330,"x_min":71,"x_max":1259,"o":"m 71 0 l 192 987 l 378 987 q 504 594 420 856 q 631 201 589 332 q 880 644 717 355 q 1074 987 1043 932 l 1259 987 l 1138 0 l 991 0 l 1081 732 q 840 313 997 589 q 663 0 684 37 l 548 0 q 435 346 516 98 q 311 728 355 593 l 221 0 l 71 0 z "},"N":{"ha":1096,"x_min":71,"x_max":1025,"o":"m 71 0 l 192 987 l 358 987 q 493 748 406 901 q 651 467 579 595 q 783 225 722 339 l 877 987 l 1025 987 l 904 0 l 737 0 q 548 333 706 56 q 309 761 390 610 l 216 0 l 71 0 z "},"O":{"ha":1121,"x_min":66,"x_max":1055,"o":"m 235 414 q 305 195 235 273 q 514 118 376 118 q 765 218 672 118 q 880 497 858 317 q 885 576 885 541 q 815 793 885 715 q 609 872 746 872 q 408 814 494 872 q 279 652 323 755 q 235 414 235 549 m 500 -16 q 180 98 294 -16 q 66 409 66 211 q 72 497 66 448 q 163 762 91 648 q 355 941 235 877 q 627 1006 475 1006 q 941 890 827 1006 q 1055 581 1055 775 q 1049 497 1055 544 q 874 123 1021 262 q 500 -16 728 -16 z "},"P":{"ha":870,"x_min":71,"x_max":854,"o":"m 71 0 l 192 987 l 473 987 q 562 985 524 987 q 642 978 601 983 q 714 962 684 972 q 771 935 744 952 q 816 895 799 918 q 844 838 833 871 q 854 763 854 805 q 850 710 854 742 q 809 578 841 633 q 722 493 777 524 q 600 448 668 462 q 443 434 532 434 l 279 434 l 227 0 l 71 0 m 690 738 q 679 791 690 770 q 651 825 668 813 q 602 844 634 838 q 541 852 570 850 q 463 854 511 854 l 332 854 l 296 568 l 457 568 q 553 575 513 568 q 626 601 593 583 q 674 653 658 619 q 690 738 690 687 z "},"Q":{"ha":1121,"x_min":66,"x_max":1055,"o":"m 766 -298 q 731 -255 753 -282 q 661 -153 710 -229 q 581 -11 612 -77 q 500 -16 545 -16 q 180 98 294 -16 q 66 409 66 211 q 72 497 66 448 q 163 762 91 648 q 355 941 235 877 q 627 1006 475 1006 q 941 890 827 1006 q 1055 581 1055 775 q 1049 497 1055 544 q 943 202 1028 325 q 720 24 857 79 q 784 -86 744 -24 q 853 -186 825 -149 l 882 -223 l 766 -298 m 235 414 q 305 195 235 273 q 514 118 376 118 q 765 218 672 118 q 880 497 858 317 q 885 576 885 541 q 815 793 885 715 q 609 872 746 872 q 408 814 494 872 q 279 652 323 755 q 235 414 235 549 z "},"R":{"ha":930,"x_min":71,"x_max":842,"o":"m 71 0 l 192 987 l 528 987 q 628 982 584 987 q 714 962 673 977 q 783 924 755 948 q 826 861 810 900 q 842 770 842 823 q 839 720 842 749 q 773 570 828 633 q 616 485 718 508 q 736 311 698 447 l 823 0 l 654 0 l 578 294 q 529 400 558 373 q 427 427 499 427 l 279 427 l 227 0 l 71 0 m 675 745 q 636 831 675 808 q 513 854 598 854 l 330 854 l 294 559 l 461 559 q 675 745 675 559 z "},"S":{"ha":844,"x_min":33,"x_max":799,"o":"m 573 294 q 543 367 573 338 q 426 427 512 396 q 382 442 412 432 q 341 456 352 452 q 169 549 223 496 q 114 694 114 603 q 143 831 114 771 q 224 929 173 892 q 342 986 275 967 q 485 1006 408 1006 q 681 978 611 1006 q 799 896 751 949 l 707 791 q 612 852 670 831 q 490 872 555 872 q 338 834 395 872 q 281 715 281 796 q 310 646 281 672 q 420 591 338 620 q 509 561 490 568 q 687 462 635 517 q 739 317 739 407 q 719 191 739 248 q 662 97 698 135 q 577 33 626 59 q 472 -4 528 7 q 356 -16 417 -16 q 162 18 251 -16 q 33 97 73 52 l 115 210 q 226 146 154 174 q 364 118 298 118 q 573 294 573 118 z "},"T":{"ha":791,"x_min":52,"x_max":844,"o":"m 256 0 l 360 854 l 52 854 l 68 987 l 844 987 l 828 854 l 516 854 l 412 0 l 256 0 z "},"U":{"ha":1019,"x_min":96,"x_max":968,"o":"m 448 -16 q 279 8 349 -16 q 170 76 209 32 q 113 176 130 121 q 96 303 96 232 q 102 395 96 349 l 174 987 l 330 987 l 257 391 q 253 326 253 355 q 308 167 253 216 q 465 118 362 118 q 739 390 705 118 l 812 987 l 968 987 l 896 396 q 868 266 887 325 q 815 153 850 207 q 731 63 780 100 q 610 6 682 27 q 448 -16 538 -16 z "},"V":{"ha":924,"x_min":71,"x_max":975,"o":"m 324 0 l 71 987 l 246 987 q 303 741 264 911 q 372 443 342 571 q 430 199 401 315 q 644 643 505 353 q 810 987 783 933 l 975 987 l 481 0 l 324 0 z "},"W":{"ha":1392,"x_min":71,"x_max":1441,"o":"m 227 0 l 71 987 l 238 987 q 273 737 249 905 q 314 438 296 570 q 345 184 331 306 q 450 439 393 306 q 577 736 506 572 q 685 987 648 901 l 837 987 q 884 738 851 909 q 941 436 917 566 q 984 182 964 305 q 1152 643 1040 342 q 1280 987 1263 943 l 1441 987 l 1050 0 l 869 0 l 730 774 l 406 0 l 227 0 z "},"X":{"ha":912,"x_min":-48,"x_max":952,"o":"m -48 0 l 368 500 l 93 987 l 285 987 l 481 632 l 772 987 l 952 987 l 554 507 l 841 0 l 650 0 l 441 376 l 136 0 l -48 0 z "},"Y":{"ha":853,"x_min":59,"x_max":918,"o":"m 285 0 l 332 385 l 59 987 l 235 987 l 430 523 l 739 987 l 918 987 l 488 387 l 441 0 l 285 0 z "},"Z":{"ha":808,"x_min":-5,"x_max":808,"o":"m -5 0 l 5 84 l 578 854 l 118 854 l 134 987 l 808 987 l 798 906 l 220 133 l 702 133 l 686 0 l -5 0 z "},"[":{"ha":431,"x_min":34,"x_max":456,"o":"m 34 -125 l 173 1010 l 456 1010 l 441 895 l 311 895 l 199 -9 l 332 -9 l 317 -125 l 34 -125 z "},"\\":{"ha":517,"x_min":24,"x_max":484,"o":"m 333 -33 l 24 987 l 176 987 l 484 -33 l 333 -33 z "},"]":{"ha":431,"x_min":0,"x_max":419,"o":"m 0 -125 l 14 -9 l 142 -9 l 253 895 l 125 895 l 139 1010 l 419 1010 l 281 -125 l 0 -125 z "},"^":{"ha":1075,"x_min":109,"x_max":890,"o":"m 109 369 l 524 987 l 622 987 l 890 369 l 739 369 l 551 817 l 263 369 l 109 369 z "},"_":{"ha":667,"x_min":-14,"x_max":682,"o":"m -14 -176 l 0 -56 l 682 -56 l 667 -176 l -14 -176 z "},"`":{"ha":410,"x_min":20,"x_max":361,"o":"m 226 793 l 20 1025 l 215 1025 l 361 793 l 226 793 z "},"a":{"ha":871,"x_min":66,"x_max":812,"o":"m 363 -16 q 231 9 289 -16 q 138 77 174 34 q 85 173 103 119 q 66 290 66 227 q 70 343 66 314 q 110 483 79 416 q 189 601 140 549 q 307 683 237 652 q 455 713 376 713 q 575 684 524 713 q 652 605 625 654 l 663 696 l 812 696 l 726 0 l 575 0 l 588 104 q 492 17 550 50 q 363 -16 433 -16 m 629 400 q 586 539 629 488 q 456 591 543 591 q 282 510 345 591 q 220 302 220 429 q 264 160 220 213 q 399 108 309 108 q 569 190 509 108 q 629 400 629 271 z "},"b":{"ha":870,"x_min":42,"x_max":787,"o":"m 416 -16 q 285 18 340 -16 q 209 98 229 51 l 197 0 l 42 0 q 70 184 64 139 l 170 996 l 321 996 l 271 591 q 300 629 281 610 q 348 668 319 648 q 420 701 377 688 q 511 713 463 713 q 714 633 641 713 q 787 419 787 553 q 756 242 787 325 q 674 104 725 160 q 555 16 623 48 q 416 -16 488 -16 m 626 399 q 585 538 626 486 q 467 591 545 591 q 298 509 364 591 q 231 305 231 427 q 276 162 231 217 q 406 108 321 108 q 567 191 507 108 q 626 399 626 275 z "},"c":{"ha":728,"x_min":67,"x_max":706,"o":"m 225 304 q 275 161 225 214 q 416 108 326 108 q 604 172 509 108 l 637 61 q 385 -16 520 -16 q 212 26 286 -16 q 103 136 139 67 q 67 294 67 205 q 71 346 67 317 q 201 610 90 507 q 475 713 312 713 q 706 624 631 713 l 640 525 q 474 590 574 590 q 296 513 366 590 q 225 304 225 435 z "},"d":{"ha":859,"x_min":49,"x_max":815,"o":"m 328 -16 q 126 66 203 -16 q 49 285 49 147 q 53 345 49 313 q 113 531 66 448 q 241 663 159 613 q 427 713 323 713 q 551 682 502 713 q 616 612 601 650 l 664 996 l 815 996 l 715 183 q 699 0 713 166 l 544 0 l 554 100 q 472 20 531 56 q 328 -16 413 -16 m 591 399 q 551 538 591 486 q 430 591 510 591 q 269 508 329 591 q 209 300 209 425 q 249 160 209 213 q 370 108 289 108 q 532 191 473 108 q 591 399 591 274 z "},"e":{"ha":802,"x_min":67,"x_max":733,"o":"m 722 323 l 227 323 q 225 293 225 302 q 278 154 225 201 q 422 108 331 108 q 650 184 541 108 l 680 73 q 396 -16 551 -16 q 154 67 241 -16 q 67 290 67 151 q 71 347 67 323 q 112 489 79 422 q 195 606 145 556 q 316 685 245 656 q 465 713 386 713 q 667 635 601 713 q 733 426 733 557 q 722 323 733 360 m 241 426 l 602 426 l 602 430 q 564 552 602 510 q 458 595 526 595 q 324 550 381 595 q 241 426 267 505 z "},"f":{"ha":532,"x_min":58,"x_max":554,"o":"m 113 0 l 185 594 l 58 594 l 71 696 l 198 696 l 203 732 q 212 799 208 772 q 225 855 217 827 q 245 903 234 884 q 273 940 256 922 q 312 969 290 958 q 364 989 334 981 q 433 1002 394 998 q 519 1006 471 1006 l 554 1006 l 535 888 q 471 886 496 888 q 426 878 446 884 q 395 862 406 871 q 375 834 384 853 q 363 794 367 815 q 355 739 359 774 l 349 696 l 510 696 l 497 594 l 337 594 l 264 0 l 113 0 z "},"g":{"ha":850,"x_min":73,"x_max":817,"o":"m 330 -281 q 73 -225 191 -281 l 115 -94 q 336 -157 217 -157 q 502 -108 439 -157 q 576 40 564 -58 l 585 106 q 499 37 552 65 q 374 8 446 8 q 164 86 245 8 q 83 295 83 163 q 87 349 83 317 q 125 491 96 426 q 200 606 154 556 q 312 685 245 656 q 458 713 378 713 q 577 685 530 713 q 647 610 624 656 l 658 696 l 817 696 q 780 480 793 590 l 733 100 q 710 -12 726 40 q 663 -115 694 -64 q 588 -201 632 -165 q 478 -259 545 -237 q 330 -281 412 -281 m 242 301 q 283 170 242 216 q 404 124 323 124 q 494 143 454 124 q 559 195 534 161 q 600 269 585 228 q 621 358 615 309 q 625 408 625 387 q 584 541 625 492 q 467 591 544 591 q 347 551 399 591 q 269 447 296 512 q 242 301 242 381 z "},"h":{"ha":832,"x_min":42,"x_max":728,"o":"m 42 0 l 164 996 l 316 996 l 267 599 q 369 682 302 650 q 500 713 437 713 q 593 699 553 713 q 658 662 633 685 q 699 606 683 639 q 722 539 715 573 q 728 466 728 505 q 724 399 728 432 l 675 0 l 523 0 l 572 402 q 576 460 576 433 q 548 559 576 528 q 462 591 519 591 q 320 539 387 591 q 245 420 254 488 l 194 0 l 42 0 z "},"i":{"ha":404,"x_min":92,"x_max":361,"o":"m 92 0 l 177 696 l 326 696 l 240 0 l 92 0 m 197 852 l 213 987 l 361 987 l 345 852 l 197 852 z "},"j":{"ha":369,"x_min":-126,"x_max":351,"o":"m 183 845 l 201 987 l 351 987 l 334 845 l 183 845 m -22 -267 q -126 -254 -58 -267 l -104 -141 q -27 -152 -56 -152 q 58 -113 27 -152 q 101 22 90 -73 l 184 696 l 331 696 l 250 37 q 234 -55 244 -14 q 204 -137 224 -96 q 155 -205 184 -178 q 82 -250 127 -233 q -22 -267 37 -267 z "},"k":{"ha":750,"x_min":45,"x_max":761,"o":"m 45 0 l 167 996 l 319 996 l 247 408 l 552 696 l 761 696 l 380 362 l 699 0 l 497 0 l 235 312 l 197 0 l 45 0 z "},"l":{"ha":372,"x_min":63,"x_max":336,"o":"m 63 0 l 186 996 l 336 996 l 214 0 l 63 0 z "},"m":{"ha":1257,"x_min":68,"x_max":1173,"o":"m 68 0 l 128 484 q 137 569 134 530 q 141 646 140 608 q 144 696 143 684 l 303 696 l 291 597 q 385 681 323 649 q 511 713 446 713 q 632 678 581 713 q 703 576 683 643 q 815 677 751 640 q 956 713 880 713 q 1118 654 1064 713 q 1173 488 1173 595 q 1168 427 1173 458 l 1116 0 l 964 0 l 1015 415 q 1018 463 1018 437 q 926 591 1018 591 q 789 531 850 591 q 718 395 728 472 l 669 0 l 517 0 l 570 427 q 573 467 573 452 q 550 556 573 522 q 472 591 526 591 q 339 538 397 591 q 273 418 281 486 l 220 0 l 68 0 z "},"n":{"ha":837,"x_min":68,"x_max":750,"o":"m 68 0 l 125 459 q 137 581 133 522 q 142 668 142 640 l 143 696 l 302 696 l 291 597 q 399 683 334 653 q 527 713 465 713 q 694 656 638 713 q 750 475 750 599 q 745 390 750 431 l 696 0 l 545 0 l 593 395 q 598 462 598 437 q 571 560 598 529 q 481 591 544 591 q 348 540 416 591 q 273 425 281 490 l 220 0 l 68 0 z "},"o":{"ha":864,"x_min":67,"x_max":798,"o":"m 637 395 q 594 537 637 484 q 463 591 550 591 q 290 509 353 591 q 227 301 227 427 q 270 160 227 213 q 404 108 314 108 q 575 189 513 108 q 637 395 637 271 m 389 -16 q 150 70 233 -16 q 67 292 67 155 q 71 348 67 316 q 134 534 83 452 q 275 665 185 616 q 479 713 364 713 q 717 630 636 713 q 798 408 798 547 q 793 347 798 378 q 753 206 784 271 q 671 91 722 141 q 548 13 621 41 q 389 -16 475 -16 z "},"p":{"ha":859,"x_min":52,"x_max":809,"o":"m 52 -275 l 144 477 q 161 696 152 541 l 321 696 l 308 588 q 394 674 327 634 q 543 713 461 713 q 739 630 668 713 q 809 415 809 547 q 806 356 809 381 q 747 172 793 256 q 621 36 700 88 q 448 -16 543 -16 q 311 23 367 -16 q 248 101 255 61 l 202 -275 l 52 -275 m 650 401 q 610 539 650 488 q 491 591 570 591 q 329 507 389 591 q 269 296 269 422 q 310 159 269 211 q 431 108 351 108 q 592 192 534 108 q 650 401 650 276 z "},"q":{"ha":852,"x_min":82,"x_max":812,"o":"m 536 -275 l 579 73 q 486 8 543 32 q 366 -16 428 -16 q 209 26 274 -16 q 113 137 143 68 q 82 293 82 205 q 86 354 82 323 q 146 535 98 454 q 275 665 194 616 q 458 713 357 713 q 564 687 515 713 q 646 613 614 661 l 656 696 l 812 696 q 783 511 795 612 l 686 -275 l 536 -275 m 623 401 q 582 539 623 488 q 462 591 541 591 q 301 507 360 591 q 241 296 241 422 q 281 159 241 210 q 401 108 321 108 q 521 148 470 108 q 598 254 572 188 q 623 401 623 319 z "},"r":{"ha":541,"x_min":70,"x_max":555,"o":"m 70 0 l 134 522 q 140 594 138 551 q 144 667 143 637 l 144 696 l 306 696 l 294 597 q 486 713 383 713 q 555 703 519 713 l 539 570 q 459 583 500 583 q 334 533 386 583 q 271 391 282 484 l 222 0 l 70 0 z "},"s":{"ha":670,"x_min":46,"x_max":618,"o":"m 450 207 q 426 251 450 234 q 330 294 401 269 l 267 316 q 201 343 227 330 q 151 375 176 355 q 115 421 127 394 q 104 484 104 448 q 128 589 104 543 q 193 660 152 634 q 281 699 233 686 q 383 712 330 712 q 515 694 454 712 q 618 648 576 677 l 565 542 q 480 576 530 561 q 383 592 429 592 q 254 508 254 592 q 274 467 254 482 q 359 429 295 452 q 424 406 364 427 q 493 377 467 390 q 545 343 519 363 q 581 295 570 323 q 593 229 593 267 q 568 115 593 164 q 501 38 543 66 q 412 -2 459 11 q 315 -16 365 -16 q 153 11 223 -16 q 46 71 83 37 l 99 182 q 197 128 136 151 q 317 106 257 106 q 450 207 450 106 z "},"t":{"ha":556,"x_min":33,"x_max":525,"o":"m 442 1 l 377 1 q 267 8 311 1 q 190 35 224 16 q 140 91 155 54 q 124 184 124 128 q 128 250 124 214 l 171 594 l 33 594 l 45 696 l 188 696 l 209 865 l 361 909 l 335 696 l 525 696 l 512 594 l 322 594 l 279 241 q 277 202 277 222 q 313 133 277 148 q 456 117 349 117 l 442 1 z "},"u":{"ha":818,"x_min":83,"x_max":755,"o":"m 321 -16 q 143 45 204 -16 q 83 211 83 106 q 86 259 83 232 l 140 696 l 290 696 l 237 260 q 235 231 235 245 q 269 138 235 169 q 366 108 302 108 q 552 280 530 108 l 603 696 l 755 696 l 692 182 q 676 0 686 133 l 520 0 l 530 106 q 504 68 520 87 q 462 29 487 49 q 400 -3 437 9 q 321 -16 363 -16 z "},"v":{"ha":747,"x_min":53,"x_max":779,"o":"m 260 0 l 53 696 l 221 696 l 357 165 q 438 333 395 245 q 534 529 481 422 q 616 696 587 637 l 779 696 l 401 0 l 260 0 z "},"w":{"ha":1132,"x_min":58,"x_max":1160,"o":"m 216 0 l 58 696 l 219 696 q 317 184 284 354 q 553 696 359 276 l 690 696 q 791 182 786 211 q 913 459 835 279 q 1017 696 991 639 l 1160 696 l 823 0 l 692 0 q 587 500 601 431 q 348 0 507 334 l 216 0 z "},"x":{"ha":711,"x_min":-23,"x_max":731,"o":"m -23 0 l 271 342 l 75 696 l 242 696 l 371 458 l 574 696 l 731 696 l 443 359 l 648 0 l 482 0 l 344 243 l 136 0 l -23 0 z "},"y":{"ha":745,"x_min":48,"x_max":787,"o":"m 99 -299 l 48 -196 q 199 -119 145 -161 q 277 -21 253 -77 l 291 13 l 84 696 l 241 696 l 385 175 l 633 696 l 787 696 l 414 -38 q 280 -206 362 -140 q 99 -299 197 -271 z "},"z":{"ha":669,"x_min":27,"x_max":647,"o":"m 27 0 l 37 81 l 436 574 l 111 574 l 125 696 l 647 696 l 637 616 l 237 121 l 593 121 l 578 0 l 27 0 z "},"{":{"ha":581,"x_min":88,"x_max":589,"o":"m 414 777 l 393 614 q 344 501 385 545 q 235 447 302 458 q 323 398 293 435 q 353 302 353 360 q 351 271 353 286 l 332 110 q 329 71 329 91 q 336 26 329 43 q 361 1 343 9 q 401 -10 379 -7 q 461 -13 422 -13 l 447 -132 q 233 -90 294 -131 q 172 45 172 -50 q 176 104 172 73 l 195 263 q 198 300 198 290 q 173 374 198 351 q 88 397 147 397 l 100 498 q 199 529 166 499 q 240 627 231 559 l 259 785 q 278 875 266 838 q 315 942 291 912 q 375 990 338 972 q 464 1017 411 1008 q 589 1027 517 1027 l 575 908 q 456 882 488 907 q 414 777 423 857 z "},"|":{"ha":412,"x_min":51,"x_max":361,"o":"m 51 -315 l 216 1029 l 361 1029 l 195 -315 l 51 -315 z "},"}":{"ha":585,"x_min":2,"x_max":503,"o":"m 2 -132 l 17 -12 q 136 14 104 -12 q 178 119 168 39 l 198 282 q 248 395 207 351 q 357 450 290 438 q 268 498 298 460 q 238 594 238 536 q 240 625 238 609 l 260 786 q 262 825 262 805 q 234 893 262 878 q 131 909 206 908 l 144 1027 q 358 986 297 1026 q 420 850 420 945 q 416 791 420 823 l 396 633 q 393 596 393 606 q 419 522 393 545 q 503 498 444 499 l 491 397 q 393 367 425 397 q 351 269 360 336 l 332 111 q 306 2 324 45 q 250 -73 288 -41 q 153 -118 213 -104 q 2 -132 92 -132 z "},"~":{"ha":956,"x_min":107,"x_max":867,"o":"m 205 246 l 107 296 q 200 439 144 393 q 334 485 256 485 q 518 435 397 485 q 655 395 621 395 q 715 421 691 395 q 760 507 740 448 l 867 466 q 776 315 829 362 q 646 267 723 267 q 466 316 589 267 q 326 358 357 358 q 257 332 284 358 q 205 246 231 305 z "},"":{"ha":1031,"x_min":67,"x_max":964,"o":"m 194 84 l 737 84 l 838 902 l 294 902 l 194 84 m 67 0 l 188 987 l 964 987 l 844 0 l 67 0 z "}," ":{"ha":404,"x_min":0,"x_max":0,"o":""},"¡":{"ha":439,"x_min":43,"x_max":336,"o":"m 336 701 l 316 531 l 150 531 l 171 701 l 336 701 m 267 441 l 223 -286 l 43 -286 l 178 441 l 267 441 z "},"¢":{"ha":718,"x_min":67,"x_max":706,"o":"m 344 -156 l 361 -15 q 145 78 222 -7 q 67 294 67 164 q 71 346 67 317 q 193 603 90 501 q 451 713 297 705 l 467 848 l 540 848 l 523 711 q 706 624 644 699 l 640 525 q 508 588 587 578 l 450 110 q 604 172 524 119 l 637 61 q 435 -13 541 -2 l 417 -156 l 344 -156 m 435 587 q 284 498 343 574 q 225 304 225 422 q 264 173 225 224 q 376 111 304 121 l 435 587 z "},"£":{"ha":838,"x_min":41,"x_max":810,"o":"m 41 0 l 56 117 q 106 160 85 140 q 152 216 127 181 q 193 300 176 250 q 218 414 210 350 l 222 456 l 96 456 l 109 566 l 235 566 l 241 617 q 264 740 250 686 q 306 845 278 794 q 373 930 334 897 q 471 985 412 964 q 607 1005 531 1005 q 810 956 732 1005 l 758 839 q 605 880 673 880 q 463 826 511 880 q 399 652 414 772 l 389 566 l 625 566 l 611 456 l 375 456 l 370 411 q 328 242 358 316 q 260 126 298 168 l 705 126 l 690 0 l 41 0 z "},"¤":{"ha":826,"x_min":45,"x_max":782,"o":"m 233 865 l 117 998 l 156 1032 l 273 899 q 445 956 351 956 q 603 900 536 956 l 751 1032 l 782 998 l 635 867 q 681 727 681 806 q 598 528 681 616 l 709 403 l 670 368 l 559 494 q 381 433 477 433 q 218 495 283 433 l 75 368 l 45 403 l 187 530 q 146 663 146 588 q 233 865 146 778 m 619 722 q 569 851 619 800 q 438 903 519 903 q 274 834 343 903 q 205 664 205 765 q 256 533 205 585 q 386 481 306 481 q 550 551 480 481 q 619 722 619 621 z "},"¥":{"ha":853,"x_min":59,"x_max":918,"o":"m 285 0 l 307 182 l 71 182 l 83 283 l 319 283 l 331 372 l 94 372 l 106 477 l 290 477 l 59 987 l 235 987 l 430 523 l 739 987 l 918 987 l 553 477 l 745 477 l 732 372 l 486 372 l 475 283 l 722 283 l 710 182 l 463 182 l 441 0 l 285 0 z "},"¦":{"ha":339,"x_min":20,"x_max":325,"o":"m 20 -315 l 93 277 l 233 277 l 161 -315 l 20 -315 m 108 405 l 184 1029 l 325 1029 l 248 405 l 108 405 z "},"§":{"ha":739,"x_min":73,"x_max":650,"o":"m 249 645 q 176 781 176 703 q 177 805 176 797 q 227 917 185 871 q 330 984 269 963 q 464 1004 391 1004 q 650 975 564 1004 l 635 858 q 472 891 526 891 q 376 870 416 891 q 336 806 336 848 q 370 747 336 776 q 475 685 404 719 q 537 650 513 665 q 586 613 562 635 q 623 566 611 591 q 635 509 635 540 q 513 325 635 408 q 591 193 591 277 q 589 170 591 178 q 491 10 576 66 q 284 -45 405 -45 q 73 -5 173 -45 l 88 121 q 291 76 191 76 q 387 99 349 76 q 431 165 425 122 l 431 171 q 391 222 431 197 q 244 300 365 239 q 120 463 120 361 q 156 568 120 521 q 249 645 192 614 m 416 382 q 470 480 470 428 q 465 504 470 493 q 454 523 460 515 q 434 539 449 530 q 411 553 419 549 q 380 568 403 557 q 349 584 358 579 q 298 544 323 570 q 273 488 273 518 q 275 474 273 481 q 281 461 277 467 q 291 449 286 454 q 304 438 295 444 q 320 428 313 432 q 340 417 328 424 q 362 407 353 411 q 388 395 372 403 q 416 382 405 388 z "},"¨":{"ha":504,"x_min":18,"x_max":484,"o":"m 18 790 l 37 936 l 189 936 l 171 790 l 18 790 m 314 790 l 332 936 l 484 936 l 466 790 l 314 790 z "},"©":{"ha":1166,"x_min":68,"x_max":1098,"o":"m 427 458 q 470 339 427 382 q 585 296 512 296 q 740 350 663 296 l 768 260 q 559 195 669 195 q 368 267 439 195 q 297 449 297 338 q 300 490 297 471 q 408 708 316 623 q 633 793 499 793 q 823 720 762 793 l 769 637 q 632 692 715 692 q 486 628 545 692 q 427 458 427 564 m 529 59 q 749 118 644 59 q 923 277 854 177 q 1007 493 992 376 q 1010 546 1010 522 q 963 739 1010 652 q 829 878 915 827 q 636 930 743 930 q 466 895 549 930 q 319 800 382 859 q 212 661 255 741 q 158 493 169 581 q 155 438 155 463 q 202 247 155 334 q 336 110 250 160 q 529 59 422 59 m 520 -15 q 340 20 425 -15 q 196 115 256 55 q 102 257 137 174 q 68 433 68 340 q 72 495 68 464 q 172 751 89 633 q 381 937 255 869 q 645 1006 507 1006 q 825 971 741 1006 q 969 876 909 936 q 1063 734 1029 817 q 1098 557 1098 651 q 1094 495 1098 526 q 994 239 1077 357 q 785 54 911 122 q 520 -15 659 -15 z "},"ª":{"ha":568,"x_min":54,"x_max":503,"o":"m 201 500 q 96 533 138 500 q 54 625 54 566 q 55 644 54 631 q 115 752 64 714 q 258 789 166 789 l 377 789 l 380 817 q 382 836 382 830 q 300 908 382 908 q 228 899 268 908 q 164 881 188 890 l 141 872 l 117 957 q 127 962 120 959 q 155 973 134 965 q 199 987 176 981 q 256 999 222 994 q 324 1004 290 1004 q 454 967 405 1004 q 503 849 503 930 q 501 815 503 833 q 477 618 480 639 q 471 519 475 597 l 359 519 l 359 586 q 299 526 340 552 q 201 500 258 500 m 221 582 q 315 615 271 582 q 366 709 359 649 l 368 721 q 301 720 325 721 q 252 717 278 720 q 212 710 225 715 q 187 697 199 706 q 169 676 174 689 q 161 646 163 664 q 161 636 161 642 q 178 596 161 611 q 221 582 195 582 z "},"«":{"ha":783,"x_min":92,"x_max":736,"o":"m 248 110 l 92 367 l 314 624 l 440 624 l 245 367 l 372 110 l 248 110 m 543 110 l 389 367 l 610 624 l 736 624 l 541 367 l 668 110 l 543 110 z "},"¬":{"ha":989,"x_min":127,"x_max":863,"o":"m 672 153 l 705 422 l 127 422 l 143 549 l 863 549 l 814 153 l 672 153 z "},"­":{"ha":486,"x_min":32,"x_max":454,"o":"m 32 318 l 46 435 l 454 435 l 440 318 l 32 318 z "},"®":{"ha":1166,"x_min":68,"x_max":1098,"o":"m 321 194 l 395 798 l 602 798 q 792 760 731 798 q 853 648 853 722 q 851 621 853 635 q 703 455 836 486 l 804 194 l 659 194 l 576 435 l 484 435 l 454 194 l 321 194 m 718 636 q 693 684 718 673 q 591 694 667 694 l 515 694 l 495 532 l 564 532 q 682 553 646 532 q 718 636 718 574 m 529 59 q 749 118 644 59 q 923 277 854 177 q 1007 493 992 376 q 1010 546 1010 522 q 963 739 1010 652 q 829 878 915 827 q 636 930 743 930 q 466 895 549 930 q 319 800 382 859 q 212 661 255 741 q 158 493 169 581 q 155 438 155 463 q 202 247 155 334 q 336 110 250 160 q 529 59 422 59 m 520 -15 q 340 20 425 -15 q 196 115 256 55 q 102 257 137 174 q 68 433 68 340 q 72 495 68 464 q 172 751 89 633 q 381 937 255 869 q 645 1006 507 1006 q 825 971 741 1006 q 969 876 909 936 q 1063 734 1029 817 q 1098 557 1098 651 q 1094 495 1098 526 q 994 239 1077 357 q 785 54 911 122 q 520 -15 659 -15 z "},"¯":{"ha":503,"x_min":39,"x_max":464,"o":"m 39 815 l 51 913 l 464 913 l 452 815 l 39 815 z "},"°":{"ha":593,"x_min":85,"x_max":508,"o":"m 414 800 q 386 874 414 845 q 311 903 357 903 q 218 864 256 903 q 179 767 179 825 q 207 692 179 722 q 281 663 235 663 q 375 703 336 663 q 414 800 414 742 m 321 990 q 455 939 402 990 q 508 809 508 887 q 436 645 508 712 q 271 577 364 577 q 138 629 191 577 q 85 758 85 680 q 157 922 85 854 q 321 990 229 990 z "},"±":{"ha":852,"x_min":82,"x_max":739,"o":"m 331 188 l 357 401 l 134 401 l 149 526 l 370 526 l 396 743 l 539 743 l 513 526 l 739 526 l 724 401 l 503 401 l 477 188 l 331 188 m 82 0 l 95 109 l 694 109 l 682 0 l 82 0 z "},"²":{"ha":760,"x_min":161,"x_max":608,"o":"m 161 417 l 173 512 l 374 677 q 486 821 479 763 q 486 831 486 825 q 467 872 486 859 q 414 886 448 886 q 334 869 377 886 q 254 824 292 852 l 218 912 q 321 970 264 949 q 434 990 378 990 q 559 954 511 990 q 608 847 608 917 q 606 823 608 839 q 555 711 600 766 q 435 598 511 657 l 338 522 l 564 522 l 550 417 l 161 417 z "},"³":{"ha":695,"x_min":151,"x_max":574,"o":"m 447 597 q 417 649 447 630 q 335 667 388 667 l 281 667 l 292 757 l 343 757 q 428 778 395 757 q 461 840 461 799 q 440 884 461 869 q 383 899 420 899 q 233 851 313 899 l 202 928 q 303 973 248 957 q 409 989 359 989 q 528 956 481 989 q 574 861 574 923 q 572 840 574 854 q 459 720 562 748 q 536 675 511 706 q 561 603 561 644 q 559 585 561 597 q 484 454 549 500 q 333 408 420 408 q 151 473 222 408 l 201 553 q 336 500 271 500 q 415 527 384 500 q 447 597 447 553 z "},"´":{"ha":412,"x_min":21,"x_max":416,"o":"m 21 793 l 221 1024 l 416 1024 l 157 793 l 21 793 z "},"¶":{"ha":827,"x_min":113,"x_max":788,"o":"m 235 -121 l 316 542 q 167 597 220 548 q 113 732 113 646 q 115 767 113 749 q 142 857 121 819 q 192 920 162 896 q 266 960 222 945 q 357 981 309 975 q 464 987 404 987 l 788 987 l 774 870 l 711 870 l 589 -121 l 471 -121 l 593 870 l 475 870 l 353 -121 l 235 -121 z "},"·":{"ha":370,"x_min":157,"x_max":350,"o":"m 157 361 l 177 526 l 350 526 l 330 361 l 157 361 z "},"¸":{"ha":359,"x_min":1,"x_max":334,"o":"m 209 -168 q 111 -113 209 -119 l 92 -111 l 130 16 l 207 16 l 184 -66 q 296 -101 259 -73 q 334 -173 334 -130 q 305 -255 334 -220 q 233 -307 277 -290 q 136 -323 189 -323 q 1 -293 61 -323 l 20 -205 q 125 -226 69 -226 q 185 -212 162 -226 q 209 -168 209 -198 z "},"¹":{"ha":672,"x_min":144,"x_max":502,"o":"m 144 418 l 156 517 l 277 517 l 319 861 q 249 841 315 859 q 180 822 184 823 l 193 926 q 356 979 347 974 l 450 982 l 393 515 l 502 515 l 490 418 l 144 418 z "},"º":{"ha":612,"x_min":49,"x_max":564,"o":"m 444 764 q 412 852 444 821 q 326 884 380 884 q 215 836 259 884 q 171 712 171 789 q 202 624 171 655 q 290 593 233 593 q 400 640 357 593 q 444 764 444 687 m 279 493 q 108 550 167 493 q 49 703 49 608 q 51 741 49 722 q 141 915 64 846 q 338 984 219 984 q 505 925 446 984 q 564 774 564 867 q 562 738 564 756 q 473 563 549 633 q 279 493 397 493 z "},"»":{"ha":783,"x_min":62,"x_max":706,"o":"m 62 110 l 257 367 l 130 624 l 255 624 l 410 367 l 188 110 l 62 110 m 358 110 l 553 367 l 427 624 l 551 624 l 706 367 l 484 110 l 358 110 z "},"¼":{"ha":1409,"x_min":146,"x_max":1273,"o":"m 146 422 l 159 519 l 286 519 l 329 870 l 186 831 l 198 932 q 284 960 206 935 q 366 987 362 985 l 462 987 l 405 518 l 517 518 l 505 422 l 146 422 m 1057 1 l 1072 131 l 821 131 l 829 203 l 1121 548 l 1235 548 l 1194 216 l 1273 216 l 1262 131 l 1183 131 l 1168 1 l 1057 1 m 330 0 l 1055 987 l 1187 987 l 463 0 l 330 0 m 941 216 l 1082 216 l 1106 413 l 941 216 z "},"½":{"ha":1621,"x_min":138,"x_max":1388,"o":"m 939 0 l 951 104 l 1154 260 q 1240 339 1218 310 q 1261 406 1261 368 q 1192 469 1261 469 q 1029 408 1118 469 l 995 500 q 1213 574 1095 574 q 1340 536 1292 574 q 1388 422 1388 497 q 1378 361 1388 390 q 1355 310 1369 332 q 1316 263 1342 289 q 1270 221 1290 237 q 1213 178 1250 205 l 1121 109 l 1344 109 l 1331 0 l 939 0 m 322 0 l 1047 987 l 1179 987 l 455 0 l 322 0 m 138 422 l 150 519 l 277 519 l 319 870 l 176 831 l 189 932 q 275 960 197 935 q 357 987 353 985 l 453 987 l 395 518 l 509 518 l 496 422 l 138 422 z "},"¾":{"ha":1611,"x_min":153,"x_max":1282,"o":"m 449 599 q 420 649 449 631 q 340 667 392 667 l 284 667 l 296 756 l 349 756 q 431 779 398 756 q 463 840 463 801 q 442 886 463 869 q 385 902 421 902 q 235 854 319 902 l 203 929 q 413 990 304 990 q 532 958 486 990 q 578 863 578 925 q 577 842 578 856 q 465 722 566 754 q 542 675 517 707 q 566 604 566 644 q 565 587 566 598 q 489 455 554 501 q 336 409 424 409 q 153 473 227 409 l 203 552 q 339 500 276 500 q 417 528 386 500 q 449 599 449 555 m 1065 1 l 1081 131 l 829 131 l 838 203 l 1130 548 l 1244 548 l 1203 216 l 1282 216 l 1272 131 l 1192 131 l 1176 1 l 1065 1 m 345 0 l 1070 987 l 1202 987 l 477 0 l 345 0 m 950 216 l 1090 216 l 1114 413 l 950 216 z "},"¿":{"ha":700,"x_min":37,"x_max":553,"o":"m 502 511 l 490 416 q 454 323 484 368 q 383 243 423 278 q 302 173 342 208 q 232 100 262 139 q 197 22 202 61 q 196 5 196 10 q 234 -68 196 -45 q 334 -92 271 -92 q 447 -77 387 -92 q 541 -45 506 -61 l 524 -177 q 302 -224 418 -224 q 111 -171 185 -224 q 37 -17 37 -118 q 55 75 37 32 q 100 149 72 117 q 162 211 128 181 q 231 268 196 240 q 296 323 267 295 q 347 386 326 351 q 373 458 368 420 l 379 511 l 502 511 m 553 781 l 532 611 l 366 611 l 387 781 l 553 781 z "},"À":{"ha":972,"x_min":-48,"x_max":901,"o":"m 492 1085 l 286 1316 l 481 1316 l 628 1085 l 492 1085 m -48 0 l 465 987 l 625 987 l 901 0 l 726 0 l 657 253 l 250 253 l 122 0 l -48 0 m 317 391 l 619 391 q 522 813 574 589 q 317 391 431 626 z "},"Á":{"ha":972,"x_min":-48,"x_max":901,"o":"m 496 1085 l 696 1316 l 891 1316 l 632 1085 l 496 1085 m -48 0 l 465 987 l 625 987 l 901 0 l 726 0 l 657 253 l 250 253 l 122 0 l -48 0 m 317 391 l 619 391 q 522 813 574 589 q 317 391 431 626 z "},"Â":{"ha":972,"x_min":-48,"x_max":901,"o":"m 315 1078 l 515 1327 l 661 1327 l 802 1078 l 663 1078 l 573 1211 l 448 1078 l 315 1078 m -48 0 l 465 987 l 625 987 l 901 0 l 726 0 l 657 253 l 250 253 l 122 0 l -48 0 m 317 391 l 619 391 q 522 813 574 589 q 317 391 431 626 z "},"Ã":{"ha":972,"x_min":-48,"x_max":901,"o":"m 450 1154 q 416 1137 431 1154 q 393 1086 401 1120 l 296 1086 q 350 1219 306 1168 q 457 1270 395 1270 q 529 1252 492 1270 q 597 1217 566 1234 q 649 1199 629 1199 q 681 1215 669 1199 q 699 1270 693 1230 l 799 1270 q 745 1131 788 1179 q 635 1082 701 1082 q 536 1118 602 1082 q 450 1154 470 1154 m -48 0 l 465 987 l 625 987 l 901 0 l 726 0 l 657 253 l 250 253 l 122 0 l -48 0 m 317 391 l 619 391 q 522 813 574 589 q 317 391 431 626 z "},"Ä":{"ha":972,"x_min":-48,"x_max":901,"o":"m 333 1082 l 351 1227 l 504 1227 l 486 1082 l 333 1082 m 629 1082 l 647 1227 l 799 1227 l 781 1082 l 629 1082 m -48 0 l 465 987 l 625 987 l 901 0 l 726 0 l 657 253 l 250 253 l 122 0 l -48 0 m 317 391 l 619 391 q 522 813 574 589 q 317 391 431 626 z "},"Å":{"ha":972,"x_min":-48,"x_max":901,"o":"m 644 1211 q 626 1257 644 1238 q 580 1275 608 1275 q 523 1251 548 1275 q 498 1193 498 1227 q 517 1146 498 1165 q 562 1128 535 1128 q 620 1152 595 1128 q 644 1211 644 1176 m 589 1342 q 681 1308 644 1342 q 718 1219 718 1274 q 668 1107 718 1152 q 554 1061 618 1061 q 462 1096 498 1061 q 425 1184 425 1131 q 475 1297 425 1252 q 589 1342 524 1342 m -48 0 l 465 987 l 625 987 l 901 0 l 726 0 l 657 253 l 250 253 l 122 0 l -48 0 m 317 391 l 619 391 q 522 813 574 589 q 317 391 431 626 z "},"Æ":{"ha":1463,"x_min":-46,"x_max":1375,"o":"m -46 0 l 654 987 l 1375 987 l 1358 850 l 905 850 l 895 572 l 1315 572 l 1299 439 l 895 439 l 885 137 l 1288 137 l 1272 0 l 710 0 l 720 253 l 317 253 l 142 0 l -46 0 m 393 376 l 724 376 l 748 850 l 722 850 l 393 376 z "},"Ç":{"ha":960,"x_min":66,"x_max":925,"o":"m 539 -168 q 441 -113 539 -119 l 422 -111 l 460 16 l 537 16 l 514 -66 q 627 -101 589 -73 q 664 -173 664 -130 q 635 -255 664 -220 q 563 -307 607 -290 q 467 -323 519 -323 q 332 -293 391 -323 l 351 -205 q 456 -226 399 -226 q 516 -212 492 -226 q 539 -168 539 -198 m 232 429 q 313 202 232 286 q 526 119 394 119 q 814 218 673 119 l 851 94 q 501 -15 695 -15 q 335 13 412 -15 q 197 93 257 41 q 101 227 136 144 q 66 412 66 309 q 71 490 66 452 q 137 708 85 609 q 263 871 189 806 q 429 970 338 935 q 615 1006 519 1006 q 925 901 807 1006 l 850 793 q 612 872 749 872 q 466 839 536 872 q 345 747 397 805 q 262 607 293 690 q 232 429 232 524 z "},"È":{"ha":828,"x_min":71,"x_max":803,"o":"m 452 1085 l 245 1316 l 441 1316 l 587 1085 l 452 1085 m 71 0 l 192 987 l 803 987 l 787 854 l 332 854 l 298 576 l 727 576 l 711 442 l 282 442 l 244 133 l 718 133 l 702 0 l 71 0 z "},"É":{"ha":828,"x_min":71,"x_max":850,"o":"m 455 1085 l 655 1316 l 850 1316 l 591 1085 l 455 1085 m 71 0 l 192 987 l 803 987 l 787 854 l 332 854 l 298 576 l 727 576 l 711 442 l 282 442 l 244 133 l 718 133 l 702 0 l 71 0 z "},"Ê":{"ha":828,"x_min":71,"x_max":803,"o":"m 275 1078 l 474 1327 l 620 1327 l 761 1078 l 623 1078 l 532 1211 l 408 1078 l 275 1078 m 71 0 l 192 987 l 803 987 l 787 854 l 332 854 l 298 576 l 727 576 l 711 442 l 282 442 l 244 133 l 718 133 l 702 0 l 71 0 z "},"Ë":{"ha":828,"x_min":71,"x_max":803,"o":"m 292 1082 l 310 1227 l 463 1227 l 444 1082 l 292 1082 m 587 1082 l 606 1227 l 758 1227 l 739 1082 l 587 1082 m 71 0 l 192 987 l 803 987 l 787 854 l 332 854 l 298 576 l 727 576 l 711 442 l 282 442 l 244 133 l 718 133 l 702 0 l 71 0 z "},"Ì":{"ha":404,"x_min":10,"x_max":352,"o":"m 216 1085 l 10 1316 l 205 1316 l 352 1085 l 216 1085 m 68 0 l 189 987 l 345 987 l 224 0 l 68 0 z "},"Í":{"ha":404,"x_min":68,"x_max":614,"o":"m 220 1085 l 420 1316 l 614 1316 l 355 1085 l 220 1085 m 68 0 l 189 987 l 345 987 l 224 0 l 68 0 z "},"Î":{"ha":404,"x_min":39,"x_max":526,"o":"m 39 1078 l 239 1327 l 385 1327 l 526 1078 l 387 1078 l 297 1211 l 172 1078 l 39 1078 m 68 0 l 189 987 l 345 987 l 224 0 l 68 0 z "},"Ï":{"ha":404,"x_min":56,"x_max":522,"o":"m 56 1082 l 75 1227 l 227 1227 l 209 1082 l 56 1082 m 352 1082 l 370 1227 l 522 1227 l 504 1082 l 352 1082 m 68 0 l 189 987 l 345 987 l 224 0 l 68 0 z "},"Ð":{"ha":1055,"x_min":17,"x_max":989,"o":"m 17 460 l 31 576 l 439 576 l 425 460 l 17 460 m 243 133 l 393 133 q 688 228 579 133 q 818 498 796 322 q 823 566 823 539 q 730 783 823 711 q 446 854 637 854 l 332 854 l 243 133 m 71 0 l 192 987 l 447 987 q 851 886 714 987 q 989 581 989 784 q 983 497 989 544 q 795 129 954 257 q 368 0 637 0 l 71 0 z "},"Ñ":{"ha":1096,"x_min":71,"x_max":1025,"o":"m 519 1154 q 486 1137 501 1154 q 463 1086 471 1120 l 366 1086 q 420 1219 376 1168 q 527 1270 465 1270 q 599 1252 562 1270 q 667 1217 636 1234 q 719 1199 699 1199 q 751 1215 739 1199 q 769 1270 763 1230 l 869 1270 q 814 1131 858 1179 q 705 1082 771 1082 q 606 1118 671 1082 q 519 1154 540 1154 m 71 0 l 192 987 l 358 987 q 493 748 406 901 q 651 467 579 595 q 783 225 722 339 l 877 987 l 1025 987 l 904 0 l 737 0 q 548 333 706 56 q 309 761 390 610 l 216 0 l 71 0 z "},"Ò":{"ha":1121,"x_min":66,"x_max":1055,"o":"m 569 1085 l 363 1316 l 558 1316 l 705 1085 l 569 1085 m 235 414 q 305 195 235 273 q 514 118 376 118 q 765 218 672 118 q 880 497 858 317 q 885 576 885 541 q 815 793 885 715 q 609 872 746 872 q 408 814 494 872 q 279 652 323 755 q 235 414 235 549 m 500 -16 q 180 98 294 -16 q 66 409 66 211 q 72 497 66 448 q 163 762 91 648 q 355 941 235 877 q 627 1006 475 1006 q 941 890 827 1006 q 1055 581 1055 775 q 1049 497 1055 544 q 874 123 1021 262 q 500 -16 728 -16 z "},"Ó":{"ha":1121,"x_min":66,"x_max":1055,"o":"m 573 1085 l 773 1316 l 968 1316 l 709 1085 l 573 1085 m 235 414 q 305 195 235 273 q 514 118 376 118 q 765 218 672 118 q 880 497 858 317 q 885 576 885 541 q 815 793 885 715 q 609 872 746 872 q 408 814 494 872 q 279 652 323 755 q 235 414 235 549 m 500 -16 q 180 98 294 -16 q 66 409 66 211 q 72 497 66 448 q 163 762 91 648 q 355 941 235 877 q 627 1006 475 1006 q 941 890 827 1006 q 1055 581 1055 775 q 1049 497 1055 544 q 874 123 1021 262 q 500 -16 728 -16 z "},"Ô":{"ha":1121,"x_min":66,"x_max":1055,"o":"m 392 1078 l 591 1327 l 737 1327 l 878 1078 l 740 1078 l 650 1211 l 525 1078 l 392 1078 m 235 414 q 305 195 235 273 q 514 118 376 118 q 765 218 672 118 q 880 497 858 317 q 885 576 885 541 q 815 793 885 715 q 609 872 746 872 q 408 814 494 872 q 279 652 323 755 q 235 414 235 549 m 500 -16 q 180 98 294 -16 q 66 409 66 211 q 72 497 66 448 q 163 762 91 648 q 355 941 235 877 q 627 1006 475 1006 q 941 890 827 1006 q 1055 581 1055 775 q 1049 497 1055 544 q 874 123 1021 262 q 500 -16 728 -16 z "},"Õ":{"ha":1121,"x_min":66,"x_max":1055,"o":"m 526 1154 q 493 1137 508 1154 q 470 1086 477 1120 l 372 1086 q 427 1219 382 1168 q 534 1270 471 1270 q 606 1252 568 1270 q 674 1217 643 1234 q 726 1199 705 1199 q 758 1215 745 1199 q 776 1270 770 1230 l 876 1270 q 821 1131 865 1179 q 712 1082 778 1082 q 612 1118 678 1082 q 526 1154 547 1154 m 235 414 q 305 195 235 273 q 514 118 376 118 q 765 218 672 118 q 880 497 858 317 q 885 576 885 541 q 815 793 885 715 q 609 872 746 872 q 408 814 494 872 q 279 652 323 755 q 235 414 235 549 m 500 -16 q 180 98 294 -16 q 66 409 66 211 q 72 497 66 448 q 163 762 91 648 q 355 941 235 877 q 627 1006 475 1006 q 941 890 827 1006 q 1055 581 1055 775 q 1049 497 1055 544 q 874 123 1021 262 q 500 -16 728 -16 z "},"Ö":{"ha":1121,"x_min":66,"x_max":1055,"o":"m 410 1082 l 428 1227 l 581 1227 l 562 1082 l 410 1082 m 705 1082 l 724 1227 l 876 1227 l 857 1082 l 705 1082 m 235 414 q 305 195 235 273 q 514 118 376 118 q 765 218 672 118 q 880 497 858 317 q 885 576 885 541 q 815 793 885 715 q 609 872 746 872 q 408 814 494 872 q 279 652 323 755 q 235 414 235 549 m 500 -16 q 180 98 294 -16 q 66 409 66 211 q 72 497 66 448 q 163 762 91 648 q 355 941 235 877 q 627 1006 475 1006 q 941 890 827 1006 q 1055 581 1055 775 q 1049 497 1055 544 q 874 123 1021 262 q 500 -16 728 -16 z "},"×":{"ha":852,"x_min":120,"x_max":739,"o":"m 206 87 l 120 184 l 331 372 l 167 560 l 276 659 l 441 470 l 652 659 l 739 561 l 526 372 l 692 184 l 583 87 l 417 274 l 206 87 z "},"Ø":{"ha":1121,"x_min":66,"x_max":1055,"o":"m 235 414 q 317 184 235 260 l 749 843 q 609 872 690 872 q 408 814 494 872 q 279 652 323 755 q 235 414 235 549 m 810 798 l 380 142 q 514 118 436 118 q 765 218 672 118 q 880 497 858 317 q 885 576 885 541 q 810 798 885 722 m 500 -16 q 300 20 389 -16 l 231 -85 l 163 -51 l 233 56 q 109 200 151 110 q 66 409 66 290 q 72 497 66 448 q 163 762 91 648 q 355 941 235 877 q 627 1006 475 1006 q 830 966 742 1006 l 894 1064 l 962 1029 l 896 928 q 1014 784 973 873 q 1055 581 1055 695 q 1049 497 1055 544 q 874 123 1021 262 q 500 -16 728 -16 z "},"Ù":{"ha":1019,"x_min":96,"x_max":968,"o":"m 513 1085 l 307 1316 l 503 1316 l 649 1085 l 513 1085 m 448 -16 q 279 8 349 -16 q 170 76 209 32 q 113 176 130 121 q 96 303 96 232 q 102 395 96 349 l 174 987 l 330 987 l 257 391 q 253 326 253 355 q 308 167 253 216 q 465 118 362 118 q 739 390 705 118 l 812 987 l 968 987 l 896 396 q 868 266 887 325 q 815 153 850 207 q 731 63 780 100 q 610 6 682 27 q 448 -16 538 -16 z "},"Ú":{"ha":1019,"x_min":96,"x_max":968,"o":"m 517 1085 l 718 1316 l 912 1316 l 653 1085 l 517 1085 m 448 -16 q 279 8 349 -16 q 170 76 209 32 q 113 176 130 121 q 96 303 96 232 q 102 395 96 349 l 174 987 l 330 987 l 257 391 q 253 326 253 355 q 308 167 253 216 q 465 118 362 118 q 739 390 705 118 l 812 987 l 968 987 l 896 396 q 868 266 887 325 q 815 153 850 207 q 731 63 780 100 q 610 6 682 27 q 448 -16 538 -16 z "},"Û":{"ha":1019,"x_min":96,"x_max":968,"o":"m 336 1078 l 536 1327 l 682 1327 l 823 1078 l 684 1078 l 594 1211 l 469 1078 l 336 1078 m 448 -16 q 279 8 349 -16 q 170 76 209 32 q 113 176 130 121 q 96 303 96 232 q 102 395 96 349 l 174 987 l 330 987 l 257 391 q 253 326 253 355 q 308 167 253 216 q 465 118 362 118 q 739 390 705 118 l 812 987 l 968 987 l 896 396 q 868 266 887 325 q 815 153 850 207 q 731 63 780 100 q 610 6 682 27 q 448 -16 538 -16 z "},"Ü":{"ha":1019,"x_min":96,"x_max":968,"o":"m 354 1082 l 372 1227 l 525 1227 l 507 1082 l 354 1082 m 650 1082 l 668 1227 l 820 1227 l 802 1082 l 650 1082 m 448 -16 q 279 8 349 -16 q 170 76 209 32 q 113 176 130 121 q 96 303 96 232 q 102 395 96 349 l 174 987 l 330 987 l 257 391 q 253 326 253 355 q 308 167 253 216 q 465 118 362 118 q 739 390 705 118 l 812 987 l 968 987 l 896 396 q 868 266 887 325 q 815 153 850 207 q 731 63 780 100 q 610 6 682 27 q 448 -16 538 -16 z "},"Ý":{"ha":852,"x_min":59,"x_max":918,"o":"m 451 1085 l 651 1316 l 846 1316 l 587 1085 l 451 1085 m 285 0 l 332 385 l 59 987 l 235 987 l 430 523 l 739 987 l 918 987 l 488 387 l 441 0 l 285 0 z "},"Þ":{"ha":876,"x_min":71,"x_max":831,"o":"m 396 228 l 254 228 l 226 0 l 71 0 l 192 987 l 347 987 l 328 825 l 450 825 q 572 820 519 825 q 676 798 626 814 q 759 754 726 781 q 812 683 792 727 q 831 579 831 639 q 808 446 831 506 q 745 347 785 387 q 649 279 705 307 q 530 240 593 252 q 396 228 467 228 m 663 557 q 608 665 663 635 q 442 694 553 694 l 311 694 l 270 360 l 429 360 q 600 409 538 360 q 663 557 663 457 z "},"ß":{"ha":854,"x_min":44,"x_max":777,"o":"m 610 251 q 555 377 610 322 q 382 492 501 432 l 397 606 q 519 682 473 636 q 572 785 566 728 q 573 798 573 789 q 542 864 573 840 q 458 888 510 888 q 336 834 385 888 q 276 686 288 781 l 192 0 l 44 0 l 126 685 q 237 926 145 843 q 473 1009 329 1009 q 665 957 594 1009 q 736 818 736 905 q 672 655 736 723 q 503 554 607 587 q 607 516 559 540 q 693 458 654 492 q 755 377 732 425 q 777 273 777 329 q 753 153 777 208 q 689 62 729 98 q 598 5 650 26 q 493 -15 547 -15 q 385 -5 439 -15 q 304 15 331 5 l 277 25 l 317 144 q 341 133 326 140 q 396 116 356 127 q 470 106 437 106 q 571 143 533 106 q 610 251 610 180 z "},"à":{"ha":870,"x_min":66,"x_max":812,"o":"m 420 793 l 214 1025 l 409 1025 l 555 793 l 420 793 m 363 -16 q 231 9 289 -16 q 138 77 174 34 q 85 173 103 119 q 66 290 66 227 q 70 343 66 314 q 110 483 79 416 q 189 601 140 549 q 307 683 237 652 q 455 713 376 713 q 575 684 524 713 q 652 605 625 654 l 663 696 l 812 696 l 726 0 l 575 0 l 588 104 q 492 17 550 50 q 363 -16 433 -16 m 629 400 q 586 539 629 488 q 456 591 543 591 q 282 510 345 591 q 220 302 220 429 q 264 160 220 213 q 399 108 309 108 q 569 190 509 108 q 629 400 629 271 z "},"á":{"ha":870,"x_min":66,"x_max":818,"o":"m 423 793 l 623 1024 l 818 1024 l 559 793 l 423 793 m 363 -16 q 231 9 289 -16 q 138 77 174 34 q 85 173 103 119 q 66 290 66 227 q 70 343 66 314 q 110 483 79 416 q 189 601 140 549 q 307 683 237 652 q 455 713 376 713 q 575 684 524 713 q 652 605 625 654 l 663 696 l 812 696 l 726 0 l 575 0 l 588 104 q 492 17 550 50 q 363 -16 433 -16 m 629 400 q 586 539 629 488 q 456 591 543 591 q 282 510 345 591 q 220 302 220 429 q 264 160 220 213 q 399 108 309 108 q 569 190 509 108 q 629 400 629 271 z "},"â":{"ha":870,"x_min":66,"x_max":812,"o":"m 243 786 l 442 1036 l 588 1036 l 729 786 l 591 786 l 500 919 l 376 786 l 243 786 m 363 -16 q 231 9 289 -16 q 138 77 174 34 q 85 173 103 119 q 66 290 66 227 q 70 343 66 314 q 110 483 79 416 q 189 601 140 549 q 307 683 237 652 q 455 713 376 713 q 575 684 524 713 q 652 605 625 654 l 663 696 l 812 696 l 726 0 l 575 0 l 588 104 q 492 17 550 50 q 363 -16 433 -16 m 629 400 q 586 539 629 488 q 456 591 543 591 q 282 510 345 591 q 220 302 220 429 q 264 160 220 213 q 399 108 309 108 q 569 190 509 108 q 629 400 629 271 z "},"ã":{"ha":870,"x_min":66,"x_max":812,"o":"m 377 862 q 343 845 359 862 q 321 794 328 829 l 223 794 q 278 927 233 876 q 385 978 322 978 q 456 960 419 978 q 525 925 494 943 q 576 907 556 907 q 608 923 596 907 q 627 978 621 939 l 726 978 q 672 839 715 887 q 563 791 629 791 q 463 826 529 791 q 377 862 397 862 m 363 -16 q 231 9 289 -16 q 138 77 174 34 q 85 173 103 119 q 66 290 66 227 q 70 343 66 314 q 110 483 79 416 q 189 601 140 549 q 307 683 237 652 q 455 713 376 713 q 575 684 524 713 q 652 605 625 654 l 663 696 l 812 696 l 726 0 l 575 0 l 588 104 q 492 17 550 50 q 363 -16 433 -16 m 629 400 q 586 539 629 488 q 456 591 543 591 q 282 510 345 591 q 220 302 220 429 q 264 160 220 213 q 399 108 309 108 q 569 190 509 108 q 629 400 629 271 z "},"ä":{"ha":870,"x_min":66,"x_max":812,"o":"m 260 790 l 278 936 l 431 936 l 412 790 l 260 790 m 555 790 l 574 936 l 726 936 l 707 790 l 555 790 m 363 -16 q 231 9 289 -16 q 138 77 174 34 q 85 173 103 119 q 66 290 66 227 q 70 343 66 314 q 110 483 79 416 q 189 601 140 549 q 307 683 237 652 q 455 713 376 713 q 575 684 524 713 q 652 605 625 654 l 663 696 l 812 696 l 726 0 l 575 0 l 588 104 q 492 17 550 50 q 363 -16 433 -16 m 629 400 q 586 539 629 488 q 456 591 543 591 q 282 510 345 591 q 220 302 220 429 q 264 160 220 213 q 399 108 309 108 q 569 190 509 108 q 629 400 629 271 z "},"å":{"ha":870,"x_min":66,"x_max":812,"o":"m 572 919 q 553 965 572 947 q 507 983 535 983 q 451 959 475 983 q 426 901 426 935 q 444 855 426 873 q 490 836 463 836 q 547 860 522 836 q 572 919 572 884 m 516 1050 q 608 1016 572 1050 q 645 928 645 982 q 595 815 645 861 q 481 770 545 770 q 389 804 426 770 q 353 892 353 839 q 402 1005 353 960 q 516 1050 452 1050 m 363 -16 q 231 9 289 -16 q 138 77 174 34 q 85 173 103 119 q 66 290 66 227 q 70 343 66 314 q 110 483 79 416 q 189 601 140 549 q 307 683 237 652 q 455 713 376 713 q 575 684 524 713 q 652 605 625 654 l 663 696 l 812 696 l 726 0 l 575 0 l 588 104 q 492 17 550 50 q 363 -16 433 -16 m 629 400 q 586 539 629 488 q 456 591 543 591 q 282 510 345 591 q 220 302 220 429 q 264 160 220 213 q 399 108 309 108 q 569 190 509 108 q 629 400 629 271 z "},"æ":{"ha":1208,"x_min":32,"x_max":1141,"o":"m 884 713 q 1077 635 1013 713 q 1141 426 1141 557 q 1136 353 1141 397 l 1129 322 l 661 322 l 659 307 q 658 285 658 299 q 834 108 658 108 q 903 116 867 108 q 964 134 938 123 q 1013 156 991 145 q 1046 175 1034 167 l 1057 182 l 1086 72 q 1073 62 1082 68 q 1036 41 1065 56 q 978 15 1008 26 q 902 -6 947 3 q 812 -16 857 -16 q 654 22 719 -16 q 562 133 589 59 q 439 22 517 61 q 274 -16 361 -16 q 97 32 162 -16 q 32 168 32 81 q 34 197 32 182 q 65 294 41 253 q 127 360 90 335 q 223 401 165 386 q 346 422 281 416 q 498 427 410 427 l 524 427 q 526 454 526 437 q 489 556 526 518 q 384 593 453 593 q 172 538 295 593 l 141 642 q 176 660 156 650 q 234 682 196 669 q 322 705 271 696 q 427 713 374 713 q 551 679 491 713 q 632 583 611 645 q 744 679 675 644 q 884 713 812 713 m 183 189 q 215 127 183 147 q 298 106 247 106 q 386 125 347 106 q 451 176 426 144 q 491 244 475 208 q 511 322 506 281 l 430 322 q 340 316 381 322 q 262 296 299 310 q 204 254 225 281 q 183 189 183 227 m 1012 446 q 972 557 1012 517 q 872 598 933 598 q 750 550 800 598 q 674 425 699 501 l 1011 425 q 1012 446 1012 431 z "},"ç":{"ha":728,"x_min":67,"x_max":706,"o":"m 426 -168 q 328 -113 426 -119 l 309 -111 l 347 16 l 424 16 l 401 -66 q 513 -101 476 -73 q 551 -173 551 -130 q 522 -255 551 -220 q 450 -307 494 -290 q 353 -323 406 -323 q 218 -293 278 -323 l 237 -205 q 342 -226 286 -226 q 402 -212 379 -226 q 426 -168 426 -198 m 225 304 q 275 161 225 214 q 416 108 326 108 q 604 172 509 108 l 637 61 q 385 -16 520 -16 q 212 26 286 -16 q 103 136 139 67 q 67 294 67 205 q 71 346 67 317 q 201 610 90 507 q 475 713 312 713 q 706 624 631 713 l 640 525 q 474 590 574 590 q 296 513 366 590 q 225 304 225 435 z "},"è":{"ha":802,"x_min":67,"x_max":733,"o":"m 415 793 l 209 1025 l 404 1025 l 551 793 l 415 793 m 722 323 l 227 323 q 225 293 225 302 q 278 154 225 201 q 422 108 331 108 q 650 184 541 108 l 680 73 q 396 -16 551 -16 q 154 67 241 -16 q 67 290 67 151 q 71 347 67 323 q 112 489 79 422 q 195 606 145 556 q 316 685 245 656 q 465 713 386 713 q 667 635 601 713 q 733 426 733 557 q 722 323 733 360 m 241 426 l 602 426 l 602 430 q 564 552 602 510 q 458 595 526 595 q 324 550 381 595 q 241 426 267 505 z "},"é":{"ha":802,"x_min":67,"x_max":814,"o":"m 722 323 l 227 323 q 225 293 225 302 q 278 154 225 201 q 422 108 331 108 q 650 184 541 108 l 680 73 q 396 -16 551 -16 q 154 67 241 -16 q 67 290 67 151 q 71 347 67 323 q 112 489 79 422 q 195 606 145 556 q 316 685 245 656 q 465 713 386 713 q 667 635 601 713 q 733 426 733 557 q 722 323 733 360 m 241 426 l 602 426 l 602 430 q 564 552 602 510 q 458 595 526 595 q 324 550 381 595 q 241 426 267 505 m 419 793 l 619 1024 l 814 1024 l 555 793 l 419 793 z "},"ê":{"ha":802,"x_min":67,"x_max":733,"o":"m 722 323 l 227 323 q 225 293 225 302 q 278 154 225 201 q 422 108 331 108 q 650 184 541 108 l 680 73 q 396 -16 551 -16 q 154 67 241 -16 q 67 290 67 151 q 71 347 67 323 q 112 489 79 422 q 195 606 145 556 q 316 685 245 656 q 465 713 386 713 q 667 635 601 713 q 733 426 733 557 q 722 323 733 360 m 241 426 l 602 426 l 602 430 q 564 552 602 510 q 458 595 526 595 q 324 550 381 595 q 241 426 267 505 m 238 786 l 437 1036 l 583 1036 l 724 786 l 586 786 l 496 919 l 371 786 l 238 786 z "},"ë":{"ha":802,"x_min":67,"x_max":733,"o":"m 722 323 l 227 323 q 225 293 225 302 q 278 154 225 201 q 422 108 331 108 q 650 184 541 108 l 680 73 q 396 -16 551 -16 q 154 67 241 -16 q 67 290 67 151 q 71 347 67 323 q 112 489 79 422 q 195 606 145 556 q 316 685 245 656 q 465 713 386 713 q 667 635 601 713 q 733 426 733 557 q 722 323 733 360 m 241 426 l 602 426 l 602 430 q 564 552 602 510 q 458 595 526 595 q 324 550 381 595 q 241 426 267 505 m 256 790 l 274 936 l 427 936 l 408 790 l 256 790 m 551 790 l 570 936 l 722 936 l 703 790 l 551 790 z "},"ì":{"ha":353,"x_min":-45,"x_max":297,"o":"m 161 793 l -45 1025 l 151 1025 l 297 793 l 161 793 m 54 0 l 140 696 l 292 696 l 207 0 l 54 0 z "},"í":{"ha":353,"x_min":54,"x_max":559,"o":"m 54 0 l 140 696 l 292 696 l 207 0 l 54 0 m 165 793 l 365 1024 l 559 1024 l 300 793 l 165 793 z "},"î":{"ha":353,"x_min":-16,"x_max":471,"o":"m 54 0 l 140 696 l 292 696 l 207 0 l 54 0 m -16 786 l 184 1036 l 330 1036 l 471 786 l 332 786 l 242 919 l 117 786 l -16 786 z "},"ï":{"ha":353,"x_min":1,"x_max":467,"o":"m 54 0 l 140 696 l 292 696 l 207 0 l 54 0 m 1 790 l 20 936 l 172 936 l 154 790 l 1 790 m 297 790 l 315 936 l 467 936 l 449 790 l 297 790 z "},"ð":{"ha":827,"x_min":43,"x_max":750,"o":"m 335 -16 q 121 66 199 -16 q 43 271 43 147 q 45 315 43 296 q 159 532 62 450 q 396 614 255 614 q 519 585 465 614 q 606 505 574 556 q 607 533 607 517 q 603 585 607 558 q 587 646 598 611 q 552 718 576 681 q 493 786 528 754 l 317 692 l 281 774 l 412 844 q 239 914 338 891 l 304 1014 q 419 979 356 1005 q 540 911 481 954 l 715 1004 l 750 922 l 612 849 q 745 505 745 709 q 739 424 745 469 q 608 94 712 204 q 335 -16 503 -16 m 200 275 q 245 154 200 197 q 359 111 291 111 q 493 165 435 111 q 562 311 551 220 q 563 334 563 326 q 514 445 563 403 q 399 488 466 488 q 303 464 347 488 q 229 392 258 441 q 200 275 200 342 z "},"ñ":{"ha":837,"x_min":68,"x_max":755,"o":"m 406 862 q 372 845 387 862 q 349 794 357 829 l 252 794 q 306 927 262 876 q 413 978 351 978 q 485 960 448 978 q 553 925 522 943 q 605 907 585 907 q 637 923 625 907 q 655 978 649 939 l 755 978 q 701 839 744 887 q 591 791 657 791 q 492 826 557 791 q 406 862 426 862 m 68 0 l 125 459 q 137 581 133 522 q 142 668 142 640 l 143 696 l 302 696 l 291 597 q 399 683 334 653 q 527 713 465 713 q 694 656 638 713 q 750 475 750 599 q 745 390 750 431 l 696 0 l 545 0 l 593 395 q 598 462 598 437 q 571 560 598 529 q 481 591 544 591 q 348 540 416 591 q 273 425 281 490 l 220 0 l 68 0 z "},"ò":{"ha":864,"x_min":67,"x_max":798,"o":"m 637 395 q 594 537 637 484 q 463 591 550 591 q 290 509 353 591 q 227 301 227 427 q 270 160 227 213 q 404 108 314 108 q 575 189 513 108 q 637 395 637 271 m 389 -16 q 150 70 233 -16 q 67 292 67 155 q 71 348 67 316 q 134 534 83 452 q 275 665 185 616 q 479 713 364 713 q 717 630 636 713 q 798 408 798 547 q 793 347 798 378 q 753 206 784 271 q 671 91 722 141 q 548 13 621 41 q 389 -16 475 -16 m 423 793 l 217 1025 l 412 1025 l 559 793 l 423 793 z "},"ó":{"ha":864,"x_min":67,"x_max":821,"o":"m 637 395 q 594 537 637 484 q 463 591 550 591 q 290 509 353 591 q 227 301 227 427 q 270 160 227 213 q 404 108 314 108 q 575 189 513 108 q 637 395 637 271 m 389 -16 q 150 70 233 -16 q 67 292 67 155 q 71 348 67 316 q 134 534 83 452 q 275 665 185 616 q 479 713 364 713 q 717 630 636 713 q 798 408 798 547 q 793 347 798 378 q 753 206 784 271 q 671 91 722 141 q 548 13 621 41 q 389 -16 475 -16 m 427 793 l 627 1024 l 821 1024 l 562 793 l 427 793 z "},"ô":{"ha":864,"x_min":67,"x_max":798,"o":"m 637 395 q 594 537 637 484 q 463 591 550 591 q 290 509 353 591 q 227 301 227 427 q 270 160 227 213 q 404 108 314 108 q 575 189 513 108 q 637 395 637 271 m 389 -16 q 150 70 233 -16 q 67 292 67 155 q 71 348 67 316 q 134 534 83 452 q 275 665 185 616 q 479 713 364 713 q 717 630 636 713 q 798 408 798 547 q 793 347 798 378 q 753 206 784 271 q 671 91 722 141 q 548 13 621 41 q 389 -16 475 -16 m 246 786 l 446 1036 l 591 1036 l 732 786 l 594 786 l 504 919 l 379 786 l 246 786 z "},"õ":{"ha":864,"x_min":67,"x_max":798,"o":"m 380 862 q 347 845 362 862 q 324 794 332 829 l 227 794 q 281 927 237 876 q 388 978 326 978 q 460 960 422 978 q 528 925 497 943 q 580 907 559 907 q 612 923 600 907 q 630 978 624 939 l 730 978 q 675 839 719 887 q 566 791 632 791 q 467 826 532 791 q 380 862 401 862 m 637 395 q 594 537 637 484 q 463 591 550 591 q 290 509 353 591 q 227 301 227 427 q 270 160 227 213 q 404 108 314 108 q 575 189 513 108 q 637 395 637 271 m 389 -16 q 150 70 233 -16 q 67 292 67 155 q 71 348 67 316 q 134 534 83 452 q 275 665 185 616 q 479 713 364 713 q 717 630 636 713 q 798 408 798 547 q 793 347 798 378 q 753 206 784 271 q 671 91 722 141 q 548 13 621 41 q 389 -16 475 -16 z "},"ö":{"ha":864,"x_min":67,"x_max":798,"o":"m 637 395 q 594 537 637 484 q 463 591 550 591 q 290 509 353 591 q 227 301 227 427 q 270 160 227 213 q 404 108 314 108 q 575 189 513 108 q 637 395 637 271 m 389 -16 q 150 70 233 -16 q 67 292 67 155 q 71 348 67 316 q 134 534 83 452 q 275 665 185 616 q 479 713 364 713 q 717 630 636 713 q 798 408 798 547 q 793 347 798 378 q 753 206 784 271 q 671 91 722 141 q 548 13 621 41 q 389 -16 475 -16 m 263 790 l 281 936 l 434 936 l 416 790 l 263 790 m 559 790 l 577 936 l 729 936 l 711 790 l 559 790 z "},"÷":{"ha":961,"x_min":105,"x_max":825,"o":"m 344 -5 l 366 168 l 524 168 l 503 -5 l 344 -5 m 105 311 l 120 438 l 825 438 l 810 311 l 105 311 m 414 576 l 435 748 l 593 748 l 572 576 l 414 576 z "},"ø":{"ha":863,"x_min":67,"x_max":798,"o":"m 227 301 q 281 149 227 199 l 532 580 q 463 591 503 591 q 290 509 353 591 q 227 301 227 427 m 637 395 q 591 541 637 490 l 342 116 q 404 108 369 108 q 575 189 513 108 q 637 395 637 271 m 389 -16 q 273 -1 327 -16 l 191 -142 l 128 -113 l 209 26 q 103 134 139 64 q 67 292 67 203 q 71 348 67 316 q 134 534 83 452 q 275 665 185 616 q 479 713 364 713 q 601 697 548 713 l 673 821 l 736 791 l 665 669 q 798 408 798 592 q 793 347 798 378 q 753 206 784 271 q 671 91 722 141 q 548 13 621 41 q 389 -16 475 -16 z "},"ù":{"ha":818,"x_min":83,"x_max":755,"o":"m 321 -16 q 143 45 204 -16 q 83 211 83 106 q 86 259 83 232 l 140 696 l 290 696 l 237 260 q 235 231 235 245 q 269 138 235 169 q 366 108 302 108 q 552 280 530 108 l 603 696 l 755 696 l 692 182 q 676 0 686 133 l 520 0 l 530 106 q 504 68 520 87 q 462 29 487 49 q 400 -3 437 9 q 321 -16 363 -16 m 395 793 l 189 1025 l 385 1025 l 531 793 l 395 793 z "},"ú":{"ha":818,"x_min":83,"x_max":793,"o":"m 321 -16 q 143 45 204 -16 q 83 211 83 106 q 86 259 83 232 l 140 696 l 290 696 l 237 260 q 235 231 235 245 q 269 138 235 169 q 366 108 302 108 q 552 280 530 108 l 603 696 l 755 696 l 692 182 q 676 0 686 133 l 520 0 l 530 106 q 504 68 520 87 q 462 29 487 49 q 400 -3 437 9 q 321 -16 363 -16 m 399 793 l 599 1024 l 793 1024 l 534 793 l 399 793 z "},"û":{"ha":818,"x_min":83,"x_max":755,"o":"m 321 -16 q 143 45 204 -16 q 83 211 83 106 q 86 259 83 232 l 140 696 l 290 696 l 237 260 q 235 231 235 245 q 269 138 235 169 q 366 108 302 108 q 552 280 530 108 l 603 696 l 755 696 l 692 182 q 676 0 686 133 l 520 0 l 530 106 q 504 68 520 87 q 462 29 487 49 q 400 -3 437 9 q 321 -16 363 -16 m 218 786 l 418 1036 l 564 1036 l 705 786 l 566 786 l 476 919 l 351 786 l 218 786 z "},"ü":{"ha":818,"x_min":83,"x_max":755,"o":"m 321 -16 q 143 45 204 -16 q 83 211 83 106 q 86 259 83 232 l 140 696 l 290 696 l 237 260 q 235 231 235 245 q 269 138 235 169 q 366 108 302 108 q 552 280 530 108 l 603 696 l 755 696 l 692 182 q 676 0 686 133 l 520 0 l 530 106 q 504 68 520 87 q 462 29 487 49 q 400 -3 437 9 q 321 -16 363 -16 m 235 790 l 254 936 l 406 936 l 388 790 l 235 790 m 531 790 l 549 936 l 701 936 l 683 790 l 531 790 z "},"ý":{"ha":745,"x_min":48,"x_max":793,"o":"m 99 -299 l 48 -196 q 199 -119 145 -161 q 277 -21 253 -77 l 291 13 l 84 696 l 241 696 l 385 175 l 633 696 l 787 696 l 414 -38 q 280 -206 362 -140 q 99 -299 197 -271 m 399 793 l 599 1024 l 793 1024 l 534 793 l 399 793 z "},"þ":{"ha":835,"x_min":21,"x_max":771,"o":"m 21 -275 l 176 991 l 323 991 l 277 621 q 371 688 311 663 q 489 713 432 713 q 614 690 559 713 q 703 626 669 667 q 754 532 736 585 q 771 416 771 479 q 767 356 771 387 q 730 216 758 282 q 656 98 701 151 q 544 15 611 45 q 399 -16 477 -16 q 289 6 340 -16 q 208 65 237 27 l 166 -275 l 21 -275 m 611 407 q 574 539 611 489 q 458 589 538 589 q 368 569 408 589 q 303 512 328 548 q 262 431 277 475 q 240 335 247 387 q 237 290 237 314 q 277 156 237 205 q 393 106 317 106 q 512 150 462 106 q 587 260 563 193 q 611 407 611 327 z "},"ÿ":{"ha":745,"x_min":48,"x_max":787,"o":"m 99 -299 l 48 -196 q 199 -119 145 -161 q 277 -21 253 -77 l 291 13 l 84 696 l 241 696 l 385 175 l 633 696 l 787 696 l 414 -38 q 280 -206 362 -140 q 99 -299 197 -271 m 235 790 l 254 936 l 406 936 l 388 790 l 235 790 m 531 790 l 549 936 l 701 936 l 683 790 l 531 790 z "},"Ā":{"ha":972,"x_min":-48,"x_max":901,"o":"m 355 1107 l 367 1205 l 780 1205 l 768 1107 l 355 1107 m -48 0 l 465 987 l 625 987 l 901 0 l 726 0 l 657 253 l 250 253 l 122 0 l -48 0 m 317 391 l 619 391 q 522 813 574 589 q 317 391 431 626 z "},"ā":{"ha":870,"x_min":66,"x_max":812,"o":"m 283 815 l 294 913 l 707 913 l 696 815 l 283 815 m 363 -16 q 231 9 289 -16 q 138 77 174 34 q 85 173 103 119 q 66 290 66 227 q 70 343 66 314 q 110 483 79 416 q 189 601 140 549 q 307 683 237 652 q 455 713 376 713 q 575 684 524 713 q 652 605 625 654 l 663 696 l 812 696 l 726 0 l 575 0 l 588 104 q 492 17 550 50 q 363 -16 433 -16 m 629 400 q 586 539 629 488 q 456 591 543 591 q 282 510 345 591 q 220 302 220 429 q 264 160 220 213 q 399 108 309 108 q 569 190 509 108 q 629 400 629 271 z "},"Ă":{"ha":972,"x_min":-48,"x_max":901,"o":"m 557 1088 q 374 1259 374 1088 q 374 1279 374 1272 l 481 1279 l 481 1272 q 505 1212 481 1228 q 571 1195 529 1195 q 642 1213 614 1195 q 680 1279 669 1231 l 786 1279 q 710 1134 767 1180 q 557 1088 652 1088 m -48 0 l 465 987 l 625 987 l 901 0 l 726 0 l 657 253 l 250 253 l 122 0 l -48 0 m 317 391 l 619 391 q 522 813 574 589 q 317 391 431 626 z "},"ă":{"ha":870,"x_min":66,"x_max":812,"o":"m 485 796 q 301 968 301 796 q 302 987 301 981 l 409 987 l 409 980 q 433 920 409 937 q 498 903 456 903 q 569 921 542 903 q 608 987 597 939 l 713 987 q 637 842 694 888 q 485 796 580 796 m 363 -16 q 231 9 289 -16 q 138 77 174 34 q 85 173 103 119 q 66 290 66 227 q 70 343 66 314 q 110 483 79 416 q 189 601 140 549 q 307 683 237 652 q 455 713 376 713 q 575 684 524 713 q 652 605 625 654 l 663 696 l 812 696 l 726 0 l 575 0 l 588 104 q 492 17 550 50 q 363 -16 433 -16 m 629 400 q 586 539 629 488 q 456 591 543 591 q 282 510 345 591 q 220 302 220 429 q 264 160 220 213 q 399 108 309 108 q 569 190 509 108 q 629 400 629 271 z "},"Ą":{"ha":972,"x_min":-48,"x_max":909,"o":"m 787 13 l 869 12 q 780 -61 817 -18 q 743 -138 743 -103 q 799 -174 743 -174 q 909 -153 830 -174 l 899 -241 q 745 -266 814 -266 q 643 -244 682 -266 q 605 -178 605 -222 q 618 -122 605 -149 q 650 -75 632 -94 q 697 -37 669 -56 q 744 -8 725 -18 q 787 13 762 1 m -48 0 l 465 987 l 625 987 l 901 0 l 726 0 l 657 253 l 250 253 l 122 0 l -48 0 m 317 391 l 619 391 q 522 813 574 589 q 317 391 431 626 z "},"ą":{"ha":870,"x_min":66,"x_max":812,"o":"m 625 13 l 707 12 q 617 -61 654 -18 q 581 -138 581 -103 q 636 -174 581 -174 q 747 -153 667 -174 l 736 -241 q 582 -266 652 -266 q 480 -244 519 -266 q 442 -178 442 -222 q 456 -122 442 -149 q 488 -75 469 -94 q 534 -37 506 -56 q 581 -8 562 -18 q 625 13 600 1 m 363 -16 q 231 9 289 -16 q 138 77 174 34 q 85 173 103 119 q 66 290 66 227 q 70 343 66 314 q 110 483 79 416 q 189 601 140 549 q 307 683 237 652 q 455 713 376 713 q 575 684 524 713 q 652 605 625 654 l 663 696 l 812 696 l 726 0 l 575 0 l 588 104 q 492 17 550 50 q 363 -16 433 -16 m 629 400 q 586 539 629 488 q 456 591 543 591 q 282 510 345 591 q 220 302 220 429 q 264 160 220 213 q 399 108 309 108 q 569 190 509 108 q 629 400 629 271 z "},"Ć":{"ha":960,"x_min":66,"x_max":962,"o":"m 567 1085 l 767 1316 l 962 1316 l 703 1085 l 567 1085 m 232 429 q 313 202 232 286 q 526 119 394 119 q 814 218 673 119 l 851 94 q 501 -15 695 -15 q 335 13 412 -15 q 197 93 257 41 q 101 227 136 144 q 66 412 66 309 q 71 490 66 452 q 137 708 85 609 q 263 871 189 806 q 429 970 338 935 q 615 1006 519 1006 q 925 901 807 1006 l 850 793 q 612 872 749 872 q 466 839 536 872 q 345 747 397 805 q 262 607 293 690 q 232 429 232 524 z "},"ć":{"ha":728,"x_min":67,"x_max":810,"o":"m 225 304 q 275 161 225 214 q 416 108 326 108 q 604 172 509 108 l 637 61 q 385 -16 520 -16 q 212 26 286 -16 q 103 136 139 67 q 67 294 67 205 q 71 346 67 317 q 201 610 90 507 q 475 713 312 713 q 706 624 631 713 l 640 525 q 474 590 574 590 q 296 513 366 590 q 225 304 225 435 m 415 793 l 615 1024 l 810 1024 l 551 793 l 415 793 z "},"Ĉ":{"ha":960,"x_min":66,"x_max":925,"o":"m 386 1078 l 585 1327 l 731 1327 l 872 1078 l 734 1078 l 644 1211 l 519 1078 l 386 1078 m 232 429 q 313 202 232 286 q 526 119 394 119 q 814 218 673 119 l 851 94 q 501 -15 695 -15 q 335 13 412 -15 q 197 93 257 41 q 101 227 136 144 q 66 412 66 309 q 71 490 66 452 q 137 708 85 609 q 263 871 189 806 q 429 970 338 935 q 615 1006 519 1006 q 925 901 807 1006 l 850 793 q 612 872 749 872 q 466 839 536 872 q 345 747 397 805 q 262 607 293 690 q 232 429 232 524 z "},"ĉ":{"ha":728,"x_min":67,"x_max":721,"o":"m 235 786 l 434 1036 l 580 1036 l 721 786 l 583 786 l 492 919 l 368 786 l 235 786 m 225 304 q 275 161 225 214 q 416 108 326 108 q 604 172 509 108 l 637 61 q 385 -16 520 -16 q 212 26 286 -16 q 103 136 139 67 q 67 294 67 205 q 71 346 67 317 q 201 610 90 507 q 475 713 312 713 q 706 624 631 713 l 640 525 q 474 590 574 590 q 296 513 366 590 q 225 304 225 435 z "},"Ċ":{"ha":960,"x_min":66,"x_max":925,"o":"m 560 1119 l 577 1261 l 728 1261 l 711 1119 l 560 1119 m 232 429 q 313 202 232 286 q 526 119 394 119 q 814 218 673 119 l 851 94 q 501 -15 695 -15 q 335 13 412 -15 q 197 93 257 41 q 101 227 136 144 q 66 412 66 309 q 71 490 66 452 q 137 708 85 609 q 263 871 189 806 q 429 970 338 935 q 615 1006 519 1006 q 925 901 807 1006 l 850 793 q 612 872 749 872 q 466 839 536 872 q 345 747 397 805 q 262 607 293 690 q 232 429 232 524 z "},"ċ":{"ha":728,"x_min":67,"x_max":706,"o":"m 408 827 l 425 970 l 576 970 l 559 827 l 408 827 m 225 304 q 275 161 225 214 q 416 108 326 108 q 604 172 509 108 l 637 61 q 385 -16 520 -16 q 212 26 286 -16 q 103 136 139 67 q 67 294 67 205 q 71 346 67 317 q 201 610 90 507 q 475 713 312 713 q 706 624 631 713 l 640 525 q 474 590 574 590 q 296 513 366 590 q 225 304 225 435 z "},"Č":{"ha":960,"x_min":66,"x_max":925,"o":"m 561 1078 l 411 1328 l 556 1328 l 635 1196 l 747 1328 l 898 1328 l 687 1078 l 561 1078 m 232 429 q 313 202 232 286 q 526 119 394 119 q 814 218 673 119 l 851 94 q 501 -15 695 -15 q 335 13 412 -15 q 197 93 257 41 q 101 227 136 144 q 66 412 66 309 q 71 490 66 452 q 137 708 85 609 q 263 871 189 806 q 429 970 338 935 q 615 1006 519 1006 q 925 901 807 1006 l 850 793 q 612 872 749 872 q 466 839 536 872 q 345 747 397 805 q 262 607 293 690 q 232 429 232 524 z "},"č":{"ha":728,"x_min":67,"x_max":746,"o":"m 409 786 l 259 1036 l 404 1036 l 483 904 l 595 1036 l 746 1036 l 535 786 l 409 786 m 225 304 q 275 161 225 214 q 416 108 326 108 q 604 172 509 108 l 637 61 q 385 -16 520 -16 q 212 26 286 -16 q 103 136 139 67 q 67 294 67 205 q 71 346 67 317 q 201 610 90 507 q 475 713 312 713 q 706 624 631 713 l 640 525 q 474 590 574 590 q 296 513 366 590 q 225 304 225 435 z "},"Ď":{"ha":1055,"x_min":71,"x_max":989,"o":"m 485 1078 l 335 1328 l 480 1328 l 559 1196 l 671 1328 l 822 1328 l 611 1078 l 485 1078 m 243 133 l 393 133 q 688 228 579 133 q 818 498 796 322 q 823 566 823 539 q 730 783 823 711 q 446 854 637 854 l 332 854 l 243 133 m 71 0 l 192 987 l 447 987 q 851 886 714 987 q 989 581 989 784 q 983 497 989 544 q 795 129 954 257 q 368 0 637 0 l 71 0 z "},"ď":{"ha":859,"x_min":49,"x_max":1128,"o":"m 328 -16 q 126 66 203 -16 q 49 285 49 147 q 53 345 49 313 q 113 531 66 448 q 241 663 159 613 q 427 713 323 713 q 551 682 502 713 q 616 612 601 650 l 664 996 l 815 996 l 715 183 q 699 0 713 166 l 544 0 l 554 100 q 472 20 531 56 q 328 -16 413 -16 m 591 399 q 551 538 591 486 q 430 591 510 591 q 269 508 329 591 q 209 300 209 425 q 249 160 209 213 q 370 108 289 108 q 532 191 473 108 q 591 399 591 274 m 840 653 l 957 987 l 1128 987 l 968 653 l 840 653 z "},"Đ":{"ha":1055,"x_min":17,"x_max":989,"o":"m 17 460 l 31 576 l 439 576 l 425 460 l 17 460 m 243 133 l 393 133 q 688 228 579 133 q 818 498 796 322 q 823 566 823 539 q 730 783 823 711 q 446 854 637 854 l 332 854 l 243 133 m 71 0 l 192 987 l 447 987 q 851 886 714 987 q 989 581 989 784 q 983 497 989 544 q 795 129 954 257 q 368 0 637 0 l 71 0 z "},"đ":{"ha":859,"x_min":49,"x_max":912,"o":"m 488 793 l 499 891 l 912 891 l 901 793 l 488 793 m 328 -16 q 126 66 203 -16 q 49 285 49 147 q 53 345 49 313 q 113 531 66 448 q 241 663 159 613 q 427 713 323 713 q 551 682 502 713 q 616 612 601 650 l 664 996 l 815 996 l 715 183 q 699 0 713 166 l 544 0 l 554 100 q 472 20 531 56 q 328 -16 413 -16 m 591 399 q 551 538 591 486 q 430 591 510 591 q 269 508 329 591 q 209 300 209 425 q 249 160 209 213 q 370 108 289 108 q 532 191 473 108 q 591 399 591 274 z "},"Ē":{"ha":828,"x_min":71,"x_max":803,"o":"m 315 1107 l 326 1205 l 739 1205 l 728 1107 l 315 1107 m 71 0 l 192 987 l 803 987 l 787 854 l 332 854 l 298 576 l 727 576 l 711 442 l 282 442 l 244 133 l 718 133 l 702 0 l 71 0 z "},"ē":{"ha":802,"x_min":67,"x_max":733,"o":"m 278 815 l 290 913 l 703 913 l 691 815 l 278 815 m 722 323 l 227 323 q 225 293 225 302 q 278 154 225 201 q 422 108 331 108 q 650 184 541 108 l 680 73 q 396 -16 551 -16 q 154 67 241 -16 q 67 290 67 151 q 71 347 67 323 q 112 489 79 422 q 195 606 145 556 q 316 685 245 656 q 465 713 386 713 q 667 635 601 713 q 733 426 733 557 q 722 323 733 360 m 241 426 l 602 426 l 602 430 q 564 552 602 510 q 458 595 526 595 q 324 550 381 595 q 241 426 267 505 z "},"Ĕ":{"ha":828,"x_min":71,"x_max":803,"o":"m 517 1088 q 333 1259 333 1088 q 334 1279 333 1272 l 441 1279 l 441 1272 q 465 1212 441 1228 q 530 1195 488 1195 q 601 1213 574 1195 q 640 1279 629 1231 l 745 1279 q 669 1134 726 1180 q 517 1088 612 1088 m 71 0 l 192 987 l 803 987 l 787 854 l 332 854 l 298 576 l 727 576 l 711 442 l 282 442 l 244 133 l 718 133 l 702 0 l 71 0 z "},"ĕ":{"ha":802,"x_min":67,"x_max":733,"o":"m 722 323 l 227 323 q 225 293 225 302 q 278 154 225 201 q 422 108 331 108 q 650 184 541 108 l 680 73 q 396 -16 551 -16 q 154 67 241 -16 q 67 290 67 151 q 71 347 67 323 q 112 489 79 422 q 195 606 145 556 q 316 685 245 656 q 465 713 386 713 q 667 635 601 713 q 733 426 733 557 q 722 323 733 360 m 241 426 l 602 426 l 602 430 q 564 552 602 510 q 458 595 526 595 q 324 550 381 595 q 241 426 267 505 m 480 796 q 296 968 296 796 q 297 987 296 981 l 404 987 l 404 980 q 428 920 404 937 q 494 903 452 903 q 565 921 537 903 q 603 987 592 939 l 709 987 q 632 842 690 888 q 480 796 575 796 z "},"Ė":{"ha":828,"x_min":71,"x_max":803,"o":"m 448 1119 l 465 1261 l 616 1261 l 599 1119 l 448 1119 m 71 0 l 192 987 l 803 987 l 787 854 l 332 854 l 298 576 l 727 576 l 711 442 l 282 442 l 244 133 l 718 133 l 702 0 l 71 0 z "},"ė":{"ha":802,"x_min":67,"x_max":733,"o":"m 722 323 l 227 323 q 225 293 225 302 q 278 154 225 201 q 422 108 331 108 q 650 184 541 108 l 680 73 q 396 -16 551 -16 q 154 67 241 -16 q 67 290 67 151 q 71 347 67 323 q 112 489 79 422 q 195 606 145 556 q 316 685 245 656 q 465 713 386 713 q 667 635 601 713 q 733 426 733 557 q 722 323 733 360 m 241 426 l 602 426 l 602 430 q 564 552 602 510 q 458 595 526 595 q 324 550 381 595 q 241 426 267 505 m 412 827 l 429 970 l 580 970 l 563 827 l 412 827 z "},"Ę":{"ha":828,"x_min":71,"x_max":803,"o":"m 487 13 l 569 12 q 479 -61 516 -18 q 443 -138 443 -103 q 498 -174 443 -174 q 609 -153 530 -174 l 598 -241 q 444 -266 514 -266 q 343 -244 381 -266 q 304 -178 304 -222 q 318 -122 304 -149 q 350 -75 332 -94 q 396 -37 368 -56 q 443 -8 425 -18 q 487 13 462 1 m 71 0 l 192 987 l 803 987 l 787 854 l 332 854 l 298 576 l 727 576 l 711 442 l 282 442 l 244 133 l 718 133 l 702 0 l 71 0 z "},"ę":{"ha":802,"x_min":67,"x_max":733,"o":"m 463 13 l 545 12 q 456 -61 492 -18 q 419 -138 419 -103 q 475 -174 419 -174 q 585 -153 506 -174 l 574 -241 q 420 -266 490 -266 q 319 -244 357 -266 q 281 -178 281 -222 q 294 -122 281 -149 q 326 -75 308 -94 q 373 -37 345 -56 q 419 -8 401 -18 q 463 13 438 1 m 722 323 l 227 323 q 225 293 225 302 q 278 154 225 201 q 422 108 331 108 q 650 184 541 108 l 680 73 q 396 -16 551 -16 q 154 67 241 -16 q 67 290 67 151 q 71 347 67 323 q 112 489 79 422 q 195 606 145 556 q 316 685 245 656 q 465 713 386 713 q 667 635 601 713 q 733 426 733 557 q 722 323 733 360 m 241 426 l 602 426 l 602 430 q 564 552 602 510 q 458 595 526 595 q 324 550 381 595 q 241 426 267 505 z "},"Ě":{"ha":828,"x_min":71,"x_max":803,"o":"m 449 1078 l 299 1328 l 444 1328 l 523 1196 l 635 1328 l 786 1328 l 575 1078 l 449 1078 m 71 0 l 192 987 l 803 987 l 787 854 l 332 854 l 298 576 l 727 576 l 711 442 l 282 442 l 244 133 l 718 133 l 702 0 l 71 0 z "},"ě":{"ha":802,"x_min":67,"x_max":750,"o":"m 722 323 l 227 323 q 225 293 225 302 q 278 154 225 201 q 422 108 331 108 q 650 184 541 108 l 680 73 q 396 -16 551 -16 q 154 67 241 -16 q 67 290 67 151 q 71 347 67 323 q 112 489 79 422 q 195 606 145 556 q 316 685 245 656 q 465 713 386 713 q 667 635 601 713 q 733 426 733 557 q 722 323 733 360 m 241 426 l 602 426 l 602 430 q 564 552 602 510 q 458 595 526 595 q 324 550 381 595 q 241 426 267 505 m 413 786 l 263 1036 l 408 1036 l 487 904 l 600 1036 l 750 1036 l 539 786 l 413 786 z "},"Ĝ":{"ha":1040,"x_min":65,"x_max":969,"o":"m 393 1078 l 592 1327 l 738 1327 l 879 1078 l 741 1078 l 650 1211 l 526 1078 l 393 1078 m 513 -16 q 180 93 294 -16 q 65 393 65 202 q 71 477 65 431 q 132 684 84 587 q 255 852 180 781 q 433 964 330 923 q 653 1006 536 1006 q 843 978 770 1006 q 969 907 916 951 l 893 798 q 639 872 795 872 q 483 841 555 872 q 359 756 410 810 q 276 633 309 703 q 233 485 243 564 q 229 417 229 450 q 306 198 229 278 q 536 118 383 118 q 726 146 637 118 l 757 397 l 519 397 l 536 531 l 931 531 l 873 58 q 513 -16 701 -16 z "},"ĝ":{"ha":850,"x_min":73,"x_max":817,"o":"m 330 -281 q 73 -225 191 -281 l 115 -94 q 336 -157 217 -157 q 502 -108 439 -157 q 576 40 564 -58 l 585 106 q 499 37 552 65 q 374 8 446 8 q 164 86 245 8 q 83 295 83 163 q 87 349 83 317 q 125 491 96 426 q 200 606 154 556 q 312 685 245 656 q 458 713 378 713 q 577 685 530 713 q 647 610 624 656 l 658 696 l 817 696 q 780 480 793 590 l 733 100 q 710 -12 726 40 q 663 -115 694 -64 q 588 -201 632 -165 q 478 -259 545 -237 q 330 -281 412 -281 m 242 301 q 283 170 242 216 q 404 124 323 124 q 494 143 454 124 q 559 195 534 161 q 600 269 585 228 q 621 358 615 309 q 625 408 625 387 q 584 541 625 492 q 467 591 544 591 q 347 551 399 591 q 269 447 296 512 q 242 301 242 381 m 219 786 l 418 1036 l 564 1036 l 705 786 l 567 786 l 477 919 l 352 786 l 219 786 z "},"Ğ":{"ha":1040,"x_min":65,"x_max":969,"o":"m 635 1088 q 451 1259 451 1088 q 452 1279 451 1272 l 559 1279 l 559 1272 q 583 1212 559 1228 q 648 1195 606 1195 q 719 1213 692 1195 q 758 1279 747 1231 l 863 1279 q 787 1134 844 1180 q 635 1088 730 1088 m 513 -16 q 180 93 294 -16 q 65 393 65 202 q 71 477 65 431 q 132 684 84 587 q 255 852 180 781 q 433 964 330 923 q 653 1006 536 1006 q 843 978 770 1006 q 969 907 916 951 l 893 798 q 639 872 795 872 q 483 841 555 872 q 359 756 410 810 q 276 633 309 703 q 233 485 243 564 q 229 417 229 450 q 306 198 229 278 q 536 118 383 118 q 726 146 637 118 l 757 397 l 519 397 l 536 531 l 931 531 l 873 58 q 513 -16 701 -16 z "},"ğ":{"ha":850,"x_min":73,"x_max":817,"o":"m 330 -281 q 73 -225 191 -281 l 115 -94 q 336 -157 217 -157 q 502 -108 439 -157 q 576 40 564 -58 l 585 106 q 499 37 552 65 q 374 8 446 8 q 164 86 245 8 q 83 295 83 163 q 87 349 83 317 q 125 491 96 426 q 200 606 154 556 q 312 685 245 656 q 458 713 378 713 q 577 685 530 713 q 647 610 624 656 l 658 696 l 817 696 q 780 480 793 590 l 733 100 q 710 -12 726 40 q 663 -115 694 -64 q 588 -201 632 -165 q 478 -259 545 -237 q 330 -281 412 -281 m 242 301 q 283 170 242 216 q 404 124 323 124 q 494 143 454 124 q 559 195 534 161 q 600 269 585 228 q 621 358 615 309 q 625 408 625 387 q 584 541 625 492 q 467 591 544 591 q 347 551 399 591 q 269 447 296 512 q 242 301 242 381 m 461 796 q 277 968 277 796 q 278 987 277 981 l 385 987 l 385 980 q 409 920 385 937 q 475 903 433 903 q 546 921 518 903 q 584 987 573 939 l 690 987 q 613 842 671 888 q 461 796 556 796 z "},"Ġ":{"ha":1040,"x_min":65,"x_max":969,"o":"m 567 1119 l 584 1261 l 734 1261 l 718 1119 l 567 1119 m 513 -16 q 180 93 294 -16 q 65 393 65 202 q 71 477 65 431 q 132 684 84 587 q 255 852 180 781 q 433 964 330 923 q 653 1006 536 1006 q 843 978 770 1006 q 969 907 916 951 l 893 798 q 639 872 795 872 q 483 841 555 872 q 359 756 410 810 q 276 633 309 703 q 233 485 243 564 q 229 417 229 450 q 306 198 229 278 q 536 118 383 118 q 726 146 637 118 l 757 397 l 519 397 l 536 531 l 931 531 l 873 58 q 513 -16 701 -16 z "},"ġ":{"ha":850,"x_min":73,"x_max":817,"o":"m 330 -281 q 73 -225 191 -281 l 115 -94 q 336 -157 217 -157 q 502 -108 439 -157 q 576 40 564 -58 l 585 106 q 499 37 552 65 q 374 8 446 8 q 164 86 245 8 q 83 295 83 163 q 87 349 83 317 q 125 491 96 426 q 200 606 154 556 q 312 685 245 656 q 458 713 378 713 q 577 685 530 713 q 647 610 624 656 l 658 696 l 817 696 q 780 480 793 590 l 733 100 q 710 -12 726 40 q 663 -115 694 -64 q 588 -201 632 -165 q 478 -259 545 -237 q 330 -281 412 -281 m 242 301 q 283 170 242 216 q 404 124 323 124 q 494 143 454 124 q 559 195 534 161 q 600 269 585 228 q 621 358 615 309 q 625 408 625 387 q 584 541 625 492 q 467 591 544 591 q 347 551 399 591 q 269 447 296 512 q 242 301 242 381 m 393 827 l 410 970 l 560 970 l 543 827 l 393 827 z "},"Ģ":{"ha":1040,"x_min":65,"x_max":969,"o":"m 292 -428 l 408 -94 l 579 -94 l 419 -428 l 292 -428 m 513 -16 q 180 93 294 -16 q 65 393 65 202 q 71 477 65 431 q 132 684 84 587 q 255 852 180 781 q 433 964 330 923 q 653 1006 536 1006 q 843 978 770 1006 q 969 907 916 951 l 893 798 q 639 872 795 872 q 483 841 555 872 q 359 756 410 810 q 276 633 309 703 q 233 485 243 564 q 229 417 229 450 q 306 198 229 278 q 536 118 383 118 q 726 146 637 118 l 757 397 l 519 397 l 536 531 l 931 531 l 873 58 q 513 -16 701 -16 z "},"ģ":{"ha":850,"x_min":73,"x_max":817,"o":"m 680 1156 l 563 816 l 392 816 l 552 1156 l 680 1156 m 330 -281 q 73 -225 191 -281 l 115 -94 q 336 -157 217 -157 q 502 -108 439 -157 q 576 40 564 -58 l 585 106 q 499 37 552 65 q 374 8 446 8 q 164 86 245 8 q 83 295 83 163 q 87 349 83 317 q 125 491 96 426 q 200 606 154 556 q 312 685 245 656 q 458 713 378 713 q 577 685 530 713 q 647 610 624 656 l 658 696 l 817 696 q 780 480 793 590 l 733 100 q 710 -12 726 40 q 663 -115 694 -64 q 588 -201 632 -165 q 478 -259 545 -237 q 330 -281 412 -281 m 242 301 q 283 170 242 216 q 404 124 323 124 q 494 143 454 124 q 559 195 534 161 q 600 269 585 228 q 621 358 615 309 q 625 408 625 387 q 584 541 625 492 q 467 591 544 591 q 347 551 399 591 q 269 447 296 512 q 242 301 242 381 z "},"Ĥ":{"ha":1061,"x_min":71,"x_max":990,"o":"m 355 1078 l 554 1327 l 700 1327 l 841 1078 l 703 1078 l 612 1211 l 488 1078 l 355 1078 m 71 0 l 192 987 l 348 987 l 297 573 l 783 573 l 834 987 l 990 987 l 869 0 l 715 0 l 769 440 l 283 440 l 229 0 l 71 0 z "},"ĥ":{"ha":832,"x_min":42,"x_max":779,"o":"m 42 0 l 164 996 l 316 996 l 267 599 q 369 682 302 650 q 500 713 437 713 q 593 699 553 713 q 658 662 633 685 q 699 606 683 639 q 722 539 715 573 q 728 466 728 505 q 724 399 728 432 l 675 0 l 523 0 l 572 402 q 576 460 576 433 q 548 559 576 528 q 462 591 519 591 q 320 539 387 591 q 245 420 254 488 l 194 0 l 42 0 m 293 786 l 492 1036 l 638 1036 l 779 786 l 641 786 l 551 919 l 426 786 l 293 786 z "},"Ħ":{"ha":1061,"x_min":71,"x_max":1034,"o":"m 94 753 l 104 843 l 1034 843 l 1023 753 l 94 753 m 71 0 l 192 987 l 348 987 l 297 573 l 783 573 l 834 987 l 990 987 l 869 0 l 715 0 l 769 440 l 283 440 l 229 0 l 71 0 z "},"ħ":{"ha":832,"x_min":19,"x_max":728,"o":"m 19 793 l 31 891 l 444 891 l 432 793 l 19 793 m 42 0 l 164 996 l 316 996 l 267 599 q 369 682 302 650 q 500 713 437 713 q 593 699 553 713 q 658 662 633 685 q 699 606 683 639 q 722 539 715 573 q 728 466 728 505 q 724 399 728 432 l 675 0 l 523 0 l 572 402 q 576 460 576 433 q 548 559 576 528 q 462 591 519 591 q 320 539 387 591 q 245 420 254 488 l 194 0 l 42 0 z "},"Ĩ":{"ha":404,"x_min":20,"x_max":523,"o":"m 174 1154 q 140 1137 155 1154 q 117 1086 125 1120 l 20 1086 q 74 1219 30 1168 q 181 1270 119 1270 q 253 1252 216 1270 q 321 1217 290 1234 q 373 1199 353 1199 q 405 1215 393 1199 q 423 1270 417 1230 l 523 1270 q 469 1131 512 1179 q 359 1082 425 1082 q 260 1118 326 1082 q 174 1154 194 1154 m 68 0 l 189 987 l 345 987 l 224 0 l 68 0 z "},"ĩ":{"ha":353,"x_min":-35,"x_max":468,"o":"m 119 862 q 85 845 100 862 q 62 794 70 829 l -35 794 q 19 927 -25 876 q 126 978 64 978 q 198 960 161 978 q 267 925 235 943 q 318 907 298 907 q 350 923 338 907 q 368 978 362 939 l 468 978 q 414 839 457 887 q 304 791 370 791 q 205 826 271 791 q 119 862 139 862 m 54 0 l 140 696 l 292 696 l 207 0 l 54 0 z "},"Ī":{"ha":404,"x_min":68,"x_max":504,"o":"m 79 1107 l 91 1205 l 504 1205 l 492 1107 l 79 1107 m 68 0 l 189 987 l 345 987 l 224 0 l 68 0 z "},"ī":{"ha":353,"x_min":24,"x_max":449,"o":"m 24 815 l 36 913 l 449 913 l 437 815 l 24 815 m 54 0 l 140 696 l 292 696 l 207 0 l 54 0 z "},"Ĭ":{"ha":404,"x_min":68,"x_max":510,"o":"m 281 1088 q 98 1259 98 1088 q 98 1279 98 1272 l 205 1279 l 205 1272 q 229 1212 205 1228 q 295 1195 253 1195 q 366 1213 338 1195 q 404 1279 393 1231 l 510 1279 q 434 1134 491 1180 q 281 1088 376 1088 m 68 0 l 189 987 l 345 987 l 224 0 l 68 0 z "},"ĭ":{"ha":353,"x_min":43,"x_max":455,"o":"m 54 0 l 140 696 l 292 696 l 207 0 l 54 0 m 227 796 q 43 968 43 796 q 43 987 43 981 l 151 987 l 151 980 q 174 920 151 937 q 240 903 198 903 q 311 921 283 903 q 349 987 338 939 l 455 987 q 379 842 436 888 q 227 796 321 796 z "},"Į":{"ha":404,"x_min":-41,"x_max":345,"o":"m 142 13 l 224 12 q 134 -61 171 -18 q 98 -138 98 -103 q 153 -174 98 -174 q 264 -153 184 -174 l 253 -241 q 99 -266 169 -266 q -2 -244 36 -266 q -41 -178 -41 -222 q -27 -122 -41 -149 q 5 -75 -14 -94 q 51 -37 23 -56 q 98 -8 79 -18 q 142 13 117 1 m 68 0 l 189 987 l 345 987 l 224 0 l 68 0 z "},"į":{"ha":353,"x_min":-55,"x_max":326,"o":"m 127 13 l 210 12 q 120 -61 157 -18 q 83 -138 83 -103 q 139 -174 83 -174 q 250 -153 170 -174 l 239 -241 q 85 -266 155 -266 q -17 -244 22 -266 q -55 -178 -55 -222 q -41 -122 -55 -149 q -9 -75 -28 -94 q 37 -37 9 -56 q 84 -8 65 -18 q 127 13 102 1 m 54 0 l 140 696 l 292 696 l 207 0 l 54 0 m 158 827 l 175 970 l 326 970 l 309 827 l 158 827 z "},"İ":{"ha":404,"x_min":68,"x_max":380,"o":"m 213 1119 l 230 1261 l 380 1261 l 363 1119 l 213 1119 m 68 0 l 189 987 l 345 987 l 224 0 l 68 0 z "},"ı":{"ha":353,"x_min":54,"x_max":292,"o":"m 54 0 l 140 696 l 292 696 l 207 0 l 54 0 z "},"Ĳ":{"ha":1017,"x_min":68,"x_max":962,"o":"m 553 -224 q 359 -185 463 -224 l 399 -65 q 543 -92 484 -92 q 649 -50 614 -92 q 694 77 684 -7 l 806 987 l 962 987 l 850 81 q 755 -146 832 -68 q 553 -224 678 -224 m 68 0 l 189 987 l 345 987 l 224 0 l 68 0 z "},"ĳ":{"ha":726,"x_min":92,"x_max":708,"o":"m 540 845 l 557 987 l 708 987 l 690 845 l 540 845 m 335 -267 q 231 -254 298 -267 l 252 -141 q 330 -152 301 -152 q 415 -113 384 -152 q 458 22 446 -73 l 541 696 l 688 696 l 607 37 q 591 -55 601 -14 q 561 -137 581 -96 q 512 -205 541 -178 q 438 -250 484 -233 q 335 -267 393 -267 m 92 0 l 177 696 l 326 696 l 240 0 l 92 0 m 197 852 l 213 987 l 361 987 l 345 852 l 197 852 z "},"Ĵ":{"ha":612,"x_min":-45,"x_max":739,"o":"m 252 1078 l 452 1327 l 597 1327 l 739 1078 l 600 1078 l 510 1211 l 385 1078 l 252 1078 m 149 -224 q -45 -185 58 -224 l -5 -65 q 139 -92 80 -92 q 245 -50 210 -92 q 290 77 279 -7 l 401 987 l 557 987 l 446 81 q 351 -146 428 -68 q 149 -224 274 -224 z "},"ĵ":{"ha":369,"x_min":-126,"x_max":512,"o":"m -22 -267 q -126 -254 -58 -267 l -104 -141 q -27 -152 -56 -152 q 58 -113 27 -152 q 101 22 90 -73 l 184 696 l 331 696 l 250 37 q 234 -55 244 -14 q 204 -137 224 -96 q 155 -205 184 -178 q 82 -250 127 -233 q -22 -267 37 -267 m 26 786 l 225 1036 l 371 1036 l 512 786 l 374 786 l 283 919 l 159 786 l 26 786 z "},"Ķ":{"ha":901,"x_min":71,"x_max":939,"o":"m 227 -428 l 344 -94 l 515 -94 l 355 -428 l 227 -428 m 71 0 l 192 987 l 348 987 l 294 551 l 745 987 l 939 987 l 442 511 l 852 0 l 651 0 l 283 452 l 228 0 l 71 0 z "},"ķ":{"ha":750,"x_min":45,"x_max":761,"o":"m 130 -428 l 246 -94 l 417 -94 l 257 -428 l 130 -428 m 45 0 l 167 996 l 319 996 l 247 408 l 552 696 l 761 696 l 380 362 l 699 0 l 497 0 l 235 312 l 197 0 l 45 0 z "},"ĸ":{"ha":734,"x_min":62,"x_max":765,"o":"m 62 0 l 148 696 l 299 696 l 264 410 l 562 696 l 765 696 l 375 348 q 531 182 427 294 q 704 0 635 71 l 505 0 l 248 281 l 214 0 l 62 0 z "},"Ĺ":{"ha":777,"x_min":71,"x_max":701,"o":"m 244 1085 l 444 1316 l 639 1316 l 380 1085 l 244 1085 m 71 0 l 192 987 l 348 987 l 243 133 l 701 133 l 684 0 l 71 0 z "},"ĺ":{"ha":372,"x_min":63,"x_max":607,"o":"m 63 0 l 186 996 l 336 996 l 214 0 l 63 0 m 212 1085 l 412 1316 l 607 1316 l 348 1085 l 212 1085 z "},"Ļ":{"ha":777,"x_min":71,"x_max":701,"o":"m 174 -428 l 291 -94 l 462 -94 l 302 -428 l 174 -428 m 71 0 l 192 987 l 348 987 l 243 133 l 701 133 l 684 0 l 71 0 z "},"ļ":{"ha":372,"x_min":-72,"x_max":336,"o":"m -72 -428 l 45 -94 l 216 -94 l 56 -428 l -72 -428 m 63 0 l 186 996 l 336 996 l 214 0 l 63 0 z "},"Ľ":{"ha":777,"x_min":71,"x_max":719,"o":"m 431 653 l 547 987 l 719 987 l 558 653 l 431 653 m 71 0 l 192 987 l 348 987 l 243 133 l 701 133 l 684 0 l 71 0 z "},"ľ":{"ha":372,"x_min":63,"x_max":677,"o":"m 63 0 l 186 996 l 336 996 l 214 0 l 63 0 m 389 653 l 505 987 l 677 987 l 516 653 l 389 653 z "},"Ŀ":{"ha":777,"x_min":71,"x_max":701,"o":"m 399 431 l 418 595 l 591 595 l 571 431 l 399 431 m 71 0 l 192 987 l 348 987 l 243 133 l 701 133 l 684 0 l 71 0 z "},"ŀ":{"ha":372,"x_min":63,"x_max":536,"o":"m 344 434 l 363 598 l 536 598 l 516 434 l 344 434 m 63 0 l 186 996 l 336 996 l 214 0 l 63 0 z "},"Ł":{"ha":781,"x_min":5,"x_max":701,"o":"m 5 299 l 22 434 l 481 730 l 465 595 l 5 299 m 71 0 l 192 987 l 348 987 l 243 133 l 701 133 l 684 0 l 71 0 z "},"ł":{"ha":341,"x_min":-7,"x_max":361,"o":"m 28 0 l 88 485 l -7 417 l 9 550 l 104 618 l 151 996 l 303 996 l 269 726 l 361 792 l 344 659 l 254 590 l 181 0 l 28 0 z "},"Ń":{"ha":1096,"x_min":71,"x_max":1025,"o":"m 566 1085 l 766 1316 l 961 1316 l 702 1085 l 566 1085 m 71 0 l 192 987 l 358 987 q 493 748 406 901 q 651 467 579 595 q 783 225 722 339 l 877 987 l 1025 987 l 904 0 l 737 0 q 548 333 706 56 q 309 761 390 610 l 216 0 l 71 0 z "},"ń":{"ha":837,"x_min":68,"x_max":847,"o":"m 68 0 l 125 459 q 137 581 133 522 q 142 668 142 640 l 143 696 l 302 696 l 291 597 q 399 683 334 653 q 527 713 465 713 q 694 656 638 713 q 750 475 750 599 q 745 390 750 431 l 696 0 l 545 0 l 593 395 q 598 462 598 437 q 571 560 598 529 q 481 591 544 591 q 348 540 416 591 q 273 425 281 490 l 220 0 l 68 0 m 452 793 l 652 1024 l 847 1024 l 588 793 l 452 793 z "},"Ņ":{"ha":1096,"x_min":71,"x_max":1025,"o":"m 302 -428 l 418 -94 l 589 -94 l 429 -428 l 302 -428 m 71 0 l 192 987 l 358 987 q 493 748 406 901 q 651 467 579 595 q 783 225 722 339 l 877 987 l 1025 987 l 904 0 l 737 0 q 548 333 706 56 q 309 761 390 610 l 216 0 l 71 0 z "},"ņ":{"ha":837,"x_min":68,"x_max":750,"o":"m 186 -428 l 303 -94 l 474 -94 l 314 -428 l 186 -428 m 68 0 l 125 459 q 137 581 133 522 q 142 668 142 640 l 143 696 l 302 696 l 291 597 q 399 683 334 653 q 527 713 465 713 q 694 656 638 713 q 750 475 750 599 q 745 390 750 431 l 696 0 l 545 0 l 593 395 q 598 462 598 437 q 571 560 598 529 q 481 591 544 591 q 348 540 416 591 q 273 425 281 490 l 220 0 l 68 0 z "},"Ň":{"ha":1096,"x_min":71,"x_max":1025,"o":"m 560 1078 l 410 1328 l 555 1328 l 634 1196 l 747 1328 l 897 1328 l 686 1078 l 560 1078 m 71 0 l 192 987 l 358 987 q 493 748 406 901 q 651 467 579 595 q 783 225 722 339 l 877 987 l 1025 987 l 904 0 l 737 0 q 548 333 706 56 q 309 761 390 610 l 216 0 l 71 0 z "},"ň":{"ha":837,"x_min":68,"x_max":783,"o":"m 68 0 l 125 459 q 137 581 133 522 q 142 668 142 640 l 143 696 l 302 696 l 291 597 q 399 683 334 653 q 527 713 465 713 q 694 656 638 713 q 750 475 750 599 q 745 390 750 431 l 696 0 l 545 0 l 593 395 q 598 462 598 437 q 571 560 598 529 q 481 591 544 591 q 348 540 416 591 q 273 425 281 490 l 220 0 l 68 0 m 446 786 l 296 1036 l 441 1036 l 520 904 l 633 1036 l 783 1036 l 572 786 l 446 786 z "},"ŉ":{"ha":839,"x_min":1,"x_max":750,"o":"m 68 0 l 125 459 q 137 581 133 522 q 142 668 142 640 l 143 696 l 302 696 l 291 597 q 399 683 334 653 q 527 713 465 713 q 694 656 638 713 q 750 475 750 599 q 745 390 750 431 l 696 0 l 545 0 l 593 395 q 598 462 598 437 q 571 560 598 529 q 481 591 544 591 q 348 540 416 591 q 273 425 281 490 l 220 0 l 68 0 z "},"Ŋ":{"ha":1086,"x_min":88,"x_max":1036,"o":"m 1036 987 l 918 28 q 532 -308 877 -308 q 313 -277 435 -308 l 347 -155 q 544 -188 462 -188 q 624 -180 589 -188 q 689 -154 659 -172 q 738 -101 720 -135 q 763 -17 757 -66 l 772 56 l 393 671 l 331 785 l 234 0 l 88 0 l 209 987 l 376 987 q 565 675 409 932 q 800 275 720 418 l 886 987 l 1036 987 z "},"ŋ":{"ha":819,"x_min":84,"x_max":753,"o":"m 320 -275 q 108 -245 225 -275 l 141 -129 q 325 -158 245 -158 q 553 47 528 -158 l 595 395 q 601 468 601 438 q 575 561 601 532 q 489 590 550 590 q 403 568 448 590 q 326 507 359 546 q 288 425 294 468 l 236 0 l 84 0 l 140 459 q 153 581 148 522 q 158 668 157 640 l 159 696 l 319 696 l 307 597 q 409 683 345 652 q 535 713 473 713 q 699 657 645 713 q 753 479 753 601 q 747 390 753 439 l 709 80 q 588 -185 688 -95 q 320 -275 489 -275 z "},"Ō":{"ha":1121,"x_min":66,"x_max":1055,"o":"m 433 1107 l 444 1205 l 857 1205 l 846 1107 l 433 1107 m 235 414 q 305 195 235 273 q 514 118 376 118 q 765 218 672 118 q 880 497 858 317 q 885 576 885 541 q 815 793 885 715 q 609 872 746 872 q 408 814 494 872 q 279 652 323 755 q 235 414 235 549 m 500 -16 q 180 98 294 -16 q 66 409 66 211 q 72 497 66 448 q 163 762 91 648 q 355 941 235 877 q 627 1006 475 1006 q 941 890 827 1006 q 1055 581 1055 775 q 1049 497 1055 544 q 874 123 1021 262 q 500 -16 728 -16 z "},"ō":{"ha":864,"x_min":67,"x_max":798,"o":"m 637 395 q 594 537 637 484 q 463 591 550 591 q 290 509 353 591 q 227 301 227 427 q 270 160 227 213 q 404 108 314 108 q 575 189 513 108 q 637 395 637 271 m 389 -16 q 150 70 233 -16 q 67 292 67 155 q 71 348 67 316 q 134 534 83 452 q 275 665 185 616 q 479 713 364 713 q 717 630 636 713 q 798 408 798 547 q 793 347 798 378 q 753 206 784 271 q 671 91 722 141 q 548 13 621 41 q 389 -16 475 -16 m 286 815 l 298 913 l 711 913 l 699 815 l 286 815 z "},"Ŏ":{"ha":1121,"x_min":66,"x_max":1055,"o":"m 635 1088 q 451 1259 451 1088 q 452 1279 451 1272 l 559 1279 l 559 1272 q 583 1212 559 1228 q 648 1195 606 1195 q 719 1213 692 1195 q 758 1279 747 1231 l 863 1279 q 787 1134 844 1180 q 635 1088 730 1088 m 235 414 q 305 195 235 273 q 514 118 376 118 q 765 218 672 118 q 880 497 858 317 q 885 576 885 541 q 815 793 885 715 q 609 872 746 872 q 408 814 494 872 q 279 652 323 755 q 235 414 235 549 m 500 -16 q 180 98 294 -16 q 66 409 66 211 q 72 497 66 448 q 163 762 91 648 q 355 941 235 877 q 627 1006 475 1006 q 941 890 827 1006 q 1055 581 1055 775 q 1049 497 1055 544 q 874 123 1021 262 q 500 -16 728 -16 z "},"ŏ":{"ha":864,"x_min":67,"x_max":798,"o":"m 637 395 q 594 537 637 484 q 463 591 550 591 q 290 509 353 591 q 227 301 227 427 q 270 160 227 213 q 404 108 314 108 q 575 189 513 108 q 637 395 637 271 m 389 -16 q 150 70 233 -16 q 67 292 67 155 q 71 348 67 316 q 134 534 83 452 q 275 665 185 616 q 479 713 364 713 q 717 630 636 713 q 798 408 798 547 q 793 347 798 378 q 753 206 784 271 q 671 91 722 141 q 548 13 621 41 q 389 -16 475 -16 m 488 796 q 304 968 304 796 q 305 987 304 981 l 412 987 l 412 980 q 436 920 412 937 q 502 903 460 903 q 573 921 545 903 q 611 987 600 939 l 717 987 q 641 842 698 888 q 488 796 583 796 z "},"Ő":{"ha":1121,"x_min":66,"x_max":1084,"o":"m 489 1063 l 660 1316 l 829 1316 l 598 1063 l 489 1063 m 710 1063 l 906 1316 l 1084 1316 l 824 1063 l 710 1063 m 235 414 q 305 195 235 273 q 514 118 376 118 q 765 218 672 118 q 880 497 858 317 q 885 576 885 541 q 815 793 885 715 q 609 872 746 872 q 408 814 494 872 q 279 652 323 755 q 235 414 235 549 m 500 -16 q 180 98 294 -16 q 66 409 66 211 q 72 497 66 448 q 163 762 91 648 q 355 941 235 877 q 627 1006 475 1006 q 941 890 827 1006 q 1055 581 1055 775 q 1049 497 1055 544 q 874 123 1021 262 q 500 -16 728 -16 z "},"ő":{"ha":864,"x_min":67,"x_max":938,"o":"m 637 395 q 594 537 637 484 q 463 591 550 591 q 290 509 353 591 q 227 301 227 427 q 270 160 227 213 q 404 108 314 108 q 575 189 513 108 q 637 395 637 271 m 389 -16 q 150 70 233 -16 q 67 292 67 155 q 71 348 67 316 q 134 534 83 452 q 275 665 185 616 q 479 713 364 713 q 717 630 636 713 q 798 408 798 547 q 793 347 798 378 q 753 206 784 271 q 671 91 722 141 q 548 13 621 41 q 389 -16 475 -16 m 342 772 l 513 1024 l 683 1024 l 452 772 l 342 772 m 564 772 l 760 1024 l 938 1024 l 677 772 l 564 772 z "},"Œ":{"ha":1392,"x_min":66,"x_max":1367,"o":"m 604 1005 q 678 999 644 1005 q 732 986 712 994 q 770 969 752 979 q 792 954 787 958 q 802 945 797 950 l 806 987 l 1367 987 l 1351 854 l 947 854 l 912 572 l 1291 572 l 1274 438 l 897 438 l 859 134 l 1282 134 l 1265 0 l 685 0 l 692 51 q 660 29 683 42 q 589 0 637 16 q 490 -16 541 -15 l 471 -16 q 307 11 381 -16 q 179 89 233 37 q 96 220 125 140 q 66 401 66 300 q 109 651 66 537 q 225 843 152 766 q 397 962 299 920 q 604 1005 495 1005 m 707 173 l 785 813 q 614 873 726 873 q 582 871 604 873 q 356 766 450 863 q 240 492 262 669 q 235 413 235 447 q 306 189 235 269 q 507 109 378 109 q 707 173 637 109 z "},"œ":{"ha":1352,"x_min":63,"x_max":1265,"o":"m 384 -15 q 148 70 232 -15 q 63 292 63 154 q 66 347 63 315 q 194 610 86 506 q 471 713 302 713 q 722 578 650 713 q 837 681 771 646 q 994 715 902 715 q 1195 635 1124 715 q 1265 417 1265 555 q 1261 345 1265 380 l 1256 304 l 763 304 l 763 301 q 763 295 763 298 q 762 289 763 292 l 762 286 l 762 276 q 813 152 762 196 q 958 108 865 108 q 1030 115 994 108 q 1092 133 1066 123 q 1140 155 1118 144 q 1172 173 1161 165 l 1183 180 l 1213 70 q 1200 61 1208 66 q 1163 40 1192 55 q 1104 15 1135 26 q 1024 -6 1073 3 q 926 -15 976 -15 q 767 23 840 -15 q 665 123 694 61 q 546 23 624 60 q 384 -15 468 -15 m 618 402 q 579 540 618 490 q 456 591 539 591 q 287 507 352 591 q 222 300 222 424 q 267 161 222 214 q 401 108 311 108 q 520 150 470 108 q 594 257 570 191 q 618 402 618 322 m 1128 450 q 1086 553 1128 515 q 979 592 1044 592 q 852 546 907 592 q 780 428 798 500 l 1126 428 q 1128 450 1128 441 z "},"Ŕ":{"ha":930,"x_min":71,"x_max":855,"o":"m 460 1085 l 661 1316 l 855 1316 l 596 1085 l 460 1085 m 71 0 l 192 987 l 528 987 q 628 982 584 987 q 714 962 673 977 q 783 924 755 948 q 826 861 810 900 q 842 770 842 823 q 839 720 842 749 q 773 570 828 633 q 616 485 718 508 q 736 311 698 447 l 823 0 l 654 0 l 578 294 q 529 400 558 373 q 427 427 499 427 l 279 427 l 227 0 l 71 0 m 675 745 q 636 831 675 808 q 513 854 598 854 l 330 854 l 294 559 l 461 559 q 675 745 675 559 z "},"ŕ":{"ha":541,"x_min":70,"x_max":718,"o":"m 70 0 l 134 522 q 140 594 138 551 q 144 667 143 637 l 144 696 l 306 696 l 294 597 q 486 713 383 713 q 555 703 519 713 l 539 570 q 459 583 500 583 q 334 533 386 583 q 271 391 282 484 l 222 0 l 70 0 m 323 793 l 523 1024 l 718 1024 l 458 793 l 323 793 z "},"Ŗ":{"ha":930,"x_min":71,"x_max":842,"o":"m 224 -428 l 341 -94 l 512 -94 l 352 -428 l 224 -428 m 71 0 l 192 987 l 528 987 q 628 982 584 987 q 714 962 673 977 q 783 924 755 948 q 826 861 810 900 q 842 770 842 823 q 839 720 842 749 q 773 570 828 633 q 616 485 718 508 q 736 311 698 447 l 823 0 l 654 0 l 578 294 q 529 400 558 373 q 427 427 499 427 l 279 427 l 227 0 l 71 0 m 675 745 q 636 831 675 808 q 513 854 598 854 l 330 854 l 294 559 l 461 559 q 675 745 675 559 z "},"ŗ":{"ha":541,"x_min":-43,"x_max":555,"o":"m -43 -428 l 74 -94 l 245 -94 l 85 -428 l -43 -428 m 70 0 l 134 522 q 140 594 138 551 q 144 667 143 637 l 144 696 l 306 696 l 294 597 q 486 713 383 713 q 555 703 519 713 l 539 570 q 459 583 500 583 q 334 533 386 583 q 271 391 282 484 l 222 0 l 70 0 z "},"Ř":{"ha":930,"x_min":71,"x_max":842,"o":"m 454 1078 l 304 1328 l 450 1328 l 528 1196 l 641 1328 l 791 1328 l 581 1078 l 454 1078 m 71 0 l 192 987 l 528 987 q 628 982 584 987 q 714 962 673 977 q 783 924 755 948 q 826 861 810 900 q 842 770 842 823 q 839 720 842 749 q 773 570 828 633 q 616 485 718 508 q 736 311 698 447 l 823 0 l 654 0 l 578 294 q 529 400 558 373 q 427 427 499 427 l 279 427 l 227 0 l 71 0 m 675 745 q 636 831 675 808 q 513 854 598 854 l 330 854 l 294 559 l 461 559 q 675 745 675 559 z "},"ř":{"ha":541,"x_min":70,"x_max":654,"o":"m 70 0 l 134 522 q 140 594 138 551 q 144 667 143 637 l 144 696 l 306 696 l 294 597 q 486 713 383 713 q 555 703 519 713 l 539 570 q 459 583 500 583 q 334 533 386 583 q 271 391 282 484 l 222 0 l 70 0 m 317 786 l 167 1036 l 312 1036 l 391 904 l 503 1036 l 654 1036 l 443 786 l 317 786 z "},"Ś":{"ha":844,"x_min":33,"x_max":825,"o":"m 430 1085 l 630 1316 l 825 1316 l 566 1085 l 430 1085 m 573 294 q 543 367 573 338 q 426 427 512 396 q 382 442 412 432 q 341 456 352 452 q 169 549 223 496 q 114 694 114 603 q 143 831 114 771 q 224 929 173 892 q 342 986 275 967 q 485 1006 408 1006 q 681 978 611 1006 q 799 896 751 949 l 707 791 q 612 852 670 831 q 490 872 555 872 q 338 834 395 872 q 281 715 281 796 q 310 646 281 672 q 420 591 338 620 q 509 561 490 568 q 687 462 635 517 q 739 317 739 407 q 719 191 739 248 q 662 97 698 135 q 577 33 626 59 q 472 -4 528 7 q 356 -16 417 -16 q 162 18 251 -16 q 33 97 73 52 l 115 210 q 226 146 154 174 q 364 118 298 118 q 573 294 573 118 z "},"ś":{"ha":670,"x_min":46,"x_max":723,"o":"m 450 207 q 426 251 450 234 q 330 294 401 269 l 267 316 q 201 343 227 330 q 151 375 176 355 q 115 421 127 394 q 104 484 104 448 q 128 589 104 543 q 193 660 152 634 q 281 699 233 686 q 383 712 330 712 q 515 694 454 712 q 618 648 576 677 l 565 542 q 480 576 530 561 q 383 592 429 592 q 254 508 254 592 q 274 467 254 482 q 359 429 295 452 q 424 406 364 427 q 493 377 467 390 q 545 343 519 363 q 581 295 570 323 q 593 229 593 267 q 568 115 593 164 q 501 38 543 66 q 412 -2 459 11 q 315 -16 365 -16 q 153 11 223 -16 q 46 71 83 37 l 99 182 q 197 128 136 151 q 317 106 257 106 q 450 207 450 106 m 328 793 l 528 1024 l 723 1024 l 464 793 l 328 793 z "},"Ŝ":{"ha":844,"x_min":33,"x_max":799,"o":"m 249 1078 l 448 1327 l 594 1327 l 735 1078 l 597 1078 l 507 1211 l 382 1078 l 249 1078 m 573 294 q 543 367 573 338 q 426 427 512 396 q 382 442 412 432 q 341 456 352 452 q 169 549 223 496 q 114 694 114 603 q 143 831 114 771 q 224 929 173 892 q 342 986 275 967 q 485 1006 408 1006 q 681 978 611 1006 q 799 896 751 949 l 707 791 q 612 852 670 831 q 490 872 555 872 q 338 834 395 872 q 281 715 281 796 q 310 646 281 672 q 420 591 338 620 q 509 561 490 568 q 687 462 635 517 q 739 317 739 407 q 719 191 739 248 q 662 97 698 135 q 577 33 626 59 q 472 -4 528 7 q 356 -16 417 -16 q 162 18 251 -16 q 33 97 73 52 l 115 210 q 226 146 154 174 q 364 118 298 118 q 573 294 573 118 z "},"ŝ":{"ha":670,"x_min":46,"x_max":634,"o":"m 450 207 q 426 251 450 234 q 330 294 401 269 l 267 316 q 201 343 227 330 q 151 375 176 355 q 115 421 127 394 q 104 484 104 448 q 128 589 104 543 q 193 660 152 634 q 281 699 233 686 q 383 712 330 712 q 515 694 454 712 q 618 648 576 677 l 565 542 q 480 576 530 561 q 383 592 429 592 q 254 508 254 592 q 274 467 254 482 q 359 429 295 452 q 424 406 364 427 q 493 377 467 390 q 545 343 519 363 q 581 295 570 323 q 593 229 593 267 q 568 115 593 164 q 501 38 543 66 q 412 -2 459 11 q 315 -16 365 -16 q 153 11 223 -16 q 46 71 83 37 l 99 182 q 197 128 136 151 q 317 106 257 106 q 450 207 450 106 m 148 786 l 347 1036 l 493 1036 l 634 786 l 496 786 l 406 919 l 281 786 l 148 786 z "},"Ş":{"ha":844,"x_min":33,"x_max":799,"o":"m 418 -168 q 320 -113 418 -119 l 302 -111 l 339 16 l 416 16 l 393 -66 q 506 -101 469 -73 q 543 -173 543 -130 q 515 -255 543 -220 q 442 -307 486 -290 q 346 -323 398 -323 q 211 -293 271 -323 l 230 -205 q 335 -226 279 -226 q 395 -212 372 -226 q 418 -168 418 -198 m 573 294 q 543 367 573 338 q 426 427 512 396 q 382 442 412 432 q 341 456 352 452 q 169 549 223 496 q 114 694 114 603 q 143 831 114 771 q 224 929 173 892 q 342 986 275 967 q 485 1006 408 1006 q 681 978 611 1006 q 799 896 751 949 l 707 791 q 612 852 670 831 q 490 872 555 872 q 338 834 395 872 q 281 715 281 796 q 310 646 281 672 q 420 591 338 620 q 509 561 490 568 q 687 462 635 517 q 739 317 739 407 q 719 191 739 248 q 662 97 698 135 q 577 33 626 59 q 472 -4 528 7 q 356 -16 417 -16 q 162 18 251 -16 q 33 97 73 52 l 115 210 q 226 146 154 174 q 364 118 298 118 q 573 294 573 118 z "},"ş":{"ha":670,"x_min":46,"x_max":618,"o":"m 450 207 q 426 251 450 234 q 330 294 401 269 l 267 316 q 201 343 227 330 q 151 375 176 355 q 115 421 127 394 q 104 484 104 448 q 128 589 104 543 q 193 660 152 634 q 281 699 233 686 q 383 712 330 712 q 515 694 454 712 q 618 648 576 677 l 565 542 q 480 576 530 561 q 383 592 429 592 q 254 508 254 592 q 274 467 254 482 q 359 429 295 452 q 424 406 364 427 q 493 377 467 390 q 545 343 519 363 q 581 295 570 323 q 593 229 593 267 q 568 115 593 164 q 501 38 543 66 q 412 -2 459 11 q 315 -16 365 -16 q 153 11 223 -16 q 46 71 83 37 l 99 182 q 197 128 136 151 q 317 106 257 106 q 450 207 450 106 m 359 -168 q 261 -113 359 -119 l 243 -111 l 280 16 l 357 16 l 334 -66 q 447 -101 410 -73 q 484 -173 484 -130 q 456 -255 484 -220 q 383 -307 427 -290 q 287 -323 339 -323 q 152 -293 212 -323 l 171 -205 q 276 -226 220 -226 q 336 -212 313 -226 q 359 -168 359 -198 z "},"Š":{"ha":844,"x_min":33,"x_max":799,"o":"m 424 1078 l 274 1328 l 419 1328 l 498 1196 l 610 1328 l 761 1328 l 550 1078 l 424 1078 m 573 294 q 543 367 573 338 q 426 427 512 396 q 382 442 412 432 q 341 456 352 452 q 169 549 223 496 q 114 694 114 603 q 143 831 114 771 q 224 929 173 892 q 342 986 275 967 q 485 1006 408 1006 q 681 978 611 1006 q 799 896 751 949 l 707 791 q 612 852 670 831 q 490 872 555 872 q 338 834 395 872 q 281 715 281 796 q 310 646 281 672 q 420 591 338 620 q 509 561 490 568 q 687 462 635 517 q 739 317 739 407 q 719 191 739 248 q 662 97 698 135 q 577 33 626 59 q 472 -4 528 7 q 356 -16 417 -16 q 162 18 251 -16 q 33 97 73 52 l 115 210 q 226 146 154 174 q 364 118 298 118 q 573 294 573 118 z "},"š":{"ha":670,"x_min":46,"x_max":659,"o":"m 450 207 q 426 251 450 234 q 330 294 401 269 l 267 316 q 201 343 227 330 q 151 375 176 355 q 115 421 127 394 q 104 484 104 448 q 128 589 104 543 q 193 660 152 634 q 281 699 233 686 q 383 712 330 712 q 515 694 454 712 q 618 648 576 677 l 565 542 q 480 576 530 561 q 383 592 429 592 q 254 508 254 592 q 274 467 254 482 q 359 429 295 452 q 424 406 364 427 q 493 377 467 390 q 545 343 519 363 q 581 295 570 323 q 593 229 593 267 q 568 115 593 164 q 501 38 543 66 q 412 -2 459 11 q 315 -16 365 -16 q 153 11 223 -16 q 46 71 83 37 l 99 182 q 197 128 136 151 q 317 106 257 106 q 450 207 450 106 m 322 786 l 172 1036 l 317 1036 l 396 904 l 509 1036 l 659 1036 l 448 786 l 322 786 z "},"Ţ":{"ha":791,"x_min":52,"x_max":844,"o":"m 385 -168 q 286 -113 385 -119 l 268 -111 l 305 16 l 382 16 l 359 -66 q 472 -101 435 -73 q 509 -173 509 -130 q 481 -255 509 -220 q 408 -307 452 -290 q 312 -323 364 -323 q 177 -293 237 -323 l 196 -205 q 301 -226 245 -226 q 361 -212 338 -226 q 385 -168 385 -198 m 256 0 l 360 854 l 52 854 l 68 987 l 844 987 l 828 854 l 516 854 l 412 0 l 256 0 z "},"ţ":{"ha":556,"x_min":33,"x_max":525,"o":"m 442 1 l 377 1 q 267 8 311 1 q 190 35 224 16 q 140 91 155 54 q 124 184 124 128 q 128 250 124 214 l 171 594 l 33 594 l 45 696 l 188 696 l 209 865 l 361 909 l 335 696 l 525 696 l 512 594 l 322 594 l 279 241 q 277 202 277 222 q 313 133 277 148 q 456 117 349 117 l 442 1 m 333 -168 q 235 -113 333 -119 l 216 -111 l 254 16 l 331 16 l 308 -66 q 420 -101 383 -73 q 458 -173 458 -130 q 429 -255 458 -220 q 357 -307 401 -290 q 260 -323 313 -323 q 125 -293 185 -323 l 144 -205 q 250 -226 193 -226 q 310 -212 286 -226 q 333 -168 333 -198 z "},"Ť":{"ha":791,"x_min":52,"x_max":844,"o":"m 402 1078 l 252 1328 l 397 1328 l 476 1196 l 589 1328 l 739 1328 l 528 1078 l 402 1078 m 256 0 l 360 854 l 52 854 l 68 987 l 844 987 l 828 854 l 516 854 l 412 0 l 256 0 z "},"ť":{"ha":556,"x_min":33,"x_max":705,"o":"m 442 1 l 377 1 q 267 8 311 1 q 190 35 224 16 q 140 91 155 54 q 124 184 124 128 q 128 250 124 214 l 171 594 l 33 594 l 45 696 l 188 696 l 209 865 l 361 909 l 335 696 l 525 696 l 512 594 l 322 594 l 279 241 q 277 202 277 222 q 313 133 277 148 q 456 117 349 117 l 442 1 m 416 850 l 533 1184 l 705 1184 l 544 850 l 416 850 z "},"Ŧ":{"ha":791,"x_min":52,"x_max":844,"o":"m 186 453 l 197 551 l 610 551 l 599 453 l 186 453 m 256 0 l 360 854 l 52 854 l 68 987 l 844 987 l 828 854 l 516 854 l 412 0 l 256 0 z "},"ŧ":{"ha":556,"x_min":19,"x_max":525,"o":"m 442 1 l 377 1 q 267 8 311 1 q 190 35 224 16 q 140 91 155 54 q 124 184 124 128 q 128 250 124 214 l 171 594 l 33 594 l 45 696 l 188 696 l 209 865 l 361 909 l 335 696 l 525 696 l 512 594 l 322 594 l 279 241 q 277 202 277 222 q 313 133 277 148 q 456 117 349 117 l 442 1 m 19 359 l 31 458 l 444 458 l 432 359 l 19 359 z "},"Ũ":{"ha":1019,"x_min":96,"x_max":968,"o":"m 471 1154 q 437 1137 452 1154 q 414 1086 422 1120 l 317 1086 q 371 1219 327 1168 q 478 1270 416 1270 q 550 1252 513 1270 q 618 1217 587 1234 q 670 1199 650 1199 q 702 1215 690 1199 q 720 1270 714 1230 l 820 1270 q 766 1131 809 1179 q 656 1082 722 1082 q 557 1118 623 1082 q 471 1154 491 1154 m 448 -16 q 279 8 349 -16 q 170 76 209 32 q 113 176 130 121 q 96 303 96 232 q 102 395 96 349 l 174 987 l 330 987 l 257 391 q 253 326 253 355 q 308 167 253 216 q 465 118 362 118 q 739 390 705 118 l 812 987 l 968 987 l 896 396 q 868 266 887 325 q 815 153 850 207 q 731 63 780 100 q 610 6 682 27 q 448 -16 538 -16 z "},"ũ":{"ha":818,"x_min":83,"x_max":755,"o":"m 321 -16 q 143 45 204 -16 q 83 211 83 106 q 86 259 83 232 l 140 696 l 290 696 l 237 260 q 235 231 235 245 q 269 138 235 169 q 366 108 302 108 q 552 280 530 108 l 603 696 l 755 696 l 692 182 q 676 0 686 133 l 520 0 l 530 106 q 504 68 520 87 q 462 29 487 49 q 400 -3 437 9 q 321 -16 363 -16 m 353 862 q 319 845 334 862 q 296 794 304 829 l 199 794 q 253 927 209 876 q 360 978 298 978 q 432 960 395 978 q 500 925 469 943 q 552 907 532 907 q 584 923 572 907 q 602 978 596 939 l 702 978 q 648 839 691 887 q 538 791 604 791 q 439 826 505 791 q 353 862 373 862 z "},"Ū":{"ha":1019,"x_min":96,"x_max":968,"o":"m 377 1107 l 389 1205 l 802 1205 l 790 1107 l 377 1107 m 448 -16 q 279 8 349 -16 q 170 76 209 32 q 113 176 130 121 q 96 303 96 232 q 102 395 96 349 l 174 987 l 330 987 l 257 391 q 253 326 253 355 q 308 167 253 216 q 465 118 362 118 q 739 390 705 118 l 812 987 l 968 987 l 896 396 q 868 266 887 325 q 815 153 850 207 q 731 63 780 100 q 610 6 682 27 q 448 -16 538 -16 z "},"ū":{"ha":818,"x_min":83,"x_max":755,"o":"m 321 -16 q 143 45 204 -16 q 83 211 83 106 q 86 259 83 232 l 140 696 l 290 696 l 237 260 q 235 231 235 245 q 269 138 235 169 q 366 108 302 108 q 552 280 530 108 l 603 696 l 755 696 l 692 182 q 676 0 686 133 l 520 0 l 530 106 q 504 68 520 87 q 462 29 487 49 q 400 -3 437 9 q 321 -16 363 -16 m 258 815 l 270 913 l 683 913 l 671 815 l 258 815 z "},"Ŭ":{"ha":1019,"x_min":96,"x_max":968,"o":"m 579 1088 q 395 1259 395 1088 q 396 1279 395 1272 l 503 1279 l 503 1272 q 527 1212 503 1228 q 593 1195 551 1195 q 664 1213 636 1195 q 702 1279 691 1231 l 808 1279 q 731 1134 789 1180 q 579 1088 674 1088 m 448 -16 q 279 8 349 -16 q 170 76 209 32 q 113 176 130 121 q 96 303 96 232 q 102 395 96 349 l 174 987 l 330 987 l 257 391 q 253 326 253 355 q 308 167 253 216 q 465 118 362 118 q 739 390 705 118 l 812 987 l 968 987 l 896 396 q 868 266 887 325 q 815 153 850 207 q 731 63 780 100 q 610 6 682 27 q 448 -16 538 -16 z "},"ŭ":{"ha":818,"x_min":83,"x_max":755,"o":"m 321 -16 q 143 45 204 -16 q 83 211 83 106 q 86 259 83 232 l 140 696 l 290 696 l 237 260 q 235 231 235 245 q 269 138 235 169 q 366 108 302 108 q 552 280 530 108 l 603 696 l 755 696 l 692 182 q 676 0 686 133 l 520 0 l 530 106 q 504 68 520 87 q 462 29 487 49 q 400 -3 437 9 q 321 -16 363 -16 m 460 796 q 277 968 277 796 q 277 987 277 981 l 385 987 l 385 980 q 408 920 385 937 q 474 903 432 903 q 545 921 517 903 q 583 987 572 939 l 689 987 q 613 842 670 888 q 460 796 555 796 z "},"Ů":{"ha":1019,"x_min":96,"x_max":968,"o":"m 665 1211 q 647 1257 665 1238 q 601 1275 629 1275 q 544 1251 569 1275 q 519 1193 519 1227 q 538 1146 519 1165 q 583 1128 556 1128 q 641 1152 616 1128 q 665 1211 665 1176 m 610 1342 q 702 1308 665 1342 q 739 1219 739 1274 q 689 1107 739 1152 q 575 1061 639 1061 q 483 1096 519 1061 q 446 1184 446 1131 q 496 1297 446 1252 q 610 1342 545 1342 m 448 -16 q 279 8 349 -16 q 170 76 209 32 q 113 176 130 121 q 96 303 96 232 q 102 395 96 349 l 174 987 l 330 987 l 257 391 q 253 326 253 355 q 308 167 253 216 q 465 118 362 118 q 739 390 705 118 l 812 987 l 968 987 l 896 396 q 868 266 887 325 q 815 153 850 207 q 731 63 780 100 q 610 6 682 27 q 448 -16 538 -16 z "},"ů":{"ha":818,"x_min":83,"x_max":755,"o":"m 321 -16 q 143 45 204 -16 q 83 211 83 106 q 86 259 83 232 l 140 696 l 290 696 l 237 260 q 235 231 235 245 q 269 138 235 169 q 366 108 302 108 q 552 280 530 108 l 603 696 l 755 696 l 692 182 q 676 0 686 133 l 520 0 l 530 106 q 504 68 520 87 q 462 29 487 49 q 400 -3 437 9 q 321 -16 363 -16 m 547 919 q 528 965 547 947 q 482 983 510 983 q 426 959 450 983 q 401 901 401 935 q 419 855 401 873 q 465 836 437 836 q 522 860 497 836 q 547 919 547 884 m 491 1050 q 583 1016 547 1050 q 620 928 620 982 q 570 815 620 861 q 456 770 520 770 q 364 804 401 770 q 328 892 328 839 q 377 1005 328 960 q 491 1050 427 1050 z "},"Ű":{"ha":1019,"x_min":96,"x_max":1029,"o":"m 433 1063 l 604 1316 l 774 1316 l 543 1063 l 433 1063 m 654 1063 l 850 1316 l 1029 1316 l 768 1063 l 654 1063 m 448 -16 q 279 8 349 -16 q 170 76 209 32 q 113 176 130 121 q 96 303 96 232 q 102 395 96 349 l 174 987 l 330 987 l 257 391 q 253 326 253 355 q 308 167 253 216 q 465 118 362 118 q 739 390 705 118 l 812 987 l 968 987 l 896 396 q 868 266 887 325 q 815 153 850 207 q 731 63 780 100 q 610 6 682 27 q 448 -16 538 -16 z "},"ű":{"ha":818,"x_min":83,"x_max":910,"o":"m 321 -16 q 143 45 204 -16 q 83 211 83 106 q 86 259 83 232 l 140 696 l 290 696 l 237 260 q 235 231 235 245 q 269 138 235 169 q 366 108 302 108 q 552 280 530 108 l 603 696 l 755 696 l 692 182 q 676 0 686 133 l 520 0 l 530 106 q 504 68 520 87 q 462 29 487 49 q 400 -3 437 9 q 321 -16 363 -16 m 315 772 l 486 1024 l 655 1024 l 424 772 l 315 772 m 536 772 l 732 1024 l 910 1024 l 650 772 l 536 772 z "},"Ų":{"ha":1019,"x_min":96,"x_max":968,"o":"m 487 13 l 569 12 q 479 -61 516 -18 q 443 -138 443 -103 q 498 -174 443 -174 q 609 -153 530 -174 l 598 -241 q 444 -266 514 -266 q 343 -244 381 -266 q 304 -178 304 -222 q 318 -122 304 -149 q 350 -75 332 -94 q 396 -37 368 -56 q 443 -8 425 -18 q 487 13 462 1 m 448 -16 q 279 8 349 -16 q 170 76 209 32 q 113 176 130 121 q 96 303 96 232 q 102 395 96 349 l 174 987 l 330 987 l 257 391 q 253 326 253 355 q 308 167 253 216 q 465 118 362 118 q 739 390 705 118 l 812 987 l 968 987 l 896 396 q 868 266 887 325 q 815 153 850 207 q 731 63 780 100 q 610 6 682 27 q 448 -16 538 -16 z "},"ų":{"ha":818,"x_min":83,"x_max":755,"o":"m 321 -16 q 143 45 204 -16 q 83 211 83 106 q 86 259 83 232 l 140 696 l 290 696 l 237 260 q 235 231 235 245 q 269 138 235 169 q 366 108 302 108 q 552 280 530 108 l 603 696 l 755 696 l 692 182 q 676 0 686 133 l 520 0 l 530 106 q 504 68 520 87 q 462 29 487 49 q 400 -3 437 9 q 321 -16 363 -16 m 579 13 l 661 12 q 572 -61 608 -18 q 535 -138 535 -103 q 591 -174 535 -174 q 701 -153 622 -174 l 690 -241 q 536 -266 606 -266 q 435 -244 473 -266 q 397 -178 397 -222 q 410 -122 397 -149 q 442 -75 424 -94 q 489 -37 460 -56 q 535 -8 517 -18 q 579 13 554 1 z "},"Ŵ":{"ha":1392,"x_min":71,"x_max":1441,"o":"m 528 1078 l 728 1327 l 873 1327 l 1015 1078 l 876 1078 l 786 1211 l 661 1078 l 528 1078 m 227 0 l 71 987 l 238 987 q 273 737 249 905 q 314 438 296 570 q 345 184 331 306 q 450 439 393 306 q 577 736 506 572 q 685 987 648 901 l 837 987 q 884 738 851 909 q 941 436 917 566 q 984 182 964 305 q 1152 643 1040 342 q 1280 987 1263 943 l 1441 987 l 1050 0 l 869 0 l 730 774 l 406 0 l 227 0 z "},"ŵ":{"ha":1132,"x_min":58,"x_max":1160,"o":"m 216 0 l 58 696 l 219 696 q 317 184 284 354 q 553 696 359 276 l 690 696 q 791 182 786 211 q 913 459 835 279 q 1017 696 991 639 l 1160 696 l 823 0 l 692 0 q 587 500 601 431 q 348 0 507 334 l 216 0 m 391 786 l 591 1036 l 736 1036 l 878 786 l 739 786 l 649 919 l 524 786 l 391 786 z "},"Ŷ":{"ha":852,"x_min":59,"x_max":918,"o":"m 271 1078 l 470 1327 l 616 1327 l 757 1078 l 618 1078 l 528 1211 l 404 1078 l 271 1078 m 285 0 l 332 385 l 59 987 l 235 987 l 430 523 l 739 987 l 918 987 l 488 387 l 441 0 l 285 0 z "},"ŷ":{"ha":745,"x_min":48,"x_max":787,"o":"m 99 -299 l 48 -196 q 199 -119 145 -161 q 277 -21 253 -77 l 291 13 l 84 696 l 241 696 l 385 175 l 633 696 l 787 696 l 414 -38 q 280 -206 362 -140 q 99 -299 197 -271 m 218 786 l 418 1036 l 564 1036 l 705 786 l 566 786 l 476 919 l 351 786 l 218 786 z "},"Ÿ":{"ha":852,"x_min":59,"x_max":918,"o":"m 288 1082 l 306 1227 l 458 1227 l 440 1082 l 288 1082 m 583 1082 l 602 1227 l 753 1227 l 735 1082 l 583 1082 m 285 0 l 332 385 l 59 987 l 235 987 l 430 523 l 739 987 l 918 987 l 488 387 l 441 0 l 285 0 z "},"Ź":{"ha":808,"x_min":-5,"x_max":823,"o":"m 429 1085 l 629 1316 l 823 1316 l 564 1085 l 429 1085 m -5 0 l 5 84 l 578 854 l 118 854 l 134 987 l 808 987 l 798 906 l 220 133 l 702 133 l 686 0 l -5 0 z "},"ź":{"ha":669,"x_min":27,"x_max":747,"o":"m 27 0 l 37 81 l 436 574 l 111 574 l 125 696 l 647 696 l 637 616 l 237 121 l 593 121 l 578 0 l 27 0 m 353 793 l 553 1024 l 747 1024 l 488 793 l 353 793 z "},"Ż":{"ha":808,"x_min":-5,"x_max":808,"o":"m 422 1119 l 439 1261 l 589 1261 l 572 1119 l 422 1119 m -5 0 l 5 84 l 578 854 l 118 854 l 134 987 l 808 987 l 798 906 l 220 133 l 702 133 l 686 0 l -5 0 z "},"ż":{"ha":669,"x_min":27,"x_max":647,"o":"m 27 0 l 37 81 l 436 574 l 111 574 l 125 696 l 647 696 l 637 616 l 237 121 l 593 121 l 578 0 l 27 0 m 346 827 l 363 970 l 513 970 l 496 827 l 346 827 z "},"Ž":{"ha":808,"x_min":-5,"x_max":808,"o":"m 422 1078 l 273 1328 l 418 1328 l 496 1196 l 609 1328 l 760 1328 l 549 1078 l 422 1078 m -5 0 l 5 84 l 578 854 l 118 854 l 134 987 l 808 987 l 798 906 l 220 133 l 702 133 l 686 0 l -5 0 z "},"ž":{"ha":669,"x_min":27,"x_max":684,"o":"m 27 0 l 37 81 l 436 574 l 111 574 l 125 696 l 647 696 l 637 616 l 237 121 l 593 121 l 578 0 l 27 0 m 347 786 l 197 1036 l 342 1036 l 421 904 l 534 1036 l 684 1036 l 473 786 l 347 786 z "},"ſ":{"ha":670,"x_min":46,"x_max":618,"o":"m 450 207 q 426 251 450 234 q 330 294 401 269 l 267 316 q 201 343 227 330 q 151 375 176 355 q 115 421 127 394 q 104 484 104 448 q 128 589 104 543 q 193 660 152 634 q 281 699 233 686 q 383 712 330 712 q 515 694 454 712 q 618 648 576 677 l 565 542 q 480 576 530 561 q 383 592 429 592 q 254 508 254 592 q 274 467 254 482 q 359 429 295 452 q 424 406 364 427 q 493 377 467 390 q 545 343 519 363 q 581 295 570 323 q 593 229 593 267 q 568 115 593 164 q 501 38 543 66 q 412 -2 459 11 q 315 -16 365 -16 q 153 11 223 -16 q 46 71 83 37 l 99 182 q 197 128 136 151 q 317 106 257 106 q 450 207 450 106 z "},"ƒ":{"ha":743,"x_min":-7,"x_max":800,"o":"m 64 -210 q -7 -197 33 -210 l 18 -85 q 73 -92 48 -92 q 144 -63 112 -92 q 200 45 176 -35 l 332 478 l 233 478 l 268 576 l 361 576 l 416 756 q 439 820 428 792 q 473 881 451 847 q 521 937 494 915 q 589 974 548 958 q 682 989 631 989 q 746 982 716 989 q 787 968 775 975 l 800 961 l 774 852 q 696 866 728 866 q 575 759 610 866 l 517 576 l 641 576 l 609 478 l 484 478 l 352 41 q 244 -152 311 -94 q 64 -210 177 -210 z "},"Ǆ":{"ha":1863,"x_min":71,"x_max":1863,"o":"m 1477 1078 l 1327 1328 l 1472 1328 l 1551 1196 l 1664 1328 l 1814 1328 l 1603 1078 l 1477 1078 m 1049 0 l 1059 84 l 1633 854 l 1173 854 l 1189 987 l 1863 987 l 1853 906 l 1274 133 l 1756 133 l 1740 0 l 1049 0 m 243 133 l 393 133 q 688 228 579 133 q 818 498 796 322 q 823 566 823 539 q 730 783 823 711 q 446 854 637 854 l 332 854 l 243 133 m 71 0 l 192 987 l 447 987 q 851 886 714 987 q 989 581 989 784 q 983 497 989 544 q 795 129 954 257 q 368 0 637 0 l 71 0 z "},"ǅ":{"ha":1723,"x_min":71,"x_max":1739,"o":"m 1082 0 l 1091 81 l 1491 574 l 1165 574 l 1180 696 l 1702 696 l 1692 616 l 1291 121 l 1647 121 l 1632 0 l 1082 0 m 1402 786 l 1252 1036 l 1397 1036 l 1476 904 l 1588 1036 l 1739 1036 l 1528 786 l 1402 786 m 243 133 l 393 133 q 688 228 579 133 q 818 498 796 322 q 823 566 823 539 q 730 783 823 711 q 446 854 637 854 l 332 854 l 243 133 m 71 0 l 192 987 l 447 987 q 851 886 714 987 q 989 581 989 784 q 983 497 989 544 q 795 129 954 257 q 368 0 637 0 l 71 0 z "},"ǆ":{"ha":1528,"x_min":49,"x_max":1544,"o":"m 886 0 l 896 81 l 1295 574 l 970 574 l 985 696 l 1506 696 l 1497 616 l 1096 121 l 1452 121 l 1437 0 l 886 0 m 1206 786 l 1057 1036 l 1202 1036 l 1280 904 l 1393 1036 l 1544 1036 l 1333 786 l 1206 786 m 328 -16 q 126 66 203 -16 q 49 285 49 147 q 53 345 49 313 q 113 531 66 448 q 241 663 159 613 q 427 713 323 713 q 551 682 502 713 q 616 612 601 650 l 664 996 l 815 996 l 715 183 q 699 0 713 166 l 544 0 l 554 100 q 472 20 531 56 q 328 -16 413 -16 m 591 399 q 551 538 591 486 q 430 591 510 591 q 269 508 329 591 q 209 300 209 425 q 249 160 209 213 q 370 108 289 108 q 532 191 473 108 q 591 399 591 274 z "},"Ǉ":{"ha":1389,"x_min":71,"x_max":1334,"o":"m 71 0 l 192 987 l 348 987 l 243 133 l 701 133 l 684 0 l 71 0 m 925 -224 q 732 -185 835 -224 l 772 -65 q 916 -92 857 -92 q 1021 -50 987 -92 q 1066 77 1056 -7 l 1178 987 l 1334 987 l 1223 81 q 1127 -146 1204 -68 q 925 -224 1050 -224 z "},"ǈ":{"ha":1145,"x_min":71,"x_max":1128,"o":"m 960 845 l 977 987 l 1128 987 l 1110 845 l 960 845 m 755 -267 q 650 -254 718 -267 l 672 -141 q 749 -152 721 -152 q 835 -113 804 -152 q 878 22 866 -73 l 960 696 l 1107 696 l 1027 37 q 1010 -55 1021 -14 q 980 -137 1000 -96 q 932 -205 960 -178 q 858 -250 903 -233 q 755 -267 813 -267 m 71 0 l 192 987 l 348 987 l 243 133 l 701 133 l 684 0 l 71 0 z "},"ǉ":{"ha":741,"x_min":63,"x_max":723,"o":"m 63 0 l 186 996 l 336 996 l 214 0 l 63 0 m 555 845 l 572 987 l 723 987 l 705 845 l 555 845 m 350 -267 q 245 -254 313 -267 l 267 -141 q 345 -152 316 -152 q 430 -113 399 -152 q 473 22 461 -73 l 555 696 l 703 696 l 622 37 q 606 -55 616 -14 q 575 -137 595 -96 q 527 -205 555 -178 q 453 -250 498 -233 q 350 -267 408 -267 z "},"Ǌ":{"ha":1708,"x_min":71,"x_max":1653,"o":"m 71 0 l 192 987 l 358 987 q 493 748 406 901 q 651 467 579 595 q 783 225 722 339 l 877 987 l 1025 987 l 904 0 l 737 0 q 548 333 706 56 q 309 761 390 610 l 216 0 l 71 0 m 1244 -224 q 1051 -185 1154 -224 l 1091 -65 q 1235 -92 1176 -92 q 1341 -50 1306 -92 q 1385 77 1375 -7 l 1497 987 l 1653 987 l 1542 81 q 1447 -146 1524 -68 q 1244 -224 1370 -224 z "},"ǋ":{"ha":1465,"x_min":71,"x_max":1447,"o":"m 1279 845 l 1297 987 l 1447 987 l 1430 845 l 1279 845 m 1074 -267 q 970 -254 1038 -267 l 991 -141 q 1069 -152 1040 -152 q 1154 -113 1123 -152 q 1197 22 1185 -73 l 1280 696 l 1427 696 l 1346 37 q 1330 -55 1340 -14 q 1300 -137 1320 -96 q 1251 -205 1280 -178 q 1178 -250 1223 -233 q 1074 -267 1133 -267 m 71 0 l 192 987 l 358 987 q 493 748 406 901 q 651 467 579 595 q 783 225 722 339 l 877 987 l 1025 987 l 904 0 l 737 0 q 548 333 706 56 q 309 761 390 610 l 216 0 l 71 0 z "},"ǌ":{"ha":1206,"x_min":68,"x_max":1188,"o":"m 68 0 l 125 459 q 137 581 133 522 q 142 668 142 640 l 143 696 l 302 696 l 291 597 q 399 683 334 653 q 527 713 465 713 q 694 656 638 713 q 750 475 750 599 q 745 390 750 431 l 696 0 l 545 0 l 593 395 q 598 462 598 437 q 571 560 598 529 q 481 591 544 591 q 348 540 416 591 q 273 425 281 490 l 220 0 l 68 0 m 1020 845 l 1038 987 l 1188 987 l 1171 845 l 1020 845 m 815 -267 q 711 -254 779 -267 l 732 -141 q 810 -152 781 -152 q 895 -113 864 -152 q 938 22 926 -73 l 1021 696 l 1168 696 l 1087 37 q 1071 -55 1081 -14 q 1041 -137 1061 -96 q 992 -205 1021 -178 q 919 -250 964 -233 q 815 -267 873 -267 z "},"Ǎ":{"ha":972,"x_min":-48,"x_max":901,"o":"m 490 1078 l 340 1328 l 486 1328 l 564 1196 l 677 1328 l 827 1328 l 616 1078 l 490 1078 m -48 0 l 465 987 l 625 987 l 901 0 l 726 0 l 657 253 l 250 253 l 122 0 l -48 0 m 317 391 l 619 391 q 522 813 574 589 q 317 391 431 626 z "},"ǎ":{"ha":870,"x_min":66,"x_max":812,"o":"m 418 786 l 268 1036 l 413 1036 l 492 904 l 604 1036 l 755 1036 l 544 786 l 418 786 m 363 -16 q 231 9 289 -16 q 138 77 174 34 q 85 173 103 119 q 66 290 66 227 q 70 343 66 314 q 110 483 79 416 q 189 601 140 549 q 307 683 237 652 q 455 713 376 713 q 575 684 524 713 q 652 605 625 654 l 663 696 l 812 696 l 726 0 l 575 0 l 588 104 q 492 17 550 50 q 363 -16 433 -16 m 629 400 q 586 539 629 488 q 456 591 543 591 q 282 510 345 591 q 220 302 220 429 q 264 160 220 213 q 399 108 309 108 q 569 190 509 108 q 629 400 629 271 z "},"Ǐ":{"ha":404,"x_min":64,"x_max":551,"o":"m 214 1078 l 64 1328 l 209 1328 l 288 1196 l 400 1328 l 551 1328 l 340 1078 l 214 1078 m 68 0 l 189 987 l 345 987 l 224 0 l 68 0 z "},"ǐ":{"ha":353,"x_min":9,"x_max":496,"o":"m 54 0 l 140 696 l 292 696 l 207 0 l 54 0 m 159 786 l 9 1036 l 154 1036 l 233 904 l 345 1036 l 496 1036 l 285 786 l 159 786 z "},"Ǒ":{"ha":1121,"x_min":66,"x_max":1055,"o":"m 567 1078 l 417 1328 l 562 1328 l 641 1196 l 753 1328 l 904 1328 l 693 1078 l 567 1078 m 235 414 q 305 195 235 273 q 514 118 376 118 q 765 218 672 118 q 880 497 858 317 q 885 576 885 541 q 815 793 885 715 q 609 872 746 872 q 408 814 494 872 q 279 652 323 755 q 235 414 235 549 m 500 -16 q 180 98 294 -16 q 66 409 66 211 q 72 497 66 448 q 163 762 91 648 q 355 941 235 877 q 627 1006 475 1006 q 941 890 827 1006 q 1055 581 1055 775 q 1049 497 1055 544 q 874 123 1021 262 q 500 -16 728 -16 z "},"ǒ":{"ha":864,"x_min":67,"x_max":798,"o":"m 637 395 q 594 537 637 484 q 463 591 550 591 q 290 509 353 591 q 227 301 227 427 q 270 160 227 213 q 404 108 314 108 q 575 189 513 108 q 637 395 637 271 m 389 -16 q 150 70 233 -16 q 67 292 67 155 q 71 348 67 316 q 134 534 83 452 q 275 665 185 616 q 479 713 364 713 q 717 630 636 713 q 798 408 798 547 q 793 347 798 378 q 753 206 784 271 q 671 91 722 141 q 548 13 621 41 q 389 -16 475 -16 m 420 786 l 271 1036 l 416 1036 l 494 904 l 607 1036 l 758 1036 l 547 786 l 420 786 z "},"Ǔ":{"ha":1019,"x_min":96,"x_max":968,"o":"m 511 1078 l 361 1328 l 507 1328 l 585 1196 l 698 1328 l 848 1328 l 637 1078 l 511 1078 m 448 -16 q 279 8 349 -16 q 170 76 209 32 q 113 176 130 121 q 96 303 96 232 q 102 395 96 349 l 174 987 l 330 987 l 257 391 q 253 326 253 355 q 308 167 253 216 q 465 118 362 118 q 739 390 705 118 l 812 987 l 968 987 l 896 396 q 868 266 887 325 q 815 153 850 207 q 731 63 780 100 q 610 6 682 27 q 448 -16 538 -16 z "},"ǔ":{"ha":818,"x_min":83,"x_max":755,"o":"m 321 -16 q 143 45 204 -16 q 83 211 83 106 q 86 259 83 232 l 140 696 l 290 696 l 237 260 q 235 231 235 245 q 269 138 235 169 q 366 108 302 108 q 552 280 530 108 l 603 696 l 755 696 l 692 182 q 676 0 686 133 l 520 0 l 530 106 q 504 68 520 87 q 462 29 487 49 q 400 -3 437 9 q 321 -16 363 -16 m 393 786 l 243 1036 l 388 1036 l 467 904 l 579 1036 l 730 1036 l 519 786 l 393 786 z "},"Ǣ":{"ha":1463,"x_min":-46,"x_max":1375,"o":"m 779 1107 l 791 1205 l 1204 1205 l 1192 1107 l 779 1107 m -46 0 l 654 987 l 1375 987 l 1358 850 l 905 850 l 895 572 l 1315 572 l 1299 439 l 895 439 l 885 137 l 1288 137 l 1272 0 l 710 0 l 720 253 l 317 253 l 142 0 l -46 0 m 393 376 l 724 376 l 748 850 l 722 850 l 393 376 z "},"ǣ":{"ha":1208,"x_min":32,"x_max":1141,"o":"m 457 815 l 469 913 l 882 913 l 870 815 l 457 815 m 884 713 q 1077 635 1013 713 q 1141 426 1141 557 q 1136 353 1141 397 l 1129 322 l 661 322 l 659 307 q 658 285 658 299 q 834 108 658 108 q 903 116 867 108 q 964 134 938 123 q 1013 156 991 145 q 1046 175 1034 167 l 1057 182 l 1086 72 q 1073 62 1082 68 q 1036 41 1065 56 q 978 15 1008 26 q 902 -6 947 3 q 812 -16 857 -16 q 654 22 719 -16 q 562 133 589 59 q 439 22 517 61 q 274 -16 361 -16 q 97 32 162 -16 q 32 168 32 81 q 34 197 32 182 q 65 294 41 253 q 127 360 90 335 q 223 401 165 386 q 346 422 281 416 q 498 427 410 427 l 524 427 q 526 454 526 437 q 489 556 526 518 q 384 593 453 593 q 172 538 295 593 l 141 642 q 176 660 156 650 q 234 682 196 669 q 322 705 271 696 q 427 713 374 713 q 551 679 491 713 q 632 583 611 645 q 744 679 675 644 q 884 713 812 713 m 183 189 q 215 127 183 147 q 298 106 247 106 q 386 125 347 106 q 451 176 426 144 q 491 244 475 208 q 511 322 506 281 l 430 322 q 340 316 381 322 q 262 296 299 310 q 204 254 225 281 q 183 189 183 227 m 1012 446 q 972 557 1012 517 q 872 598 933 598 q 750 550 800 598 q 674 425 699 501 l 1011 425 q 1012 446 1012 431 z "},"Ǧ":{"ha":1040,"x_min":65,"x_max":969,"o":"m 568 1078 l 418 1328 l 563 1328 l 642 1196 l 754 1328 l 905 1328 l 694 1078 l 568 1078 m 513 -16 q 180 93 294 -16 q 65 393 65 202 q 71 477 65 431 q 132 684 84 587 q 255 852 180 781 q 433 964 330 923 q 653 1006 536 1006 q 843 978 770 1006 q 969 907 916 951 l 893 798 q 639 872 795 872 q 483 841 555 872 q 359 756 410 810 q 276 633 309 703 q 233 485 243 564 q 229 417 229 450 q 306 198 229 278 q 536 118 383 118 q 726 146 637 118 l 757 397 l 519 397 l 536 531 l 931 531 l 873 58 q 513 -16 701 -16 z "},"ǧ":{"ha":850,"x_min":73,"x_max":817,"o":"m 330 -281 q 73 -225 191 -281 l 115 -94 q 336 -157 217 -157 q 502 -108 439 -157 q 576 40 564 -58 l 585 106 q 499 37 552 65 q 374 8 446 8 q 164 86 245 8 q 83 295 83 163 q 87 349 83 317 q 125 491 96 426 q 200 606 154 556 q 312 685 245 656 q 458 713 378 713 q 577 685 530 713 q 647 610 624 656 l 658 696 l 817 696 q 780 480 793 590 l 733 100 q 710 -12 726 40 q 663 -115 694 -64 q 588 -201 632 -165 q 478 -259 545 -237 q 330 -281 412 -281 m 242 301 q 283 170 242 216 q 404 124 323 124 q 494 143 454 124 q 559 195 534 161 q 600 269 585 228 q 621 358 615 309 q 625 408 625 387 q 584 541 625 492 q 467 591 544 591 q 347 551 399 591 q 269 447 296 512 q 242 301 242 381 m 393 786 l 243 1036 l 389 1036 l 467 904 l 580 1036 l 730 1036 l 519 786 l 393 786 z "},"Ǩ":{"ha":901,"x_min":71,"x_max":939,"o":"m 470 1078 l 320 1328 l 465 1328 l 544 1196 l 656 1328 l 807 1328 l 596 1078 l 470 1078 m 71 0 l 192 987 l 348 987 l 294 551 l 745 987 l 939 987 l 442 511 l 852 0 l 651 0 l 283 452 l 228 0 l 71 0 z "},"ǩ":{"ha":750,"x_min":45,"x_max":766,"o":"m 45 0 l 167 996 l 319 996 l 247 408 l 552 696 l 761 696 l 380 362 l 699 0 l 497 0 l 235 312 l 197 0 l 45 0 m 429 786 l 279 1036 l 425 1036 l 503 904 l 616 1036 l 766 1036 l 555 786 l 429 786 z "},"Ǫ":{"ha":1121,"x_min":66,"x_max":1055,"o":"m 500 13 l 582 12 q 492 -61 529 -18 q 456 -138 456 -103 q 511 -174 456 -174 q 622 -153 543 -174 l 611 -241 q 457 -266 527 -266 q 356 -244 394 -266 q 317 -178 317 -222 q 331 -122 317 -149 q 363 -75 345 -94 q 409 -37 381 -56 q 456 -8 437 -18 q 500 13 475 1 m 235 414 q 305 195 235 273 q 514 118 376 118 q 765 218 672 118 q 880 497 858 317 q 885 576 885 541 q 815 793 885 715 q 609 872 746 872 q 408 814 494 872 q 279 652 323 755 q 235 414 235 549 m 500 -16 q 180 98 294 -16 q 66 409 66 211 q 72 497 66 448 q 163 762 91 648 q 355 941 235 877 q 627 1006 475 1006 q 941 890 827 1006 q 1055 581 1055 775 q 1049 497 1055 544 q 874 123 1021 262 q 500 -16 728 -16 z "},"ǫ":{"ha":864,"x_min":67,"x_max":798,"o":"m 374 13 l 456 12 q 366 -61 403 -18 q 330 -138 330 -103 q 385 -174 330 -174 q 496 -153 416 -174 l 485 -241 q 331 -266 401 -266 q 230 -244 268 -266 q 191 -178 191 -222 q 205 -122 191 -149 q 237 -75 218 -94 q 283 -37 255 -56 q 330 -8 311 -18 q 374 13 349 1 m 637 395 q 594 537 637 484 q 463 591 550 591 q 290 509 353 591 q 227 301 227 427 q 270 160 227 213 q 404 108 314 108 q 575 189 513 108 q 637 395 637 271 m 389 -16 q 150 70 233 -16 q 67 292 67 155 q 71 348 67 316 q 134 534 83 452 q 275 665 185 616 q 479 713 364 713 q 717 630 636 713 q 798 408 798 547 q 793 347 798 378 q 753 206 784 271 q 671 91 722 141 q 548 13 621 41 q 389 -16 475 -16 z "},"ǰ":{"ha":369,"x_min":-126,"x_max":537,"o":"m -22 -267 q -126 -254 -58 -267 l -104 -141 q -27 -152 -56 -152 q 58 -113 27 -152 q 101 22 90 -73 l 184 696 l 331 696 l 250 37 q 234 -55 244 -14 q 204 -137 224 -96 q 155 -205 184 -178 q 82 -250 127 -233 q -22 -267 37 -267 m 200 786 l 50 1036 l 195 1036 l 274 904 l 387 1036 l 537 1036 l 326 786 l 200 786 z "},"Ǳ":{"ha":1863,"x_min":71,"x_max":1863,"o":"m 1049 0 l 1059 84 l 1633 854 l 1173 854 l 1189 987 l 1863 987 l 1853 906 l 1274 133 l 1756 133 l 1740 0 l 1049 0 m 243 133 l 393 133 q 688 228 579 133 q 818 498 796 322 q 823 566 823 539 q 730 783 823 711 q 446 854 637 854 l 332 854 l 243 133 m 71 0 l 192 987 l 447 987 q 851 886 714 987 q 989 581 989 784 q 983 497 989 544 q 795 129 954 257 q 368 0 637 0 l 71 0 z "},"ǲ":{"ha":1724,"x_min":71,"x_max":1702,"o":"m 1082 0 l 1091 81 l 1491 574 l 1165 574 l 1180 696 l 1702 696 l 1692 616 l 1291 121 l 1647 121 l 1632 0 l 1082 0 m 243 133 l 393 133 q 688 228 579 133 q 818 498 796 322 q 823 566 823 539 q 730 783 823 711 q 446 854 637 854 l 332 854 l 243 133 m 71 0 l 192 987 l 447 987 q 851 886 714 987 q 989 581 989 784 q 983 497 989 544 q 795 129 954 257 q 368 0 637 0 l 71 0 z "},"ǳ":{"ha":1529,"x_min":49,"x_max":1506,"o":"m 886 0 l 896 81 l 1295 574 l 970 574 l 985 696 l 1506 696 l 1497 616 l 1096 121 l 1452 121 l 1437 0 l 886 0 m 328 -16 q 126 66 203 -16 q 49 285 49 147 q 53 345 49 313 q 113 531 66 448 q 241 663 159 613 q 427 713 323 713 q 551 682 502 713 q 616 612 601 650 l 664 996 l 815 996 l 715 183 q 699 0 713 166 l 544 0 l 554 100 q 472 20 531 56 q 328 -16 413 -16 m 591 399 q 551 538 591 486 q 430 591 510 591 q 269 508 329 591 q 209 300 209 425 q 249 160 209 213 q 370 108 289 108 q 532 191 473 108 q 591 399 591 274 z "},"Ǵ":{"ha":1040,"x_min":65,"x_max":969,"o":"m 574 1085 l 774 1316 l 968 1316 l 709 1085 l 574 1085 m 513 -16 q 180 93 294 -16 q 65 393 65 202 q 71 477 65 431 q 132 684 84 587 q 255 852 180 781 q 433 964 330 923 q 653 1006 536 1006 q 843 978 770 1006 q 969 907 916 951 l 893 798 q 639 872 795 872 q 483 841 555 872 q 359 756 410 810 q 276 633 309 703 q 233 485 243 564 q 229 417 229 450 q 306 198 229 278 q 536 118 383 118 q 726 146 637 118 l 757 397 l 519 397 l 536 531 l 931 531 l 873 58 q 513 -16 701 -16 z "},"ǵ":{"ha":850,"x_min":73,"x_max":817,"o":"m 330 -281 q 73 -225 191 -281 l 115 -94 q 336 -157 217 -157 q 502 -108 439 -157 q 576 40 564 -58 l 585 106 q 499 37 552 65 q 374 8 446 8 q 164 86 245 8 q 83 295 83 163 q 87 349 83 317 q 125 491 96 426 q 200 606 154 556 q 312 685 245 656 q 458 713 378 713 q 577 685 530 713 q 647 610 624 656 l 658 696 l 817 696 q 780 480 793 590 l 733 100 q 710 -12 726 40 q 663 -115 694 -64 q 588 -201 632 -165 q 478 -259 545 -237 q 330 -281 412 -281 m 242 301 q 283 170 242 216 q 404 124 323 124 q 494 143 454 124 q 559 195 534 161 q 600 269 585 228 q 621 358 615 309 q 625 408 625 387 q 584 541 625 492 q 467 591 544 591 q 347 551 399 591 q 269 447 296 512 q 242 301 242 381 m 399 793 l 600 1024 l 794 1024 l 535 793 l 399 793 z "},"Ǹ":{"ha":1096,"x_min":71,"x_max":1025,"o":"m 562 1085 l 356 1316 l 551 1316 l 698 1085 l 562 1085 m 71 0 l 192 987 l 358 987 q 493 748 406 901 q 651 467 579 595 q 783 225 722 339 l 877 987 l 1025 987 l 904 0 l 737 0 q 548 333 706 56 q 309 761 390 610 l 216 0 l 71 0 z "},"ǹ":{"ha":837,"x_min":68,"x_max":750,"o":"m 68 0 l 125 459 q 137 581 133 522 q 142 668 142 640 l 143 696 l 302 696 l 291 597 q 399 683 334 653 q 527 713 465 713 q 694 656 638 713 q 750 475 750 599 q 745 390 750 431 l 696 0 l 545 0 l 593 395 q 598 462 598 437 q 571 560 598 529 q 481 591 544 591 q 348 540 416 591 q 273 425 281 490 l 220 0 l 68 0 m 448 793 l 242 1025 l 437 1025 l 584 793 l 448 793 z "},"Ǻ":{"ha":972,"x_min":-48,"x_max":926,"o":"m 644 1211 q 626 1257 644 1238 q 580 1275 608 1275 q 523 1251 548 1275 q 498 1193 498 1227 q 517 1146 498 1165 q 562 1128 535 1128 q 620 1152 595 1128 q 644 1211 644 1176 m 589 1342 q 681 1308 644 1342 q 718 1219 718 1274 q 668 1107 718 1152 q 554 1061 618 1061 q 462 1096 498 1061 q 425 1184 425 1131 q 475 1297 425 1252 q 589 1342 524 1342 m 531 1407 l 731 1637 l 926 1637 l 667 1407 l 531 1407 m -48 0 l 465 987 l 625 987 l 901 0 l 726 0 l 657 253 l 250 253 l 122 0 l -48 0 m 317 391 l 619 391 q 522 813 574 589 q 317 391 431 626 z "},"ǻ":{"ha":870,"x_min":66,"x_max":853,"o":"m 572 919 q 553 965 572 947 q 507 983 535 983 q 451 959 475 983 q 426 901 426 935 q 444 855 426 873 q 490 836 463 836 q 547 860 522 836 q 572 919 572 884 m 516 1050 q 608 1016 572 1050 q 645 928 645 982 q 595 815 645 861 q 481 770 545 770 q 389 804 426 770 q 353 892 353 839 q 402 1005 353 960 q 516 1050 452 1050 m 458 1115 l 659 1345 l 853 1345 l 594 1115 l 458 1115 m 363 -16 q 231 9 289 -16 q 138 77 174 34 q 85 173 103 119 q 66 290 66 227 q 70 343 66 314 q 110 483 79 416 q 189 601 140 549 q 307 683 237 652 q 455 713 376 713 q 575 684 524 713 q 652 605 625 654 l 663 696 l 812 696 l 726 0 l 575 0 l 588 104 q 492 17 550 50 q 363 -16 433 -16 m 629 400 q 586 539 629 488 q 456 591 543 591 q 282 510 345 591 q 220 302 220 429 q 264 160 220 213 q 399 108 309 108 q 569 190 509 108 q 629 400 629 271 z "},"Ǽ":{"ha":1463,"x_min":-46,"x_max":1375,"o":"m 920 1085 l 1120 1316 l 1314 1316 l 1055 1085 l 920 1085 m -46 0 l 654 987 l 1375 987 l 1358 850 l 905 850 l 895 572 l 1315 572 l 1299 439 l 895 439 l 885 137 l 1288 137 l 1272 0 l 710 0 l 720 253 l 317 253 l 142 0 l -46 0 m 393 376 l 724 376 l 748 850 l 722 850 l 393 376 z "},"ǽ":{"ha":1208,"x_min":32,"x_max":1141,"o":"m 884 713 q 1077 635 1013 713 q 1141 426 1141 557 q 1136 353 1141 397 l 1129 322 l 661 322 l 659 307 q 658 285 658 299 q 834 108 658 108 q 903 116 867 108 q 964 134 938 123 q 1013 156 991 145 q 1046 175 1034 167 l 1057 182 l 1086 72 q 1073 62 1082 68 q 1036 41 1065 56 q 978 15 1008 26 q 902 -6 947 3 q 812 -16 857 -16 q 654 22 719 -16 q 562 133 589 59 q 439 22 517 61 q 274 -16 361 -16 q 97 32 162 -16 q 32 168 32 81 q 34 197 32 182 q 65 294 41 253 q 127 360 90 335 q 223 401 165 386 q 346 422 281 416 q 498 427 410 427 l 524 427 q 526 454 526 437 q 489 556 526 518 q 384 593 453 593 q 172 538 295 593 l 141 642 q 176 660 156 650 q 234 682 196 669 q 322 705 271 696 q 427 713 374 713 q 551 679 491 713 q 632 583 611 645 q 744 679 675 644 q 884 713 812 713 m 183 189 q 215 127 183 147 q 298 106 247 106 q 386 125 347 106 q 451 176 426 144 q 491 244 475 208 q 511 322 506 281 l 430 322 q 340 316 381 322 q 262 296 299 310 q 204 254 225 281 q 183 189 183 227 m 1012 446 q 972 557 1012 517 q 872 598 933 598 q 750 550 800 598 q 674 425 699 501 l 1011 425 q 1012 446 1012 431 m 597 793 l 798 1024 l 992 1024 l 733 793 l 597 793 z "},"Ǿ":{"ha":1121,"x_min":66,"x_max":1055,"o":"m 573 1085 l 773 1316 l 968 1316 l 709 1085 l 573 1085 m 235 414 q 317 184 235 260 l 749 843 q 609 872 690 872 q 408 814 494 872 q 279 652 323 755 q 235 414 235 549 m 810 798 l 380 142 q 514 118 436 118 q 765 218 672 118 q 880 497 858 317 q 885 576 885 541 q 810 798 885 722 m 500 -16 q 300 20 389 -16 l 231 -85 l 163 -51 l 233 56 q 109 200 151 110 q 66 409 66 290 q 72 497 66 448 q 163 762 91 648 q 355 941 235 877 q 627 1006 475 1006 q 830 966 742 1006 l 894 1064 l 962 1029 l 896 928 q 1014 784 973 873 q 1055 581 1055 695 q 1049 497 1055 544 q 874 123 1021 262 q 500 -16 728 -16 z "},"ǿ":{"ha":863,"x_min":67,"x_max":821,"o":"m 227 301 q 281 149 227 199 l 532 580 q 463 591 503 591 q 290 509 353 591 q 227 301 227 427 m 637 395 q 591 541 637 490 l 342 116 q 404 108 369 108 q 575 189 513 108 q 637 395 637 271 m 389 -16 q 273 -1 327 -16 l 191 -142 l 128 -113 l 209 26 q 103 134 139 64 q 67 292 67 203 q 71 348 67 316 q 134 534 83 452 q 275 665 185 616 q 479 713 364 713 q 601 697 548 713 l 673 821 l 736 791 l 665 669 q 798 408 798 592 q 793 347 798 378 q 753 206 784 271 q 671 91 722 141 q 548 13 621 41 q 389 -16 475 -16 m 427 793 l 627 1024 l 821 1024 l 562 793 l 427 793 z "},"Ȁ":{"ha":972,"x_min":-48,"x_max":901,"o":"m 388 1085 l 193 1343 l 362 1343 l 498 1085 l 388 1085 m 617 1085 l 450 1343 l 612 1343 l 724 1085 l 617 1085 m -48 0 l 465 987 l 625 987 l 901 0 l 726 0 l 657 253 l 250 253 l 122 0 l -48 0 m 317 391 l 619 391 q 522 813 574 589 q 317 391 431 626 z "},"ȁ":{"ha":870,"x_min":66,"x_max":812,"o":"m 315 793 l 121 1051 l 290 1051 l 425 793 l 315 793 m 545 793 l 378 1051 l 540 1051 l 651 793 l 545 793 m 363 -16 q 231 9 289 -16 q 138 77 174 34 q 85 173 103 119 q 66 290 66 227 q 70 343 66 314 q 110 483 79 416 q 189 601 140 549 q 307 683 237 652 q 455 713 376 713 q 575 684 524 713 q 652 605 625 654 l 663 696 l 812 696 l 726 0 l 575 0 l 588 104 q 492 17 550 50 q 363 -16 433 -16 m 629 400 q 586 539 629 488 q 456 591 543 591 q 282 510 345 591 q 220 302 220 429 q 264 160 220 213 q 399 108 309 108 q 569 190 509 108 q 629 400 629 271 z "},"Ȃ":{"ha":972,"x_min":-48,"x_max":901,"o":"m 359 1087 q 437 1222 377 1176 q 583 1268 496 1268 q 713 1226 665 1268 q 761 1101 761 1184 q 761 1094 761 1099 q 760 1087 760 1089 l 665 1087 q 637 1150 665 1130 q 571 1170 610 1170 q 499 1149 532 1170 q 456 1087 467 1129 l 359 1087 m -48 0 l 465 987 l 625 987 l 901 0 l 726 0 l 657 253 l 250 253 l 122 0 l -48 0 m 317 391 l 619 391 q 522 813 574 589 q 317 391 431 626 z "},"ȃ":{"ha":870,"x_min":66,"x_max":812,"o":"m 286 795 q 363 930 304 884 q 509 977 423 977 q 640 935 592 977 q 688 810 688 892 q 687 802 688 807 q 687 795 687 798 l 592 795 q 564 858 591 838 q 498 878 536 878 q 426 858 458 878 q 383 795 393 838 l 286 795 m 363 -16 q 231 9 289 -16 q 138 77 174 34 q 85 173 103 119 q 66 290 66 227 q 70 343 66 314 q 110 483 79 416 q 189 601 140 549 q 307 683 237 652 q 455 713 376 713 q 575 684 524 713 q 652 605 625 654 l 663 696 l 812 696 l 726 0 l 575 0 l 588 104 q 492 17 550 50 q 363 -16 433 -16 m 629 400 q 586 539 629 488 q 456 591 543 591 q 282 510 345 591 q 220 302 220 429 q 264 160 220 213 q 399 108 309 108 q 569 190 509 108 q 629 400 629 271 z "},"Ȅ":{"ha":828,"x_min":71,"x_max":803,"o":"m 347 1085 l 152 1343 l 321 1343 l 456 1085 l 347 1085 m 576 1085 l 409 1343 l 571 1343 l 682 1085 l 576 1085 m 71 0 l 192 987 l 803 987 l 787 854 l 332 854 l 298 576 l 727 576 l 711 442 l 282 442 l 244 133 l 718 133 l 702 0 l 71 0 z "},"ȅ":{"ha":802,"x_min":67,"x_max":733,"o":"m 311 793 l 116 1051 l 285 1051 l 420 793 l 311 793 m 540 793 l 373 1051 l 535 1051 l 646 793 l 540 793 m 722 323 l 227 323 q 225 293 225 302 q 278 154 225 201 q 422 108 331 108 q 650 184 541 108 l 680 73 q 396 -16 551 -16 q 154 67 241 -16 q 67 290 67 151 q 71 347 67 323 q 112 489 79 422 q 195 606 145 556 q 316 685 245 656 q 465 713 386 713 q 667 635 601 713 q 733 426 733 557 q 722 323 733 360 m 241 426 l 602 426 l 602 430 q 564 552 602 510 q 458 595 526 595 q 324 550 381 595 q 241 426 267 505 z "},"Ȇ":{"ha":828,"x_min":71,"x_max":803,"o":"m 318 1087 q 395 1222 336 1176 q 541 1268 455 1268 q 672 1226 624 1268 q 720 1101 720 1184 q 719 1094 720 1099 q 719 1087 719 1089 l 624 1087 q 596 1150 623 1130 q 530 1170 568 1170 q 458 1149 490 1170 q 415 1087 425 1129 l 318 1087 m 71 0 l 192 987 l 803 987 l 787 854 l 332 854 l 298 576 l 727 576 l 711 442 l 282 442 l 244 133 l 718 133 l 702 0 l 71 0 z "},"ȇ":{"ha":802,"x_min":67,"x_max":733,"o":"m 282 795 q 359 930 300 884 q 505 977 419 977 q 636 935 588 977 q 684 810 684 892 q 683 802 684 807 q 683 795 683 798 l 588 795 q 560 858 587 838 q 494 878 532 878 q 422 858 454 878 q 379 795 389 838 l 282 795 m 722 323 l 227 323 q 225 293 225 302 q 278 154 225 201 q 422 108 331 108 q 650 184 541 108 l 680 73 q 396 -16 551 -16 q 154 67 241 -16 q 67 290 67 151 q 71 347 67 323 q 112 489 79 422 q 195 606 145 556 q 316 685 245 656 q 465 713 386 713 q 667 635 601 713 q 733 426 733 557 q 722 323 733 360 m 241 426 l 602 426 l 602 430 q 564 552 602 510 q 458 595 526 595 q 324 550 381 595 q 241 426 267 505 z "},"Ȉ":{"ha":404,"x_min":-83,"x_max":447,"o":"m 111 1085 l -83 1343 l 85 1343 l 221 1085 l 111 1085 m 340 1085 l 174 1343 l 336 1343 l 447 1085 l 340 1085 m 68 0 l 189 987 l 345 987 l 224 0 l 68 0 z "},"ȉ":{"ha":353,"x_min":-138,"x_max":392,"o":"m 56 793 l -138 1051 l 31 1051 l 166 793 l 56 793 m 286 793 l 119 1051 l 281 1051 l 392 793 l 286 793 m 54 0 l 140 696 l 292 696 l 207 0 l 54 0 z "},"Ȋ":{"ha":404,"x_min":68,"x_max":484,"o":"m 83 1087 q 160 1222 100 1176 q 306 1268 220 1268 q 436 1226 389 1268 q 484 1101 484 1184 q 484 1094 484 1099 q 484 1087 484 1089 l 389 1087 q 360 1150 388 1130 q 294 1170 333 1170 q 222 1149 255 1170 q 180 1087 190 1129 l 83 1087 m 68 0 l 189 987 l 345 987 l 224 0 l 68 0 z "},"ȋ":{"ha":353,"x_min":28,"x_max":429,"o":"m 28 795 q 105 930 45 884 q 251 977 165 977 q 381 935 334 977 q 429 810 429 892 q 429 802 429 807 q 429 795 429 798 l 334 795 q 306 858 333 838 q 239 878 278 878 q 168 858 200 878 q 125 795 135 838 l 28 795 m 54 0 l 140 696 l 292 696 l 207 0 l 54 0 z "},"Ȍ":{"ha":1121,"x_min":66,"x_max":1055,"o":"m 465 1085 l 270 1343 l 439 1343 l 574 1085 l 465 1085 m 694 1085 l 527 1343 l 689 1343 l 800 1085 l 694 1085 m 235 414 q 305 195 235 273 q 514 118 376 118 q 765 218 672 118 q 880 497 858 317 q 885 576 885 541 q 815 793 885 715 q 609 872 746 872 q 408 814 494 872 q 279 652 323 755 q 235 414 235 549 m 500 -16 q 180 98 294 -16 q 66 409 66 211 q 72 497 66 448 q 163 762 91 648 q 355 941 235 877 q 627 1006 475 1006 q 941 890 827 1006 q 1055 581 1055 775 q 1049 497 1055 544 q 874 123 1021 262 q 500 -16 728 -16 z "},"ȍ":{"ha":864,"x_min":67,"x_max":798,"o":"m 318 793 l 123 1051 l 292 1051 l 428 793 l 318 793 m 547 793 l 380 1051 l 543 1051 l 654 793 l 547 793 m 637 395 q 594 537 637 484 q 463 591 550 591 q 290 509 353 591 q 227 301 227 427 q 270 160 227 213 q 404 108 314 108 q 575 189 513 108 q 637 395 637 271 m 389 -16 q 150 70 233 -16 q 67 292 67 155 q 71 348 67 316 q 134 534 83 452 q 275 665 185 616 q 479 713 364 713 q 717 630 636 713 q 798 408 798 547 q 793 347 798 378 q 753 206 784 271 q 671 91 722 141 q 548 13 621 41 q 389 -16 475 -16 z "},"Ȏ":{"ha":1121,"x_min":66,"x_max":1055,"o":"m 436 1087 q 513 1222 454 1176 q 659 1268 573 1268 q 790 1226 742 1268 q 838 1101 838 1184 q 837 1094 838 1099 q 837 1087 837 1089 l 742 1087 q 714 1150 741 1130 q 648 1170 686 1170 q 576 1149 608 1170 q 533 1087 543 1129 l 436 1087 m 235 414 q 305 195 235 273 q 514 118 376 118 q 765 218 672 118 q 880 497 858 317 q 885 576 885 541 q 815 793 885 715 q 609 872 746 872 q 408 814 494 872 q 279 652 323 755 q 235 414 235 549 m 500 -16 q 180 98 294 -16 q 66 409 66 211 q 72 497 66 448 q 163 762 91 648 q 355 941 235 877 q 627 1006 475 1006 q 941 890 827 1006 q 1055 581 1055 775 q 1049 497 1055 544 q 874 123 1021 262 q 500 -16 728 -16 z "},"ȏ":{"ha":864,"x_min":67,"x_max":798,"o":"m 290 795 q 367 930 307 884 q 513 977 427 977 q 643 935 595 977 q 691 810 691 892 q 691 802 691 807 q 690 795 690 798 l 595 795 q 567 858 595 838 q 501 878 540 878 q 429 858 462 878 q 387 795 397 838 l 290 795 m 637 395 q 594 537 637 484 q 463 591 550 591 q 290 509 353 591 q 227 301 227 427 q 270 160 227 213 q 404 108 314 108 q 575 189 513 108 q 637 395 637 271 m 389 -16 q 150 70 233 -16 q 67 292 67 155 q 71 348 67 316 q 134 534 83 452 q 275 665 185 616 q 479 713 364 713 q 717 630 636 713 q 798 408 798 547 q 793 347 798 378 q 753 206 784 271 q 671 91 722 141 q 548 13 621 41 q 389 -16 475 -16 z "},"Ȑ":{"ha":930,"x_min":71,"x_max":842,"o":"m 352 1085 l 157 1343 l 326 1343 l 462 1085 l 352 1085 m 581 1085 l 414 1343 l 576 1343 l 688 1085 l 581 1085 m 71 0 l 192 987 l 528 987 q 628 982 584 987 q 714 962 673 977 q 783 924 755 948 q 826 861 810 900 q 842 770 842 823 q 839 720 842 749 q 773 570 828 633 q 616 485 718 508 q 736 311 698 447 l 823 0 l 654 0 l 578 294 q 529 400 558 373 q 427 427 499 427 l 279 427 l 227 0 l 71 0 m 675 745 q 636 831 675 808 q 513 854 598 854 l 330 854 l 294 559 l 461 559 q 675 745 675 559 z "},"ȑ":{"ha":541,"x_min":20,"x_max":555,"o":"m 214 793 l 20 1051 l 189 1051 l 324 793 l 214 793 m 444 793 l 277 1051 l 439 1051 l 550 793 l 444 793 m 70 0 l 134 522 q 140 594 138 551 q 144 667 143 637 l 144 696 l 306 696 l 294 597 q 486 713 383 713 q 555 703 519 713 l 539 570 q 459 583 500 583 q 334 533 386 583 q 271 391 282 484 l 222 0 l 70 0 z "},"Ȓ":{"ha":930,"x_min":71,"x_max":842,"o":"m 323 1087 q 401 1222 341 1176 q 547 1268 460 1268 q 677 1226 629 1268 q 725 1101 725 1184 q 725 1094 725 1099 q 724 1087 724 1089 l 629 1087 q 601 1150 629 1130 q 535 1170 574 1170 q 463 1149 496 1170 q 420 1087 431 1129 l 323 1087 m 71 0 l 192 987 l 528 987 q 628 982 584 987 q 714 962 673 977 q 783 924 755 948 q 826 861 810 900 q 842 770 842 823 q 839 720 842 749 q 773 570 828 633 q 616 485 718 508 q 736 311 698 447 l 823 0 l 654 0 l 578 294 q 529 400 558 373 q 427 427 499 427 l 279 427 l 227 0 l 71 0 m 675 745 q 636 831 675 808 q 513 854 598 854 l 330 854 l 294 559 l 461 559 q 675 745 675 559 z "},"ȓ":{"ha":541,"x_min":70,"x_max":587,"o":"m 186 795 q 263 930 203 884 q 409 977 323 977 q 539 935 492 977 q 587 810 587 892 q 587 802 587 807 q 587 795 587 798 l 492 795 q 464 858 491 838 q 397 878 436 878 q 326 858 358 878 q 283 795 293 838 l 186 795 m 70 0 l 134 522 q 140 594 138 551 q 144 667 143 637 l 144 696 l 306 696 l 294 597 q 486 713 383 713 q 555 703 519 713 l 539 570 q 459 583 500 583 q 334 533 386 583 q 271 391 282 484 l 222 0 l 70 0 z "},"Ȕ":{"ha":1019,"x_min":96,"x_max":968,"o":"m 409 1085 l 214 1343 l 383 1343 l 519 1085 l 409 1085 m 638 1085 l 471 1343 l 633 1343 l 745 1085 l 638 1085 m 448 -16 q 279 8 349 -16 q 170 76 209 32 q 113 176 130 121 q 96 303 96 232 q 102 395 96 349 l 174 987 l 330 987 l 257 391 q 253 326 253 355 q 308 167 253 216 q 465 118 362 118 q 739 390 705 118 l 812 987 l 968 987 l 896 396 q 868 266 887 325 q 815 153 850 207 q 731 63 780 100 q 610 6 682 27 q 448 -16 538 -16 z "},"ȕ":{"ha":818,"x_min":83,"x_max":755,"o":"m 291 793 l 96 1051 l 265 1051 l 401 793 l 291 793 m 520 793 l 353 1051 l 515 1051 l 627 793 l 520 793 m 321 -16 q 143 45 204 -16 q 83 211 83 106 q 86 259 83 232 l 140 696 l 290 696 l 237 260 q 235 231 235 245 q 269 138 235 169 q 366 108 302 108 q 552 280 530 108 l 603 696 l 755 696 l 692 182 q 676 0 686 133 l 520 0 l 530 106 q 504 68 520 87 q 462 29 487 49 q 400 -3 437 9 q 321 -16 363 -16 z "},"Ȗ":{"ha":1019,"x_min":96,"x_max":968,"o":"m 380 1087 q 458 1222 398 1176 q 604 1268 517 1268 q 734 1226 686 1268 q 782 1101 782 1184 q 782 1094 782 1099 q 781 1087 781 1089 l 686 1087 q 658 1150 686 1130 q 592 1170 631 1170 q 520 1149 553 1170 q 477 1087 488 1129 l 380 1087 m 448 -16 q 279 8 349 -16 q 170 76 209 32 q 113 176 130 121 q 96 303 96 232 q 102 395 96 349 l 174 987 l 330 987 l 257 391 q 253 326 253 355 q 308 167 253 216 q 465 118 362 118 q 739 390 705 118 l 812 987 l 968 987 l 896 396 q 868 266 887 325 q 815 153 850 207 q 731 63 780 100 q 610 6 682 27 q 448 -16 538 -16 z "},"ȗ":{"ha":818,"x_min":83,"x_max":755,"o":"m 262 795 q 339 930 279 884 q 485 977 399 977 q 615 935 568 977 q 663 810 663 892 q 663 802 663 807 q 663 795 663 798 l 568 795 q 539 858 567 838 q 473 878 512 878 q 401 858 434 878 q 359 795 369 838 l 262 795 m 321 -16 q 143 45 204 -16 q 83 211 83 106 q 86 259 83 232 l 140 696 l 290 696 l 237 260 q 235 231 235 245 q 269 138 235 169 q 366 108 302 108 q 552 280 530 108 l 603 696 l 755 696 l 692 182 q 676 0 686 133 l 520 0 l 530 106 q 504 68 520 87 q 462 29 487 49 q 400 -3 437 9 q 321 -16 363 -16 z "},"Ș":{"ha":844,"x_min":33,"x_max":799,"o":"m 163 -428 l 279 -94 l 450 -94 l 290 -428 l 163 -428 m 573 294 q 543 367 573 338 q 426 427 512 396 q 382 442 412 432 q 341 456 352 452 q 169 549 223 496 q 114 694 114 603 q 143 831 114 771 q 224 929 173 892 q 342 986 275 967 q 485 1006 408 1006 q 681 978 611 1006 q 799 896 751 949 l 707 791 q 612 852 670 831 q 490 872 555 872 q 338 834 395 872 q 281 715 281 796 q 310 646 281 672 q 420 591 338 620 q 509 561 490 568 q 687 462 635 517 q 739 317 739 407 q 719 191 739 248 q 662 97 698 135 q 577 33 626 59 q 472 -4 528 7 q 356 -16 417 -16 q 162 18 251 -16 q 33 97 73 52 l 115 210 q 226 146 154 174 q 364 118 298 118 q 573 294 573 118 z "},"ș":{"ha":670,"x_min":46,"x_max":618,"o":"m 104 -428 l 220 -94 l 391 -94 l 231 -428 l 104 -428 m 450 207 q 426 251 450 234 q 330 294 401 269 l 267 316 q 201 343 227 330 q 151 375 176 355 q 115 421 127 394 q 104 484 104 448 q 128 589 104 543 q 193 660 152 634 q 281 699 233 686 q 383 712 330 712 q 515 694 454 712 q 618 648 576 677 l 565 542 q 480 576 530 561 q 383 592 429 592 q 254 508 254 592 q 274 467 254 482 q 359 429 295 452 q 424 406 364 427 q 493 377 467 390 q 545 343 519 363 q 581 295 570 323 q 593 229 593 267 q 568 115 593 164 q 501 38 543 66 q 412 -2 459 11 q 315 -16 365 -16 q 153 11 223 -16 q 46 71 83 37 l 99 182 q 197 128 136 151 q 317 106 257 106 q 450 207 450 106 z "},"Ț":{"ha":791,"x_min":52,"x_max":844,"o":"m 129 -428 l 245 -94 l 416 -94 l 256 -428 l 129 -428 m 256 0 l 360 854 l 52 854 l 68 987 l 844 987 l 828 854 l 516 854 l 412 0 l 256 0 z "},"ț":{"ha":556,"x_min":33,"x_max":525,"o":"m 77 -428 l 194 -94 l 365 -94 l 205 -428 l 77 -428 m 442 1 l 377 1 q 267 8 311 1 q 190 35 224 16 q 140 91 155 54 q 124 184 124 128 q 128 250 124 214 l 171 594 l 33 594 l 45 696 l 188 696 l 209 865 l 361 909 l 335 696 l 525 696 l 512 594 l 322 594 l 279 241 q 277 202 277 222 q 313 133 277 148 q 456 117 349 117 l 442 1 z "},"Ȟ":{"ha":1061,"x_min":71,"x_max":990,"o":"m 529 1078 l 379 1328 l 524 1328 l 603 1196 l 715 1328 l 866 1328 l 655 1078 l 529 1078 m 71 0 l 192 987 l 348 987 l 297 573 l 783 573 l 834 987 l 990 987 l 869 0 l 715 0 l 769 440 l 283 440 l 229 0 l 71 0 z "},"ȟ":{"ha":832,"x_min":42,"x_max":804,"o":"m 42 0 l 164 996 l 316 996 l 267 599 q 369 682 302 650 q 500 713 437 713 q 593 699 553 713 q 658 662 633 685 q 699 606 683 639 q 722 539 715 573 q 728 466 728 505 q 724 399 728 432 l 675 0 l 523 0 l 572 402 q 576 460 576 433 q 548 559 576 528 q 462 591 519 591 q 320 539 387 591 q 245 420 254 488 l 194 0 l 42 0 m 467 786 l 317 1036 l 463 1036 l 541 904 l 654 1036 l 804 1036 l 593 786 l 467 786 z "},"Ȧ":{"ha":972,"x_min":-48,"x_max":901,"o":"m 490 1119 l 507 1261 l 657 1261 l 640 1119 l 490 1119 m -48 0 l 465 987 l 625 987 l 901 0 l 726 0 l 657 253 l 250 253 l 122 0 l -48 0 m 317 391 l 619 391 q 522 813 574 589 q 317 391 431 626 z "},"ȧ":{"ha":870,"x_min":66,"x_max":812,"o":"m 416 827 l 433 970 l 584 970 l 567 827 l 416 827 m 363 -16 q 231 9 289 -16 q 138 77 174 34 q 85 173 103 119 q 66 290 66 227 q 70 343 66 314 q 110 483 79 416 q 189 601 140 549 q 307 683 237 652 q 455 713 376 713 q 575 684 524 713 q 652 605 625 654 l 663 696 l 812 696 l 726 0 l 575 0 l 588 104 q 492 17 550 50 q 363 -16 433 -16 m 629 400 q 586 539 629 488 q 456 591 543 591 q 282 510 345 591 q 220 302 220 429 q 264 160 220 213 q 399 108 309 108 q 569 190 509 108 q 629 400 629 271 z "},"Ȩ":{"ha":828,"x_min":71,"x_max":803,"o":"m 429 -168 q 331 -113 429 -119 l 313 -111 l 350 16 l 427 16 l 404 -66 q 517 -101 479 -73 q 554 -173 554 -130 q 526 -255 554 -220 q 453 -307 497 -290 q 357 -323 409 -323 q 222 -293 281 -323 l 241 -205 q 346 -226 290 -226 q 406 -212 382 -226 q 429 -168 429 -198 m 71 0 l 192 987 l 803 987 l 787 854 l 332 854 l 298 576 l 727 576 l 711 442 l 282 442 l 244 133 l 718 133 l 702 0 l 71 0 z "},"ȩ":{"ha":802,"x_min":67,"x_max":733,"o":"m 722 323 l 227 323 q 225 293 225 302 q 278 154 225 201 q 422 108 331 108 q 650 184 541 108 l 680 73 q 396 -16 551 -16 q 154 67 241 -16 q 67 290 67 151 q 71 347 67 323 q 112 489 79 422 q 195 606 145 556 q 316 685 245 656 q 465 713 386 713 q 667 635 601 713 q 733 426 733 557 q 722 323 733 360 m 241 426 l 602 426 l 602 430 q 564 552 602 510 q 458 595 526 595 q 324 550 381 595 q 241 426 267 505 m 439 -168 q 341 -113 439 -119 l 323 -111 l 360 16 l 437 16 l 414 -66 q 527 -101 490 -73 q 564 -173 564 -130 q 536 -255 564 -220 q 463 -307 507 -290 q 367 -323 419 -323 q 232 -293 292 -323 l 251 -205 q 356 -226 300 -226 q 416 -212 393 -226 q 439 -168 439 -198 z "},"Ȯ":{"ha":1121,"x_min":66,"x_max":1055,"o":"m 566 1119 l 583 1261 l 734 1261 l 717 1119 l 566 1119 m 235 414 q 305 195 235 273 q 514 118 376 118 q 765 218 672 118 q 880 497 858 317 q 885 576 885 541 q 815 793 885 715 q 609 872 746 872 q 408 814 494 872 q 279 652 323 755 q 235 414 235 549 m 500 -16 q 180 98 294 -16 q 66 409 66 211 q 72 497 66 448 q 163 762 91 648 q 355 941 235 877 q 627 1006 475 1006 q 941 890 827 1006 q 1055 581 1055 775 q 1049 497 1055 544 q 874 123 1021 262 q 500 -16 728 -16 z "},"ȯ":{"ha":864,"x_min":67,"x_max":798,"o":"m 637 395 q 594 537 637 484 q 463 591 550 591 q 290 509 353 591 q 227 301 227 427 q 270 160 227 213 q 404 108 314 108 q 575 189 513 108 q 637 395 637 271 m 389 -16 q 150 70 233 -16 q 67 292 67 155 q 71 348 67 316 q 134 534 83 452 q 275 665 185 616 q 479 713 364 713 q 717 630 636 713 q 798 408 798 547 q 793 347 798 378 q 753 206 784 271 q 671 91 722 141 q 548 13 621 41 q 389 -16 475 -16 m 420 827 l 437 970 l 587 970 l 570 827 l 420 827 z "},"Ȳ":{"ha":852,"x_min":59,"x_max":918,"o":"m 311 1107 l 322 1205 l 735 1205 l 724 1107 l 311 1107 m 285 0 l 332 385 l 59 987 l 235 987 l 430 523 l 739 987 l 918 987 l 488 387 l 441 0 l 285 0 z "},"ȳ":{"ha":745,"x_min":48,"x_max":787,"o":"m 99 -299 l 48 -196 q 199 -119 145 -161 q 277 -21 253 -77 l 291 13 l 84 696 l 241 696 l 385 175 l 633 696 l 787 696 l 414 -38 q 280 -206 362 -140 q 99 -299 197 -271 m 258 815 l 270 913 l 683 913 l 671 815 l 258 815 z "},"ȷ":{"ha":369,"x_min":-126,"x_max":331,"o":"m -22 -267 q -126 -254 -58 -267 l -104 -141 q -27 -152 -56 -152 q 58 -113 27 -152 q 101 22 90 -73 l 184 696 l 331 696 l 250 37 q 234 -55 244 -14 q 204 -137 224 -96 q 155 -205 184 -178 q 82 -250 127 -233 q -22 -267 37 -267 z "},"ʼ":{"ha":407,"x_min":1,"x_max":285,"o":"m 1 828 l 109 1224 l 285 1224 l 113 828 l 1 828 z "},"ˆ":{"ha":474,"x_min":-21,"x_max":465,"o":"m -21 786 l 178 1036 l 324 1036 l 465 786 l 327 786 l 237 919 l 112 786 l -21 786 z "},"ˇ":{"ha":474,"x_min":9,"x_max":496,"o":"m 159 786 l 9 1036 l 155 1036 l 233 904 l 346 1036 l 496 1036 l 286 786 l 159 786 z "},"˘":{"ha":453,"x_min":32,"x_max":444,"o":"m 216 796 q 32 968 32 796 q 33 987 32 981 l 140 987 l 140 980 q 163 920 140 937 q 229 903 187 903 q 300 921 273 903 q 338 987 328 939 l 444 987 q 368 842 425 888 q 216 796 311 796 z "},"˙":{"ha":355,"x_min":91,"x_max":258,"o":"m 91 827 l 108 970 l 258 970 l 241 827 l 91 827 z "},"˚":{"ha":456,"x_min":79,"x_max":371,"o":"m 298 919 q 279 965 298 947 q 233 983 261 983 q 177 959 201 983 q 152 901 152 935 q 170 855 152 873 q 216 836 189 836 q 273 860 248 836 q 298 919 298 884 m 242 1050 q 334 1016 298 1050 q 371 928 371 982 q 321 815 371 861 q 208 770 271 770 q 115 804 152 770 q 79 892 79 839 q 128 1005 79 960 q 242 1050 178 1050 z "},"˛":{"ha":345,"x_min":15,"x_max":319,"o":"m 197 13 l 279 12 q 190 -61 227 -18 q 153 -138 153 -103 q 209 -174 153 -174 q 319 -153 240 -174 l 309 -241 q 155 -266 224 -266 q 53 -244 92 -266 q 15 -178 15 -222 q 28 -122 15 -149 q 60 -75 42 -94 q 107 -37 79 -56 q 154 -8 135 -18 q 197 13 172 1 z "},"˜":{"ha":482,"x_min":-10,"x_max":493,"o":"m 144 862 q 110 845 125 862 q 87 794 95 829 l -10 794 q 44 927 0 876 q 151 978 89 978 q 223 960 186 978 q 292 925 260 943 q 343 907 323 907 q 375 923 363 907 q 393 978 387 939 l 493 978 q 439 839 482 887 q 330 791 395 791 q 230 826 296 791 q 144 862 164 862 z "},"˝":{"ha":657,"x_min":30,"x_max":625,"o":"m 30 772 l 201 1024 l 370 1024 l 139 772 l 30 772 m 251 772 l 447 1024 l 625 1024 l 365 772 l 251 772 z "},"̇":{"ha":355,"x_min":96,"x_max":259,"o":"m 96 828 l 113 967 l 259 967 l 243 828 l 96 828 z "},"̏":{"ha":657,"x_min":37,"x_max":568,"o":"m 232 793 l 37 1051 l 206 1051 l 342 793 l 232 793 m 461 793 l 294 1051 l 456 1051 l 568 793 l 461 793 z "},"̑":{"ha":427,"x_min":1,"x_max":403,"o":"m 1 795 q 79 930 19 884 q 224 977 138 977 q 355 935 307 977 q 403 810 403 892 q 402 802 403 807 q 402 795 402 798 l 307 795 q 279 858 307 838 q 213 878 252 878 q 141 858 174 878 q 98 795 109 838 l 1 795 z "},"̒":{"ha":407,"x_min":102,"x_max":390,"o":"m 390 1156 l 273 816 l 102 816 l 262 1156 l 390 1156 z "},"̦":{"ha":366,"x_min":39,"x_max":327,"o":"m 39 -428 l 156 -94 l 327 -94 l 167 -428 l 39 -428 z "},"Δ":{"ha":943,"x_min":-19,"x_max":852,"o":"m -19 0 l -7 100 l 460 987 l 610 987 l 852 104 l 840 0 l -19 0 m 158 124 l 676 124 l 501 810 l 158 124 z "},"Ω":{"ha":1087,"x_min":-6,"x_max":1019,"o":"m 602 1004 q 905 897 791 1004 q 1019 614 1019 790 q 1015 548 1019 582 q 934 306 998 416 q 769 122 870 196 l 977 123 l 949 0 l 556 0 l 569 106 q 756 286 679 173 q 849 530 833 399 q 852 587 852 562 q 844 671 852 631 q 817 749 836 711 q 767 814 797 787 q 690 858 736 842 q 585 875 644 875 q 465 854 520 875 q 370 800 409 834 q 300 721 330 766 q 254 628 271 676 q 231 530 237 581 q 228 469 228 505 q 276 260 228 356 q 406 106 324 163 l 393 0 l -6 0 l -6 123 l 209 122 q 66 469 66 250 q 109 692 66 590 q 223 861 151 793 q 393 967 296 929 q 602 1004 491 1004 z "},"μ":{"ha":816,"x_min":41,"x_max":762,"o":"m 195 -163 l 41 -163 l 147 696 l 297 696 l 248 286 q 245 241 245 264 q 369 107 245 107 q 559 284 538 107 l 610 696 l 762 696 l 699 178 q 685 0 688 92 l 528 0 l 538 105 q 452 18 509 51 q 330 -16 396 -16 q 217 14 258 -16 l 195 -163 z "},"π":{"ha":873,"x_min":68,"x_max":867,"o":"m 75 0 q 240 583 168 130 q 68 542 124 581 l 71 653 q 268 696 127 696 l 867 696 l 853 583 l 715 583 l 669 208 q 667 172 667 185 q 723 110 667 110 q 785 119 747 110 l 770 -1 q 671 -11 720 -11 q 522 138 522 -11 q 525 183 522 161 l 574 583 l 378 583 q 370 531 376 564 q 347 411 364 498 q 313 251 330 323 q 272 104 296 178 q 227 0 248 31 l 75 0 z "},"Ḃ":{"ha":923,"x_min":71,"x_max":833,"o":"m 441 1119 l 458 1261 l 609 1261 l 592 1119 l 441 1119 m 71 0 l 192 987 l 456 987 q 529 986 496 987 q 602 980 561 985 q 674 966 643 975 q 736 942 705 958 q 788 904 768 926 q 821 851 808 883 q 833 779 833 819 q 831 741 833 767 q 780 613 822 669 q 660 528 738 557 q 782 455 740 509 q 823 321 823 400 q 821 283 823 310 q 785 176 814 226 q 709 86 757 125 q 588 23 661 46 q 427 0 515 0 l 71 0 m 657 323 q 608 421 657 394 q 444 449 559 449 l 283 449 l 244 134 l 416 134 q 657 323 657 134 m 665 743 q 613 831 665 808 q 456 854 562 854 l 332 854 l 298 578 l 449 578 q 527 586 491 578 q 595 611 564 593 q 646 663 627 629 q 665 743 665 696 z "},"ḃ":{"ha":870,"x_min":42,"x_max":787,"o":"m 465 827 l 481 970 l 632 970 l 615 827 l 465 827 m 416 -16 q 285 18 340 -16 q 209 98 229 51 l 197 0 l 42 0 q 70 184 64 139 l 170 996 l 321 996 l 271 591 q 300 629 281 610 q 348 668 319 648 q 420 701 377 688 q 511 713 463 713 q 714 633 641 713 q 787 419 787 553 q 756 242 787 325 q 674 104 725 160 q 555 16 623 48 q 416 -16 488 -16 m 626 399 q 585 538 626 486 q 467 591 545 591 q 298 509 364 591 q 231 305 231 427 q 276 162 231 217 q 406 108 321 108 q 567 191 507 108 q 626 399 626 275 z "},"Ḋ":{"ha":1055,"x_min":71,"x_max":989,"o":"m 484 1119 l 501 1261 l 652 1261 l 635 1119 l 484 1119 m 243 133 l 393 133 q 688 228 579 133 q 818 498 796 322 q 823 566 823 539 q 730 783 823 711 q 446 854 637 854 l 332 854 l 243 133 m 71 0 l 192 987 l 447 987 q 851 886 714 987 q 989 581 989 784 q 983 497 989 544 q 795 129 954 257 q 368 0 637 0 l 71 0 z "},"ḋ":{"ha":859,"x_min":49,"x_max":815,"o":"m 346 827 l 363 970 l 513 970 l 496 827 l 346 827 m 328 -16 q 126 66 203 -16 q 49 285 49 147 q 53 345 49 313 q 113 531 66 448 q 241 663 159 613 q 427 713 323 713 q 551 682 502 713 q 616 612 601 650 l 664 996 l 815 996 l 715 183 q 699 0 713 166 l 544 0 l 554 100 q 472 20 531 56 q 328 -16 413 -16 m 591 399 q 551 538 591 486 q 430 591 510 591 q 269 508 329 591 q 209 300 209 425 q 249 160 209 213 q 370 108 289 108 q 532 191 473 108 q 591 399 591 274 z "},"Ḟ":{"ha":768,"x_min":71,"x_max":781,"o":"m 439 1119 l 456 1261 l 607 1261 l 590 1119 l 439 1119 m 71 0 l 192 987 l 781 987 l 766 854 l 332 854 l 297 574 l 704 574 l 688 441 l 281 441 l 227 0 l 71 0 z "},"ḟ":{"ha":532,"x_min":58,"x_max":554,"o":"m 113 0 l 185 594 l 58 594 l 71 696 l 198 696 l 203 732 q 212 799 208 772 q 225 855 217 827 q 245 903 234 884 q 273 940 256 922 q 312 969 290 958 q 364 989 334 981 q 433 1002 394 998 q 519 1006 471 1006 l 554 1006 l 535 888 q 471 886 496 888 q 426 878 446 884 q 395 862 406 871 q 375 834 384 853 q 363 794 367 815 q 355 739 359 774 l 349 696 l 510 696 l 497 594 l 337 594 l 264 0 l 113 0 m 257 1119 l 274 1261 l 425 1261 l 408 1119 l 257 1119 z "},"Ṁ":{"ha":1330,"x_min":71,"x_max":1259,"o":"m 669 1119 l 686 1261 l 837 1261 l 820 1119 l 669 1119 m 71 0 l 192 987 l 378 987 q 504 594 420 856 q 631 201 589 332 q 880 644 717 355 q 1074 987 1043 932 l 1259 987 l 1138 0 l 991 0 l 1081 732 q 840 313 997 589 q 663 0 684 37 l 548 0 q 435 346 516 98 q 311 728 355 593 l 221 0 l 71 0 z "},"ṁ":{"ha":1257,"x_min":68,"x_max":1173,"o":"m 68 0 l 128 484 q 137 569 134 530 q 141 646 140 608 q 144 696 143 684 l 303 696 l 291 597 q 385 681 323 649 q 511 713 446 713 q 632 678 581 713 q 703 576 683 643 q 815 677 751 640 q 956 713 880 713 q 1118 654 1064 713 q 1173 488 1173 595 q 1168 427 1173 458 l 1116 0 l 964 0 l 1015 415 q 1018 463 1018 437 q 926 591 1018 591 q 789 531 850 591 q 718 395 728 472 l 669 0 l 517 0 l 570 427 q 573 467 573 452 q 550 556 573 522 q 472 591 526 591 q 339 538 397 591 q 273 418 281 486 l 220 0 l 68 0 m 651 827 l 668 970 l 819 970 l 802 827 l 651 827 z "},"Ṗ":{"ha":870,"x_min":71,"x_max":854,"o":"m 449 1119 l 466 1261 l 616 1261 l 600 1119 l 449 1119 m 71 0 l 192 987 l 473 987 q 562 985 524 987 q 642 978 601 983 q 714 962 684 972 q 771 935 744 952 q 816 895 799 918 q 844 838 833 871 q 854 763 854 805 q 850 710 854 742 q 809 578 841 633 q 722 493 777 524 q 600 448 668 462 q 443 434 532 434 l 279 434 l 227 0 l 71 0 m 690 738 q 679 791 690 770 q 651 825 668 813 q 602 844 634 838 q 541 852 570 850 q 463 854 511 854 l 332 854 l 296 568 l 457 568 q 553 575 513 568 q 626 601 593 583 q 674 653 658 619 q 690 738 690 687 z "},"ṗ":{"ha":859,"x_min":52,"x_max":809,"o":"m 52 -275 l 144 477 q 161 696 152 541 l 321 696 l 308 588 q 394 674 327 634 q 543 713 461 713 q 739 630 668 713 q 809 415 809 547 q 806 356 809 381 q 747 172 793 256 q 621 36 700 88 q 448 -16 543 -16 q 311 23 367 -16 q 248 101 255 61 l 202 -275 l 52 -275 m 650 401 q 610 539 650 488 q 491 591 570 591 q 329 507 389 591 q 269 296 269 422 q 310 159 269 211 q 431 108 351 108 q 592 192 534 108 q 650 401 650 276 m 461 827 l 478 970 l 629 970 l 612 827 l 461 827 z "},"Ṡ":{"ha":844,"x_min":33,"x_max":799,"o":"m 423 1119 l 440 1261 l 591 1261 l 574 1119 l 423 1119 m 573 294 q 543 367 573 338 q 426 427 512 396 q 382 442 412 432 q 341 456 352 452 q 169 549 223 496 q 114 694 114 603 q 143 831 114 771 q 224 929 173 892 q 342 986 275 967 q 485 1006 408 1006 q 681 978 611 1006 q 799 896 751 949 l 707 791 q 612 852 670 831 q 490 872 555 872 q 338 834 395 872 q 281 715 281 796 q 310 646 281 672 q 420 591 338 620 q 509 561 490 568 q 687 462 635 517 q 739 317 739 407 q 719 191 739 248 q 662 97 698 135 q 577 33 626 59 q 472 -4 528 7 q 356 -16 417 -16 q 162 18 251 -16 q 33 97 73 52 l 115 210 q 226 146 154 174 q 364 118 298 118 q 573 294 573 118 z "},"ṡ":{"ha":670,"x_min":46,"x_max":618,"o":"m 450 207 q 426 251 450 234 q 330 294 401 269 l 267 316 q 201 343 227 330 q 151 375 176 355 q 115 421 127 394 q 104 484 104 448 q 128 589 104 543 q 193 660 152 634 q 281 699 233 686 q 383 712 330 712 q 515 694 454 712 q 618 648 576 677 l 565 542 q 480 576 530 561 q 383 592 429 592 q 254 508 254 592 q 274 467 254 482 q 359 429 295 452 q 424 406 364 427 q 493 377 467 390 q 545 343 519 363 q 581 295 570 323 q 593 229 593 267 q 568 115 593 164 q 501 38 543 66 q 412 -2 459 11 q 315 -16 365 -16 q 153 11 223 -16 q 46 71 83 37 l 99 182 q 197 128 136 151 q 317 106 257 106 q 450 207 450 106 m 321 827 l 338 970 l 489 970 l 472 827 l 321 827 z "},"Ṫ":{"ha":791,"x_min":52,"x_max":844,"o":"m 401 1119 l 418 1261 l 569 1261 l 552 1119 l 401 1119 m 256 0 l 360 854 l 52 854 l 68 987 l 844 987 l 828 854 l 516 854 l 412 0 l 256 0 z "},"ṫ":{"ha":556,"x_min":33,"x_max":525,"o":"m 442 1 l 377 1 q 267 8 311 1 q 190 35 224 16 q 140 91 155 54 q 124 184 124 128 q 128 250 124 214 l 171 594 l 33 594 l 45 696 l 188 696 l 209 865 l 361 909 l 335 696 l 525 696 l 512 594 l 322 594 l 279 241 q 277 202 277 222 q 313 133 277 148 q 456 117 349 117 l 442 1 m 232 1027 l 249 1169 l 399 1169 l 382 1027 l 232 1027 z "},"Ẁ":{"ha":1392,"x_min":71,"x_max":1441,"o":"m 705 1085 l 499 1316 l 694 1316 l 841 1085 l 705 1085 m 227 0 l 71 987 l 238 987 q 273 737 249 905 q 314 438 296 570 q 345 184 331 306 q 450 439 393 306 q 577 736 506 572 q 685 987 648 901 l 837 987 q 884 738 851 909 q 941 436 917 566 q 984 182 964 305 q 1152 643 1040 342 q 1280 987 1263 943 l 1441 987 l 1050 0 l 869 0 l 730 774 l 406 0 l 227 0 z "},"ẁ":{"ha":1132,"x_min":58,"x_max":1160,"o":"m 216 0 l 58 696 l 219 696 q 317 184 284 354 q 553 696 359 276 l 690 696 q 791 182 786 211 q 913 459 835 279 q 1017 696 991 639 l 1160 696 l 823 0 l 692 0 q 587 500 601 431 q 348 0 507 334 l 216 0 m 568 793 l 362 1025 l 557 1025 l 704 793 l 568 793 z "},"Ẃ":{"ha":1392,"x_min":71,"x_max":1441,"o":"m 709 1085 l 909 1316 l 1103 1316 l 844 1085 l 709 1085 m 227 0 l 71 987 l 238 987 q 273 737 249 905 q 314 438 296 570 q 345 184 331 306 q 450 439 393 306 q 577 736 506 572 q 685 987 648 901 l 837 987 q 884 738 851 909 q 941 436 917 566 q 984 182 964 305 q 1152 643 1040 342 q 1280 987 1263 943 l 1441 987 l 1050 0 l 869 0 l 730 774 l 406 0 l 227 0 z "},"ẃ":{"ha":1132,"x_min":58,"x_max":1160,"o":"m 216 0 l 58 696 l 219 696 q 317 184 284 354 q 553 696 359 276 l 690 696 q 791 182 786 211 q 913 459 835 279 q 1017 696 991 639 l 1160 696 l 823 0 l 692 0 q 587 500 601 431 q 348 0 507 334 l 216 0 m 572 793 l 772 1024 l 967 1024 l 708 793 l 572 793 z "},"Ẅ":{"ha":1392,"x_min":71,"x_max":1441,"o":"m 545 1082 l 564 1227 l 716 1227 l 698 1082 l 545 1082 m 841 1082 l 859 1227 l 1011 1227 l 993 1082 l 841 1082 m 227 0 l 71 987 l 238 987 q 273 737 249 905 q 314 438 296 570 q 345 184 331 306 q 450 439 393 306 q 577 736 506 572 q 685 987 648 901 l 837 987 q 884 738 851 909 q 941 436 917 566 q 984 182 964 305 q 1152 643 1040 342 q 1280 987 1263 943 l 1441 987 l 1050 0 l 869 0 l 730 774 l 406 0 l 227 0 z "},"ẅ":{"ha":1132,"x_min":58,"x_max":1160,"o":"m 216 0 l 58 696 l 219 696 q 317 184 284 354 q 553 696 359 276 l 690 696 q 791 182 786 211 q 913 459 835 279 q 1017 696 991 639 l 1160 696 l 823 0 l 692 0 q 587 500 601 431 q 348 0 507 334 l 216 0 m 409 790 l 427 936 l 580 936 l 562 790 l 409 790 m 705 790 l 723 936 l 875 936 l 857 790 l 705 790 z "},"Ẽ":{"ha":828,"x_min":71,"x_max":803,"o":"m 409 1154 q 375 1137 391 1154 q 353 1086 360 1120 l 255 1086 q 310 1219 265 1168 q 416 1270 354 1270 q 488 1252 451 1270 q 557 1217 526 1234 q 608 1199 588 1199 q 640 1215 628 1199 q 659 1270 652 1230 l 758 1270 q 704 1131 747 1179 q 595 1082 661 1082 q 495 1118 561 1082 q 409 1154 429 1154 m 71 0 l 192 987 l 803 987 l 787 854 l 332 854 l 298 576 l 727 576 l 711 442 l 282 442 l 244 133 l 718 133 l 702 0 l 71 0 z "},"ẽ":{"ha":802,"x_min":67,"x_max":733,"o":"m 372 862 q 339 845 354 862 q 316 794 323 829 l 218 794 q 273 927 229 876 q 380 978 317 978 q 452 960 414 978 q 520 925 489 943 q 572 907 551 907 q 604 923 591 907 q 622 978 616 939 l 722 978 q 667 839 711 887 q 558 791 624 791 q 458 826 524 791 q 372 862 393 862 m 722 323 l 227 323 q 225 293 225 302 q 278 154 225 201 q 422 108 331 108 q 650 184 541 108 l 680 73 q 396 -16 551 -16 q 154 67 241 -16 q 67 290 67 151 q 71 347 67 323 q 112 489 79 422 q 195 606 145 556 q 316 685 245 656 q 465 713 386 713 q 667 635 601 713 q 733 426 733 557 q 722 323 733 360 m 241 426 l 602 426 l 602 430 q 564 552 602 510 q 458 595 526 595 q 324 550 381 595 q 241 426 267 505 z "},"Ỳ":{"ha":852,"x_min":59,"x_max":918,"o":"m 448 1085 l 241 1316 l 437 1316 l 583 1085 l 448 1085 m 285 0 l 332 385 l 59 987 l 235 987 l 430 523 l 739 987 l 918 987 l 488 387 l 441 0 l 285 0 z "},"ỳ":{"ha":745,"x_min":48,"x_max":787,"o":"m 99 -299 l 48 -196 q 199 -119 145 -161 q 277 -21 253 -77 l 291 13 l 84 696 l 241 696 l 385 175 l 633 696 l 787 696 l 414 -38 q 280 -206 362 -140 q 99 -299 197 -271 m 395 793 l 189 1025 l 385 1025 l 531 793 l 395 793 z "},"Ỹ":{"ha":852,"x_min":59,"x_max":918,"o":"m 405 1154 q 371 1137 387 1154 q 349 1086 356 1120 l 251 1086 q 306 1219 261 1168 q 412 1270 350 1270 q 484 1252 447 1270 q 553 1217 522 1234 q 604 1199 584 1199 q 636 1215 624 1199 q 654 1270 648 1230 l 754 1270 q 700 1131 743 1179 q 591 1082 656 1082 q 491 1118 557 1082 q 405 1154 425 1154 m 285 0 l 332 385 l 59 987 l 235 987 l 430 523 l 739 987 l 918 987 l 488 387 l 441 0 l 285 0 z "},"ỹ":{"ha":745,"x_min":48,"x_max":787,"o":"m 99 -299 l 48 -196 q 199 -119 145 -161 q 277 -21 253 -77 l 291 13 l 84 696 l 241 696 l 385 175 l 633 696 l 787 696 l 414 -38 q 280 -206 362 -140 q 99 -299 197 -271 m 353 862 q 319 845 334 862 q 296 794 304 829 l 199 794 q 253 927 209 876 q 360 978 298 978 q 432 960 395 978 q 500 925 469 943 q 552 907 532 907 q 584 923 572 907 q 602 978 596 939 l 702 978 q 648 839 691 887 q 538 791 604 791 q 439 826 505 791 q 353 862 373 862 z "},"–":{"ha":743,"x_min":-9,"x_max":753,"o":"m -9 317 l 6 439 l 753 439 l 737 317 l -9 317 z "},"—":{"ha":1472,"x_min":13,"x_max":1459,"o":"m 13 314 l 28 439 l 1459 439 l 1444 314 l 13 314 z "},"―":{"ha":2778,"x_min":32,"x_max":2746,"o":"m 32 314 l 46 432 l 2746 432 l 2732 314 l 32 314 z "},"‘":{"ha":374,"x_min":113,"x_max":292,"o":"m 174 591 l 113 987 l 292 987 l 271 591 l 174 591 z "},"’":{"ha":402,"x_min":54,"x_max":338,"o":"m 54 591 l 161 987 l 338 987 l 165 591 l 54 591 z "},"‚":{"ha":444,"x_min":78,"x_max":366,"o":"m 78 -218 l 201 165 l 366 165 l 209 -218 l 78 -218 z "},"“":{"ha":694,"x_min":73,"x_max":657,"o":"m 73 591 l 245 987 l 372 987 l 247 591 l 73 591 m 365 591 l 530 987 l 657 987 l 533 591 l 365 591 z "},"”":{"ha":694,"x_min":102,"x_max":656,"o":"m 102 591 l 224 987 l 392 987 l 231 591 l 102 591 m 366 591 l 490 987 l 656 987 l 496 591 l 366 591 z "},"„":{"ha":694,"x_min":58,"x_max":601,"o":"m 58 -153 l 170 165 l 338 165 l 191 -153 l 58 -153 m 321 -153 l 434 165 l 601 165 l 451 -153 l 321 -153 z "},"†":{"ha":693,"x_min":72,"x_max":656,"o":"m 225 43 l 293 595 l 72 595 l 86 711 l 307 711 l 339 974 l 463 974 l 431 711 l 656 711 l 642 595 l 414 595 l 347 43 l 225 43 z "},"‡":{"ha":773,"x_min":65,"x_max":710,"o":"m 125 713 l 353 713 l 386 987 l 519 987 l 486 713 l 710 713 l 697 610 l 473 610 l 441 355 l 660 355 l 648 256 l 429 256 l 394 -33 l 261 -33 l 296 256 l 65 256 l 77 355 l 309 355 l 340 610 l 112 610 l 125 713 z "},"•":{"ha":671,"x_min":109,"x_max":568,"o":"m 364 685 q 511 629 454 685 q 568 491 568 573 q 531 368 568 425 q 435 280 494 311 q 310 248 376 248 q 164 303 219 248 q 109 438 109 357 q 186 612 109 540 q 364 685 262 685 z "},"…":{"ha":1099,"x_min":76,"x_max":998,"o":"m 76 -7 l 97 164 l 285 164 l 264 -7 l 76 -7 m 433 -7 l 454 164 l 642 164 l 621 -7 l 433 -7 m 790 -7 l 811 164 l 998 164 l 977 -7 l 790 -7 z "},"‰":{"ha":1820,"x_min":92,"x_max":1727,"o":"m 1366 195 q 1462 83 1366 83 q 1595 241 1575 83 q 1598 286 1598 262 q 1501 399 1598 399 q 1400 343 1434 399 q 1366 195 1366 288 m 1513 496 q 1670 436 1614 496 q 1727 279 1727 375 q 1648 68 1727 152 q 1450 -15 1570 -15 q 1293 44 1350 -15 q 1236 199 1236 104 q 1314 411 1236 326 q 1513 496 1392 496 m 222 701 q 319 588 222 588 q 451 747 433 588 q 454 791 454 768 q 358 905 454 905 q 256 849 290 905 q 222 701 222 793 m 370 1002 q 528 945 471 1002 q 584 789 584 887 q 506 572 584 653 q 307 490 429 490 q 149 546 205 490 q 92 701 92 602 q 170 919 92 835 q 370 1002 247 1002 m 192 0 l 940 987 l 1067 987 l 317 0 l 192 0 m 798 195 q 894 83 798 83 q 1027 241 1007 83 q 1029 286 1029 262 q 933 399 1029 399 q 832 343 866 399 q 798 195 798 288 m 945 496 q 1102 436 1046 496 q 1158 279 1158 375 q 1080 69 1158 153 q 882 -15 1001 -15 q 725 44 781 -15 q 668 200 668 104 q 746 412 668 327 q 945 496 824 496 z "},"‹":{"ha":481,"x_min":94,"x_max":441,"o":"m 248 110 l 94 367 l 315 624 l 441 624 l 246 366 l 373 110 l 248 110 z "},"›":{"ha":481,"x_min":48,"x_max":395,"o":"m 48 109 l 243 367 l 117 623 l 241 623 l 395 366 l 174 109 l 48 109 z "},"⁄":{"ha":753,"x_min":-52,"x_max":821,"o":"m -52 0 l 673 987 l 821 987 l 98 0 l -52 0 z "},"⁴":{"ha":700,"x_min":124,"x_max":572,"o":"m 361 441 l 377 570 l 124 570 l 133 642 l 425 987 l 536 987 l 495 654 l 572 654 l 562 570 l 484 570 l 468 441 l 361 441 m 248 654 l 386 654 l 410 850 l 248 654 z "},"€":{"ha":1012,"x_min":43,"x_max":1023,"o":"m 182 564 l 68 564 l 81 644 l 207 644 q 330 840 250 757 q 508 964 410 923 q 713 1006 607 1006 q 1023 901 905 1006 l 949 793 q 710 872 847 872 q 515 810 604 872 q 377 644 427 749 l 701 644 l 687 564 l 348 564 q 330 429 330 500 l 330 423 l 650 423 l 636 347 l 338 347 q 436 179 360 239 q 625 119 513 119 q 912 218 771 119 l 949 94 q 600 -15 793 -15 q 398 25 490 -15 q 244 148 307 65 q 168 347 182 231 l 43 347 l 55 423 l 165 423 q 182 564 165 496 z "},"ℓ":{"ha":372,"x_min":63,"x_max":336,"o":"m 63 0 l 186 996 l 336 996 l 214 0 l 63 0 z "},"™":{"ha":1267,"x_min":69,"x_max":1180,"o":"m 523 446 l 588 974 l 722 974 l 840 613 l 1046 974 l 1180 974 l 1115 446 l 1002 446 l 1044 787 l 854 446 l 781 446 l 673 781 l 632 446 l 523 446 m 173 446 l 225 872 l 69 872 l 82 974 l 512 974 l 500 872 l 343 872 l 291 446 l 173 446 z "},"Ω":{"ha":1087,"x_min":-6,"x_max":1019,"o":"m 602 1004 q 905 897 791 1004 q 1019 614 1019 790 q 1015 548 1019 582 q 934 306 998 416 q 769 122 870 196 l 977 123 l 949 0 l 556 0 l 569 106 q 756 286 679 173 q 849 530 833 399 q 852 587 852 562 q 844 671 852 631 q 817 749 836 711 q 767 814 797 787 q 690 858 736 842 q 585 875 644 875 q 465 854 520 875 q 370 800 409 834 q 300 721 330 766 q 254 628 271 676 q 231 530 237 581 q 228 469 228 505 q 276 260 228 356 q 406 106 324 163 l 393 0 l -6 0 l -6 123 l 209 122 q 66 469 66 250 q 109 692 66 590 q 223 861 151 793 q 393 967 296 929 q 602 1004 491 1004 z "},"℮":{"ha":816,"x_min":60,"x_max":736,"o":"m 725 444 l 229 444 q 223 367 223 399 q 277 182 223 245 q 422 119 331 119 q 668 203 529 119 l 682 168 q 380 77 533 77 q 218 111 290 77 q 104 214 147 144 q 60 383 60 285 q 64 442 60 412 q 116 613 77 539 q 211 729 155 687 q 330 792 267 772 q 460 813 393 813 q 544 805 505 813 q 619 776 583 796 q 681 725 655 755 q 721 647 706 694 q 736 541 736 600 q 725 444 736 474 m 235 484 l 596 484 q 602 563 602 530 q 559 723 602 673 q 453 774 517 774 q 385 759 418 774 q 322 711 353 743 q 268 621 291 680 q 235 484 245 562 z "},"∂":{"ha":788,"x_min":9,"x_max":738,"o":"m 263 -16 q 75 53 140 -16 q 9 237 9 123 q 13 289 9 258 q 84 486 26 396 q 230 628 142 576 q 412 680 317 680 q 521 652 477 680 q 576 587 566 624 q 583 647 583 642 q 585 688 585 669 q 542 843 585 787 q 422 900 498 900 q 216 842 325 900 l 220 954 q 329 1004 269 985 q 449 1022 390 1022 q 528 1009 488 1022 q 606 969 568 997 q 673 903 644 942 q 720 806 702 864 q 738 681 738 749 q 730 564 738 622 q 694 394 720 477 q 627 236 669 311 q 533 105 586 161 q 411 17 480 50 q 263 -16 341 -16 m 165 250 q 195 146 165 184 q 279 108 225 108 q 435 188 368 108 q 547 439 503 267 q 495 524 533 488 q 408 559 458 559 q 291 516 347 559 q 200 402 235 474 q 165 250 165 330 z "},"∆":{"ha":943,"x_min":-19,"x_max":852,"o":"m -19 0 l -7 100 l 460 987 l 610 987 l 852 104 l 840 0 l -19 0 m 158 124 l 676 124 l 501 810 l 158 124 z "},"∏":{"ha":1063,"x_min":97,"x_max":1042,"o":"m 97 -68 l 211 862 l 104 862 l 119 987 l 1042 987 l 1027 862 l 937 862 l 822 -68 l 654 -68 l 769 862 l 374 862 l 260 -68 l 97 -68 z "},"∑":{"ha":838,"x_min":9,"x_max":819,"o":"m 9 -121 l 19 -41 l 420 438 l 151 909 l 160 987 l 819 987 l 804 864 l 351 864 l 595 441 l 234 6 l 728 6 l 712 -121 l 9 -121 z "},"−":{"ha":961,"x_min":122,"x_max":840,"o":"m 122 235 l 137 358 l 840 358 l 825 235 l 122 235 z "},"∕":{"ha":531,"x_min":-41,"x_max":629,"o":"m -41 -68 l 491 987 l 629 987 l 94 -68 l -41 -68 z "},"∙":{"ha":382,"x_min":112,"x_max":279,"o":"m 112 356 l 129 498 l 279 498 l 262 356 l 112 356 z "},"√":{"ha":891,"x_min":68,"x_max":918,"o":"m 340 -99 l 195 441 l 81 421 l 68 530 l 309 569 l 418 135 l 782 1062 l 918 1062 l 465 -99 l 340 -99 z "},"∞":{"ha":1177,"x_min":65,"x_max":1114,"o":"m 342 655 q 486 611 423 655 q 601 482 548 567 q 743 611 672 566 q 896 655 814 655 q 1056 598 997 655 q 1114 447 1114 541 q 1074 296 1114 363 q 969 194 1033 229 q 833 158 905 158 q 698 199 758 158 q 581 330 638 241 q 435 202 507 246 q 285 158 363 158 q 125 223 186 158 q 65 386 65 289 q 105 523 65 460 q 209 621 145 586 q 342 655 272 655 m 171 387 q 207 294 171 332 q 305 256 243 256 q 541 405 413 256 q 450 517 499 477 q 336 557 400 557 q 217 509 263 557 q 171 387 171 460 m 846 256 q 957 302 918 256 q 1006 424 996 348 q 1007 441 1007 436 q 972 524 1007 491 q 880 557 938 557 q 644 406 768 557 q 742 292 696 328 q 846 256 788 256 z "},"∫":{"ha":537,"x_min":-50,"x_max":595,"o":"m 57 -214 q 0 -210 27 -214 q -38 -202 -26 -206 l -50 -198 l -36 -82 q 59 -93 19 -93 q 126 -64 107 -93 q 153 30 146 -35 l 248 793 q 488 1053 279 1053 q 542 1048 515 1053 q 582 1040 569 1044 l 595 1036 l 581 916 q 496 930 534 930 q 425 901 446 930 q 397 808 404 872 l 302 44 q 278 -59 296 -14 q 232 -141 261 -105 q 158 -195 203 -176 q 57 -214 114 -214 z "},"≈":{"ha":916,"x_min":56,"x_max":852,"o":"m 197 457 l 96 496 q 190 643 134 597 q 324 688 247 688 q 504 635 396 688 q 644 592 595 592 q 703 616 679 592 q 750 701 726 640 l 852 665 q 763 516 814 562 q 633 470 711 470 q 441 524 559 470 q 315 565 353 565 q 249 540 275 565 q 197 457 222 515 m 156 125 l 56 167 q 152 312 95 267 q 284 357 208 357 q 466 306 349 357 q 521 283 504 290 q 563 269 538 276 q 603 262 587 262 q 662 286 638 262 q 709 371 686 311 l 812 334 q 723 185 774 231 q 593 140 671 140 q 402 195 523 140 q 275 234 312 234 q 208 209 235 234 q 156 125 181 184 z "},"≠":{"ha":934,"x_min":89,"x_max":850,"o":"m 294 26 l 178 45 l 277 209 l 89 209 l 103 323 l 349 323 l 442 467 l 121 467 l 135 582 l 511 582 l 621 761 l 740 743 l 640 582 l 850 582 l 836 467 l 572 467 l 477 323 l 819 323 l 804 209 l 406 209 l 294 26 z "},"≤":{"ha":916,"x_min":32,"x_max":831,"o":"m 740 165 l 98 484 l 107 557 l 831 878 l 813 738 l 300 521 l 757 302 l 740 165 m 32 0 l 45 111 l 747 111 l 733 0 l 32 0 z "},"≥":{"ha":916,"x_min":35,"x_max":793,"o":"m 61 165 l 78 304 l 591 522 l 134 740 l 151 878 l 793 558 l 784 486 l 61 165 m 35 0 l 49 111 l 750 111 l 736 0 l 35 0 z "},"◊":{"ha":846,"x_min":56,"x_max":762,"o":"m 294 -27 l 56 477 l 422 982 l 522 982 l 762 477 l 393 -27 l 294 -27 m 363 129 l 614 477 l 453 817 l 203 477 l 363 129 z "},"ﬀ":{"ha":1028,"x_min":59,"x_max":1053,"o":"m 836 597 l 762 0 l 615 0 l 688 597 l 332 597 l 259 0 l 112 0 l 185 597 l 59 597 l 71 696 l 197 696 l 202 735 q 213 809 208 779 q 230 870 219 840 q 255 921 240 901 q 293 958 270 941 q 347 985 315 976 q 419 1000 378 995 q 516 1006 461 1006 l 550 1006 l 532 892 q 467 890 493 892 q 421 881 441 888 q 390 865 401 873 q 371 837 379 856 q 358 798 362 818 q 350 743 354 777 l 345 696 l 701 696 l 705 735 q 716 809 711 779 q 733 870 722 840 q 758 921 743 901 q 796 958 773 941 q 850 985 819 976 q 923 1000 881 995 q 1019 1006 964 1006 l 1053 1006 l 1036 892 q 970 890 996 892 q 925 881 945 888 q 893 865 905 873 q 874 837 882 856 q 861 798 865 818 q 853 743 857 777 l 848 696 l 1009 696 l 997 597 l 836 597 z "},"ﬁ":{"ha":854,"x_min":59,"x_max":859,"o":"m 112 0 l 185 597 l 59 597 l 71 696 l 197 696 l 202 735 q 213 809 208 779 q 230 870 219 840 q 255 921 240 901 q 293 958 270 941 q 347 985 315 976 q 419 1000 378 995 q 516 1006 461 1006 l 550 1006 l 532 892 q 467 890 493 892 q 421 881 441 888 q 390 865 401 873 q 371 837 379 856 q 358 798 362 818 q 350 743 354 777 l 345 696 l 648 696 l 635 597 l 332 597 l 259 0 l 112 0 m 589 0 l 675 696 l 823 696 l 738 0 l 589 0 m 694 852 l 711 987 l 859 987 l 842 852 l 694 852 z "},"ﬂ":{"ha":861,"x_min":60,"x_max":819,"o":"m 117 0 l 190 597 l 60 597 l 72 696 l 202 696 l 205 725 q 233 847 214 799 q 288 929 251 895 q 386 978 326 963 q 536 993 446 993 l 819 993 l 697 0 l 551 0 l 659 879 l 544 879 q 433 867 471 879 q 378 829 395 854 q 355 753 361 804 l 349 696 l 510 696 l 498 597 l 337 597 l 263 0 l 117 0 z "},"ﬃ":{"ha":1372,"x_min":59,"x_max":1327,"o":"m 1206 0 l 1061 0 l 1135 597 l 829 597 l 756 0 l 609 0 l 682 597 l 332 597 l 259 0 l 112 0 l 185 597 l 59 597 l 71 696 l 197 696 l 202 735 q 213 809 208 779 q 230 870 219 840 q 255 921 240 901 q 293 958 270 941 q 347 985 315 976 q 419 1000 378 995 q 516 1006 461 1006 l 550 1006 l 532 891 q 467 889 493 891 q 421 880 441 887 q 390 864 401 873 q 371 836 379 855 q 358 797 362 817 q 350 742 354 777 l 345 696 l 694 696 l 700 735 q 713 821 706 787 q 734 888 720 854 q 769 941 748 922 q 824 977 791 961 q 903 999 857 993 q 1013 1006 949 1006 l 1047 1006 l 1029 891 q 964 889 989 891 q 918 880 939 887 q 887 864 898 873 q 868 836 876 855 q 855 797 859 817 q 847 742 851 777 l 842 696 l 1291 696 l 1206 0 m 1310 855 l 1166 855 l 1183 987 l 1327 987 l 1310 855 z "},"ﬄ":{"ha":1394,"x_min":59,"x_max":1257,"o":"m 113 0 l 186 597 l 59 597 l 71 696 l 198 696 l 203 732 q 212 799 208 772 q 225 855 217 827 q 245 903 234 884 q 273 940 256 922 q 312 969 290 958 q 364 989 334 981 q 433 1002 394 998 q 519 1006 471 1006 l 554 1006 l 535 888 q 471 886 496 888 q 426 878 446 884 q 395 862 406 871 q 375 834 384 853 q 363 794 367 815 q 355 739 359 774 l 349 696 l 559 696 l 547 597 l 337 597 l 264 0 l 113 0 m 554 0 l 627 597 l 497 597 l 509 696 l 640 696 l 643 725 q 670 847 652 799 q 726 929 688 895 q 823 978 763 963 q 974 993 883 993 l 1257 993 l 1135 0 l 988 0 l 1096 879 l 981 879 q 870 867 909 879 q 815 829 832 854 q 793 753 799 804 l 786 696 l 947 696 l 936 597 l 774 597 l 701 0 l 554 0 z "}}}
